AfacadFlux-ThinItalic.ufo
<glyph name="exclam" format="2">
  <advance width="480"/>
  <unicode hex="0021"/>
  <outline>
    <contour>
      <point x="214" y="270" type="line"/>
      <point x="250" y="270" type="line"/>
      <point x="411" y="900" type="line"/>
      <point x="369" y="900" type="line"/>
    </contour>
    <contour>
      <point x="170" y="-8" type="curve" smooth="yes"/>
      <point x="194" y="-8"/>
      <point x="216" y="14"/>
      <point x="216" y="38" type="curve" smooth="yes"/>
      <point x="216" y="61"/>
      <point x="197" y="76"/>
      <point x="178" y="76" type="curve" smooth="yes"/>
      <point x="154" y="76"/>
      <point x="132" y="54"/>
      <point x="132" y="29" type="curve" smooth="yes"/>
      <point x="132" y="10"/>
      <point x="149" y="-8"/>
    </contour>
  </outline>
</glyph>
<glyph name="numbersign" format="2">
  <advance width="750"/>
  <unicode hex="0023"/>
  <outline>
    <contour>
      <point x="74" y="0" type="line"/>
      <point x="114" y="0" type="line"/>
      <point x="221" y="258" type="line"/>
      <point x="443" y="258" type="line"/>
      <point x="336" y="0" type="line"/>
      <point x="376" y="0" type="line"/>
      <point x="483" y="258" type="line"/>
      <point x="619" y="258" type="line"/>
      <point x="634" y="294" type="line"/>
      <point x="498" y="294" type="line"/>
      <point x="626" y="606" type="line"/>
      <point x="758" y="606" type="line"/>
      <point x="773" y="642" type="line"/>
      <point x="641" y="642" type="line"/>
      <point x="748" y="900" type="line"/>
      <point x="708" y="900" type="line"/>
      <point x="601" y="642" type="line"/>
      <point x="379" y="642" type="line"/>
      <point x="486" y="900" type="line"/>
      <point x="446" y="900" type="line"/>
      <point x="339" y="642" type="line"/>
      <point x="205" y="642" type="line"/>
      <point x="190" y="606" type="line"/>
      <point x="324" y="606" type="line"/>
      <point x="196" y="294" type="line"/>
      <point x="66" y="294" type="line"/>
      <point x="51" y="258" type="line"/>
      <point x="181" y="258" type="line"/>
    </contour>
    <contour>
      <point x="236" y="294" type="line"/>
      <point x="364" y="606" type="line"/>
      <point x="586" y="606" type="line"/>
      <point x="458" y="294" type="line"/>
    </contour>
  </outline>
</glyph>
<glyph name="dollar" format="2">
  <advance width="750"/>
  <unicode hex="0024"/>
  <outline>
    <contour>
      <point x="247" y="-120" type="line"/>
      <point x="283" y="-120" type="line"/>
      <point x="310" y="-12" type="line"/>
      <point x="477" y="-12"/>
      <point x="605" y="102"/>
      <point x="605" y="251" type="curve" smooth="yes"/>
      <point x="605" y="334"/>
      <point x="565" y="407"/>
      <point x="490" y="461" type="curve" smooth="yes"/>
      <point x="387" y="535" type="line" smooth="yes"/>
      <point x="330" y="576"/>
      <point x="301" y="627"/>
      <point x="301" y="684" type="curve" smooth="yes"/>
      <point x="301" y="786"/>
      <point x="393" y="873"/>
      <point x="499" y="873" type="curve" smooth="yes"/>
      <point x="570" y="873"/>
      <point x="640" y="834"/>
      <point x="680" y="771" type="curve"/>
      <point x="703" y="818" type="line"/>
      <point x="663" y="866"/>
      <point x="603" y="900"/>
      <point x="538" y="909" type="curve"/>
      <point x="558" y="990" type="line"/>
      <point x="522" y="990" type="line"/>
      <point x="503" y="912" type="line"/>
      <point x="371" y="912"/>
      <point x="258" y="805"/>
      <point x="258" y="681" type="curve" smooth="yes"/>
      <point x="258" y="611"/>
      <point x="294" y="545"/>
      <point x="357" y="500" type="curve" smooth="yes"/>
      <point x="461" y="426" type="line" smooth="yes"/>
      <point x="527" y="379"/>
      <point x="562" y="319"/>
      <point x="562" y="250" type="curve" smooth="yes"/>
      <point x="562" y="127"/>
      <point x="456" y="27"/>
      <point x="326" y="27" type="curve" smooth="yes"/>
      <point x="236" y="27"/>
      <point x="155" y="75"/>
      <point x="112" y="153" type="curve"/>
      <point x="89" y="106" type="line"/>
      <point x="133" y="44"/>
      <point x="199" y="4"/>
      <point x="275" y="-8" type="curve"/>
    </contour>
  </outline>
</glyph>
<glyph name="ampersand" format="2">
  <advance width="800"/>
  <unicode hex="0026"/>
  <outline>
    <contour>
      <point x="339" y="-10" type="curve" smooth="yes"/>
      <point x="419" y="-10"/>
      <point x="497" y="20"/>
      <point x="573" y="78" type="curve"/>
      <point x="612" y="0" type="line"/>
      <point x="652" y="0" type="line"/>
      <point x="601" y="100" type="line"/>
      <point x="660" y="145"/>
      <point x="704" y="197"/>
      <point x="738" y="252" type="curve"/>
      <point x="721" y="292" type="line"/>
      <point x="690" y="235"/>
      <point x="645" y="180"/>
      <point x="588" y="132" type="curve"/>
      <point x="408" y="502" type="line"/>
      <point x="472" y="532" type="line" smooth="yes"/>
      <point x="621" y="601"/>
      <point x="679" y="665"/>
      <point x="679" y="752" type="curve" smooth="yes"/>
      <point x="679" y="843"/>
      <point x="607" y="913"/>
      <point x="510" y="913" type="curve" smooth="yes"/>
      <point x="394" y="913"/>
      <point x="293" y="816"/>
      <point x="293" y="706" type="curve" smooth="yes"/>
      <point x="293" y="671"/>
      <point x="303" y="634"/>
      <point x="324" y="591" type="curve" smooth="yes"/>
      <point x="359" y="520" type="line"/>
      <point x="174" y="433"/>
      <point x="95" y="342"/>
      <point x="95" y="221" type="curve" smooth="yes"/>
      <point x="95" y="85"/>
      <point x="196" y="-10"/>
    </contour>
    <contour>
      <point x="345" y="28" type="curve" smooth="yes"/>
      <point x="223" y="28"/>
      <point x="138" y="108"/>
      <point x="138" y="225" type="curve" smooth="yes"/>
      <point x="138" y="330"/>
      <point x="206" y="407"/>
      <point x="372" y="489" type="curve"/>
      <point x="557" y="110" type="line"/>
      <point x="485" y="55"/>
      <point x="416" y="28"/>
    </contour>
    <contour>
      <point x="394" y="533" type="line"/>
      <point x="361" y="603" type="line" smooth="yes"/>
      <point x="344" y="639"/>
      <point x="334" y="677"/>
      <point x="334" y="710" type="curve" smooth="yes"/>
      <point x="334" y="801"/>
      <point x="411" y="876"/>
      <point x="505" y="876" type="curve" smooth="yes"/>
      <point x="584" y="876"/>
      <point x="638" y="824"/>
      <point x="638" y="746" type="curve" smooth="yes"/>
      <point x="638" y="674"/>
      <point x="592" y="627"/>
      <point x="453" y="561" type="curve" smooth="yes"/>
    </contour>
  </outline>
</glyph>
<glyph name="quotesingle" format="2">
  <advance width="240"/>
  <unicode hex="0027"/>
  <outline>
    <contour>
      <point x="183" y="600" type="line"/>
      <point x="207" y="600" type="line"/>
      <point x="294" y="900" type="line"/>
      <point x="246" y="900" type="line"/>
    </contour>
  </outline>
</glyph>
<glyph name="parenleft" format="2">
  <advance width="480"/>
  <unicode hex="0028"/>
  <outline>
    <contour>
      <point x="188" y="-180" type="curve"/>
      <point x="233" y="-180" type="line"/>
      <point x="191" y="-79"/>
      <point x="170" y="30"/>
      <point x="170" y="147" type="curve" smooth="yes"/>
      <point x="170" y="444"/>
      <point x="306" y="743"/>
      <point x="539" y="960" type="curve"/>
      <point x="481" y="960" type="line"/>
      <point x="257" y="730"/>
      <point x="128" y="431"/>
      <point x="128" y="142" type="curve" smooth="yes"/>
      <point x="128" y="30"/>
      <point x="148" y="-75"/>
    </contour>
  </outline>
</glyph>
<glyph name="parenright" format="2">
  <advance width="480"/>
  <unicode hex="0029"/>
  <outline>
    <contour>
      <point x="-28" y="-180" type="curve"/>
      <point x="30" y="-180" type="line"/>
      <point x="254" y="50"/>
      <point x="383" y="349"/>
      <point x="383" y="636" type="curve" smooth="yes"/>
      <point x="383" y="748"/>
      <point x="363" y="854"/>
      <point x="323" y="960" type="curve"/>
      <point x="278" y="960" type="line"/>
      <point x="320" y="859"/>
      <point x="341" y="750"/>
      <point x="341" y="633" type="curve" smooth="yes"/>
      <point x="341" y="336"/>
      <point x="206" y="38"/>
    </contour>
  </outline>
</glyph>
<glyph name="asterisk" format="2">
  <advance width="600"/>
  <unicode hex="002A"/>
  <outline>
    <contour>
      <point x="200" y="447" type="line"/>
      <point x="380" y="619" type="line"/>
      <point x="466" y="415" type="line"/>
      <point x="503" y="434" type="line"/>
      <point x="412" y="635" type="line"/>
      <point x="647" y="675" type="line"/>
      <point x="645" y="715" type="line"/>
      <point x="409" y="668" type="line"/>
      <point x="470" y="900" type="line"/>
      <point x="430" y="900" type="line"/>
      <point x="376" y="673" type="line"/>
      <point x="177" y="773" type="line"/>
      <point x="157" y="738" type="line"/>
      <point x="359" y="643" type="line"/>
      <point x="172" y="475" type="line"/>
    </contour>
  </outline>
</glyph>
<glyph name="plus" format="2">
  <advance width="750"/>
  <unicode hex="002B"/>
  <outline>
    <contour>
      <point x="317" y="145" type="line"/>
      <point x="355" y="145" type="line"/>
      <point x="427" y="432" type="line"/>
      <point x="713" y="432" type="line"/>
      <point x="722" y="468" type="line"/>
      <point x="436" y="468" type="line"/>
      <point x="508" y="755" type="line"/>
      <point x="470" y="755" type="line"/>
      <point x="398" y="468" type="line"/>
      <point x="112" y="468" type="line"/>
      <point x="103" y="432" type="line"/>
      <point x="389" y="432" type="line"/>
    </contour>
  </outline>
</glyph>
<glyph name="period" format="2">
  <advance width="240"/>
  <unicode hex="002E"/>
  <outline>
    <contour>
      <point x="50" y="-8" type="curve" smooth="yes"/>
      <point x="74" y="-8"/>
      <point x="96" y="14"/>
      <point x="96" y="38" type="curve" smooth="yes"/>
      <point x="96" y="61"/>
      <point x="77" y="76"/>
      <point x="58" y="76" type="curve" smooth="yes"/>
      <point x="34" y="76"/>
      <point x="12" y="54"/>
      <point x="12" y="29" type="curve" smooth="yes"/>
      <point x="12" y="10"/>
      <point x="29" y="-8"/>
    </contour>
  </outline>
</glyph>
<glyph name="slash" format="2">
  <advance width="440"/>
  <unicode hex="002F"/>
  <outline>
    <contour>
      <point x="-205" y="-180" type="line"/>
      <point x="-157" y="-180" type="line"/>
      <point x="688" y="960" type="line"/>
      <point x="640" y="960" type="line"/>
    </contour>
  </outline>
</glyph>
<glyph name="zero" format="2">
  <advance width="750"/>
  <unicode hex="0030"/>
  <outline>
    <contour>
      <point x="321" y="-12" type="curve" smooth="yes"/>
      <point x="524" y="-12"/>
      <point x="724" y="290"/>
      <point x="724" y="586" type="curve" smooth="yes"/>
      <point x="724" y="783"/>
      <point x="635" y="912"/>
      <point x="503" y="912" type="curve" smooth="yes"/>
      <point x="301" y="912"/>
      <point x="100" y="611"/>
      <point x="100" y="314" type="curve" smooth="yes"/>
      <point x="100" y="117"/>
      <point x="189" y="-12"/>
    </contour>
    <contour>
      <point x="326" y="28" type="curve" smooth="yes"/>
      <point x="217" y="28"/>
      <point x="144" y="140"/>
      <point x="144" y="314" type="curve" smooth="yes"/>
      <point x="144" y="586"/>
      <point x="323" y="872"/>
      <point x="498" y="872" type="curve" smooth="yes"/>
      <point x="607" y="872"/>
      <point x="681" y="760"/>
      <point x="681" y="586" type="curve" smooth="yes"/>
      <point x="681" y="315"/>
      <point x="502" y="28"/>
    </contour>
  </outline>
</glyph>
<glyph name="one" format="2">
  <advance width="750"/>
  <unicode hex="0031"/>
  <outline>
    <contour>
      <point x="99" y="0" type="line"/>
      <point x="561" y="0" type="line"/>
      <point x="570" y="36" type="line"/>
      <point x="384" y="36" type="line"/>
      <point x="598" y="890" type="line"/>
      <point x="596" y="890" type="line"/>
      <point x="287" y="750" type="line"/>
      <point x="276" y="706" type="line"/>
      <point x="540" y="826" type="line"/>
      <point x="342" y="36" type="line"/>
      <point x="108" y="36" type="line"/>
    </contour>
  </outline>
</glyph>
<glyph name="two" format="2">
  <advance width="750"/>
  <unicode hex="0032"/>
  <outline>
    <contour>
      <point x="57" y="0" type="line"/>
      <point x="561" y="0" type="line"/>
      <point x="571" y="40" type="line"/>
      <point x="149" y="40" type="line"/>
      <point x="569" y="459" type="line" smooth="yes"/>
      <point x="675" y="565"/>
      <point x="705" y="624"/>
      <point x="705" y="700" type="curve" smooth="yes"/>
      <point x="705" y="820"/>
      <point x="609" y="912"/>
      <point x="485" y="912" type="curve" smooth="yes"/>
      <point x="341" y="912"/>
      <point x="213" y="785"/>
      <point x="213" y="643" type="curve" smooth="yes"/>
      <point x="213" y="608"/>
      <point x="221" y="576"/>
      <point x="239" y="542" type="curve"/>
      <point x="288" y="542" type="line"/>
      <point x="267" y="571"/>
      <point x="257" y="606"/>
      <point x="257" y="645" type="curve" smooth="yes"/>
      <point x="257" y="768"/>
      <point x="361" y="873"/>
      <point x="483" y="873" type="curve" smooth="yes"/>
      <point x="586" y="873"/>
      <point x="661" y="798"/>
      <point x="661" y="697" type="curve" smooth="yes"/>
      <point x="661" y="630"/>
      <point x="632" y="579"/>
      <point x="540" y="486" type="curve" smooth="yes"/>
      <point x="57" y="2" type="line"/>
    </contour>
  </outline>
</glyph>
<glyph name="three" format="2">
  <advance width="750"/>
  <unicode hex="0033"/>
  <outline>
    <contour>
      <point x="297" y="-12" type="curve" smooth="yes"/>
      <point x="473" y="-12"/>
      <point x="639" y="145"/>
      <point x="639" y="323" type="curve" smooth="yes"/>
      <point x="639" y="443"/>
      <point x="564" y="544"/>
      <point x="444" y="574" type="curve"/>
      <point x="714" y="898" type="line"/>
      <point x="714" y="900" type="line"/>
      <point x="294" y="900" type="line"/>
      <point x="284" y="862" type="line"/>
      <point x="634" y="862" type="line"/>
      <point x="370" y="541" type="line"/>
      <point x="371" y="540" type="line"/>
      <point x="378" y="541"/>
      <point x="386" y="542"/>
      <point x="396" y="542" type="curve" smooth="yes"/>
      <point x="485" y="542"/>
      <point x="595" y="461"/>
      <point x="595" y="322" type="curve" smooth="yes"/>
      <point x="595" y="164"/>
      <point x="452" y="28"/>
      <point x="301" y="28" type="curve" smooth="yes"/>
      <point x="199" y="28"/>
      <point x="114" y="90"/>
      <point x="82" y="189" type="curve"/>
      <point x="49" y="149" type="line"/>
      <point x="93" y="51"/>
      <point x="185" y="-12"/>
    </contour>
  </outline>
</glyph>
<glyph name="four" format="2">
  <advance width="750"/>
  <unicode hex="0034"/>
  <outline>
    <contour>
      <point x="421" y="0" type="line"/>
      <point x="463" y="0" type="line"/>
      <point x="531" y="271" type="line"/>
      <point x="683" y="271" type="line"/>
      <point x="692" y="309" type="line"/>
      <point x="539" y="309" type="line"/>
      <point x="602" y="562" type="line"/>
      <point x="557" y="540" type="line"/>
      <point x="499" y="309" type="line"/>
      <point x="124" y="309" type="line"/>
      <point x="575" y="900" type="line"/>
      <point x="525" y="900" type="line"/>
      <point x="47" y="273" type="line"/>
      <point x="47" y="271" type="line"/>
      <point x="489" y="271" type="line"/>
    </contour>
  </outline>
</glyph>
<glyph name="five" format="2">
  <advance width="750"/>
  <unicode hex="0035"/>
  <outline>
    <contour>
      <point x="297" y="-12" type="curve" smooth="yes"/>
      <point x="476" y="-12"/>
      <point x="639" y="148"/>
      <point x="639" y="324" type="curve" smooth="yes"/>
      <point x="639" y="470"/>
      <point x="527" y="581"/>
      <point x="378" y="581" type="curve" smooth="yes"/>
      <point x="348" y="581"/>
      <point x="319" y="577"/>
      <point x="290" y="568" type="curve"/>
      <point x="364" y="862" type="line"/>
      <point x="706" y="862" type="line"/>
      <point x="715" y="900" type="line"/>
      <point x="333" y="900" type="line"/>
      <point x="235" y="508" type="line"/>
      <point x="237" y="508" type="line"/>
      <point x="276" y="531"/>
      <point x="322" y="543"/>
      <point x="368" y="543" type="curve" smooth="yes"/>
      <point x="499" y="543"/>
      <point x="595" y="449"/>
      <point x="595" y="322" type="curve" smooth="yes"/>
      <point x="595" y="168"/>
      <point x="456" y="28"/>
      <point x="301" y="28" type="curve" smooth="yes"/>
      <point x="199" y="28"/>
      <point x="114" y="90"/>
      <point x="82" y="189" type="curve"/>
      <point x="49" y="149" type="line"/>
      <point x="94" y="49"/>
      <point x="188" y="-12"/>
    </contour>
  </outline>
</glyph>
<glyph name="seven" format="2">
  <advance width="750"/>
  <unicode hex="0037"/>
  <outline>
    <contour>
      <point x="69" y="0" type="line"/>
      <point x="121" y="0" type="line"/>
      <point x="810" y="898" type="line"/>
      <point x="810" y="900" type="line"/>
      <point x="259" y="900" type="line"/>
      <point x="249" y="860" type="line"/>
      <point x="728" y="860" type="line"/>
    </contour>
  </outline>
</glyph>
<glyph name="nine" format="2">
  <advance width="750"/>
  <unicode hex="0039"/>
  <outline>
    <contour>
      <point x="242" y="0" type="line"/>
      <point x="293" y="0" type="line"/>
      <point x="663" y="451" type="line" smooth="yes"/>
      <point x="712" y="510"/>
      <point x="740" y="586"/>
      <point x="740" y="657" type="curve" smooth="yes"/>
      <point x="740" y="800"/>
      <point x="625" y="912"/>
      <point x="481" y="912" type="curve" smooth="yes"/>
      <point x="310" y="912"/>
      <point x="152" y="757"/>
      <point x="152" y="585" type="curve" smooth="yes"/>
      <point x="152" y="441"/>
      <point x="261" y="330"/>
      <point x="404" y="330" type="curve" smooth="yes"/>
      <point x="458" y="330"/>
      <point x="506" y="346"/>
      <point x="557" y="377" type="curve"/>
    </contour>
    <contour>
      <point x="414" y="370" type="curve" smooth="yes"/>
      <point x="291" y="370"/>
      <point x="194" y="461"/>
      <point x="194" y="589" type="curve" smooth="yes"/>
      <point x="194" y="740"/>
      <point x="330" y="872"/>
      <point x="476" y="872" type="curve" smooth="yes"/>
      <point x="601" y="872"/>
      <point x="698" y="776"/>
      <point x="698" y="650" type="curve" smooth="yes"/>
      <point x="698" y="502"/>
      <point x="563" y="370"/>
    </contour>
  </outline>
</glyph>
<glyph name="less" format="2">
  <advance width="750"/>
  <unicode hex="003C"/>
  <outline>
    <contour>
      <point x="617" y="166" type="line"/>
      <point x="626" y="204" type="line"/>
      <point x="351" y="352" type="line" smooth="yes"/>
      <point x="295" y="382"/>
      <point x="236" y="413"/>
      <point x="177" y="443" type="curve"/>
      <point x="251" y="474"/>
      <point x="326" y="506"/>
      <point x="396" y="536" type="curve" smooth="yes"/>
      <point x="746" y="688" type="line"/>
      <point x="757" y="734" type="line"/>
      <point x="96" y="448" type="line"/>
      <point x="96" y="446" type="line"/>
    </contour>
  </outline>
</glyph>
<glyph name="equal" format="2">
  <advance width="750"/>
  <unicode hex="003D"/>
  <outline>
    <contour>
      <point x="158" y="536" type="line"/>
      <point x="708" y="536" type="line"/>
      <point x="717" y="572" type="line"/>
      <point x="167" y="572" type="line"/>
    </contour>
    <contour>
      <point x="107" y="328" type="line"/>
      <point x="657" y="328" type="line"/>
      <point x="666" y="364" type="line"/>
      <point x="116" y="364" type="line"/>
    </contour>
  </outline>
</glyph>
<glyph name="greater" format="2">
  <advance width="750"/>
  <unicode hex="003E"/>
  <outline>
    <contour>
      <point x="67" y="166" type="line"/>
      <point x="728" y="452" type="line"/>
      <point x="728" y="454" type="line"/>
      <point x="207" y="734" type="line"/>
      <point x="198" y="696" type="line"/>
      <point x="473" y="548" type="line" smooth="yes"/>
      <point x="529" y="518"/>
      <point x="588" y="487"/>
      <point x="647" y="457" type="curve"/>
      <point x="573" y="426"/>
      <point x="498" y="394"/>
      <point x="428" y="364" type="curve" smooth="yes"/>
      <point x="78" y="212" type="line"/>
    </contour>
  </outline>
</glyph>
<glyph name="question" format="2">
  <advance width="480"/>
  <unicode hex="003F"/>
  <outline>
    <contour>
      <point x="214" y="270" type="curve"/>
      <point x="250" y="270" type="line"/>
      <point x="305" y="481"/>
      <point x="540" y="549"/>
      <point x="540" y="734" type="curve" smooth="yes"/>
      <point x="540" y="835"/>
      <point x="471" y="912"/>
      <point x="352" y="912" type="curve" smooth="yes"/>
      <point x="309" y="912"/>
      <point x="271" y="902"/>
      <point x="236" y="885" type="curve"/>
      <point x="223" y="834" type="line"/>
      <point x="258" y="859"/>
      <point x="299" y="872"/>
      <point x="344" y="872" type="curve" smooth="yes"/>
      <point x="423" y="872"/>
      <point x="498" y="832"/>
      <point x="498" y="734" type="curve" smooth="yes"/>
      <point x="498" y="563"/>
      <point x="273" y="505"/>
    </contour>
    <contour>
      <point x="170" y="-8" type="curve" smooth="yes"/>
      <point x="194" y="-8"/>
      <point x="216" y="14"/>
      <point x="216" y="38" type="curve" smooth="yes"/>
      <point x="216" y="61"/>
      <point x="197" y="76"/>
      <point x="178" y="76" type="curve" smooth="yes"/>
      <point x="154" y="76"/>
      <point x="132" y="54"/>
      <point x="132" y="29" type="curve" smooth="yes"/>
      <point x="132" y="10"/>
      <point x="149" y="-8"/>
    </contour>
  </outline>
</glyph>
<glyph name="at" format="2">
  <advance width="1260"/>
  <unicode hex="0040"/>
  <outline>
    <contour>
      <point x="605" y="-192" type="curve" smooth="yes"/>
      <point x="702" y="-192"/>
      <point x="794" y="-169"/>
      <point x="890" y="-121" type="curve"/>
      <point x="889" y="-79" type="line"/>
      <point x="793" y="-130"/>
      <point x="704" y="-154"/>
      <point x="608" y="-154" type="curve" smooth="yes"/>
      <point x="335" y="-154"/>
      <point x="136" y="40"/>
      <point x="136" y="306" type="curve" smooth="yes"/>
      <point x="136" y="614"/>
      <point x="402" y="874"/>
      <point x="721" y="874" type="curve" smooth="yes"/>
      <point x="982" y="874"/>
      <point x="1180" y="704"/>
      <point x="1180" y="465" type="curve" smooth="yes"/>
      <point x="1180" y="276"/>
      <point x="1056" y="100"/>
      <point x="933" y="100" type="curve" smooth="yes"/>
      <point x="868" y="100"/>
      <point x="837" y="149"/>
      <point x="855" y="221" type="curve" smooth="yes"/>
      <point x="952" y="615" type="line"/>
      <point x="916" y="615" type="line"/>
      <point x="879" y="466" type="line"/>
      <point x="851" y="562"/>
      <point x="768" y="623"/>
      <point x="666" y="623" type="curve" smooth="yes"/>
      <point x="511" y="623"/>
      <point x="374" y="484"/>
      <point x="374" y="328" type="curve" smooth="yes"/>
      <point x="374" y="197"/>
      <point x="470" y="97"/>
      <point x="597" y="97" type="curve" smooth="yes"/>
      <point x="676" y="97"/>
      <point x="753" y="136"/>
      <point x="815" y="207" type="curve"/>
      <point x="800" y="124"/>
      <point x="847" y="64"/>
      <point x="929" y="64" type="curve" smooth="yes"/>
      <point x="1077" y="64"/>
      <point x="1222" y="260"/>
      <point x="1222" y="467" type="curve" smooth="yes"/>
      <point x="1222" y="719"/>
      <point x="1006" y="912"/>
      <point x="723" y="912" type="curve" smooth="yes"/>
      <point x="382" y="912"/>
      <point x="94" y="632"/>
      <point x="94" y="304" type="curve" smooth="yes"/>
      <point x="94" y="18"/>
      <point x="312" y="-192"/>
    </contour>
    <contour>
      <point x="607" y="134" type="curve" smooth="yes"/>
      <point x="497" y="134"/>
      <point x="414" y="220"/>
      <point x="414" y="333" type="curve" smooth="yes"/>
      <point x="414" y="466"/>
      <point x="531" y="585"/>
      <point x="663" y="585" type="curve" smooth="yes"/>
      <point x="774" y="585"/>
      <point x="857" y="501"/>
      <point x="857" y="390" type="curve" smooth="yes"/>
      <point x="857" y="256"/>
      <point x="738" y="134"/>
    </contour>
  </outline>
</glyph>
<glyph name="A" format="2">
  <advance width="780"/>
  <unicode hex="0041"/>
  <anchor x="315" y="0" name="bottom"/>
  <anchor x="639" y="0" name="ogonek"/>
  <anchor x="536" y="900" name="top"/>
  <anchor x="212" y="720" name="top-vertical"/>
  <outline>
    <contour>
      <point x="-30" y="0" type="line"/>
      <point x="17" y="0" type="line"/>
      <point x="247" y="374" type="line"/>
      <point x="571" y="374" type="line"/>
      <point x="617" y="0" type="line"/>
      <point x="660" y="0" type="line"/>
      <point x="544" y="930" type="line"/>
      <point x="542" y="930" type="line"/>
    </contour>
    <contour>
      <point x="269" y="412" type="line"/>
      <point x="421" y="660" type="line" smooth="yes"/>
      <point x="464" y="730"/>
      <point x="486" y="764"/>
      <point x="520" y="828" type="curve"/>
      <point x="524" y="764"/>
      <point x="528" y="730"/>
      <point x="537" y="660" type="curve" smooth="yes"/>
      <point x="567" y="412" type="line"/>
    </contour>
  </outline>
</glyph>
<glyph name="B" format="2">
  <advance width="730"/>
  <unicode hex="0042"/>
  <outline>
    <contour>
      <point x="61" y="0" type="line"/>
      <point x="319" y="0" type="line" smooth="yes"/>
      <point x="502" y="0"/>
      <point x="654" y="136"/>
      <point x="654" y="300" type="curve" smooth="yes"/>
      <point x="654" y="403"/>
      <point x="592" y="491"/>
      <point x="496" y="525" type="curve"/>
      <point x="606" y="548"/>
      <point x="682" y="630"/>
      <point x="682" y="727" type="curve" smooth="yes"/>
      <point x="682" y="830"/>
      <point x="601" y="900"/>
      <point x="483" y="900" type="curve" smooth="yes"/>
      <point x="286" y="900" type="line"/>
    </contour>
    <contour>
      <point x="115" y="38" type="line"/>
      <point x="232" y="510" type="line"/>
      <point x="397" y="510" type="line" smooth="yes"/>
      <point x="518" y="510"/>
      <point x="610" y="420"/>
      <point x="610" y="301" type="curve" smooth="yes"/>
      <point x="610" y="157"/>
      <point x="479" y="38"/>
      <point x="321" y="38" type="curve" smooth="yes"/>
    </contour>
    <contour>
      <point x="241" y="546" type="line"/>
      <point x="320" y="862" type="line"/>
      <point x="479" y="862" type="line" smooth="yes"/>
      <point x="575" y="862"/>
      <point x="640" y="805"/>
      <point x="640" y="721" type="curve" smooth="yes"/>
      <point x="640" y="621"/>
      <point x="543" y="546"/>
      <point x="415" y="546" type="curve" smooth="yes"/>
    </contour>
  </outline>
</glyph>
<glyph name="C" format="2">
  <advance width="880"/>
  <unicode hex="0043"/>
  <anchor x="505" y="0" name="bottom"/>
  <anchor x="612" y="900" name="top"/>
  <outline>
    <contour>
      <point x="505" y="-12" type="curve" smooth="yes"/>
      <point x="621" y="-12"/>
      <point x="737" y="35"/>
      <point x="828" y="119" type="curve"/>
      <point x="828" y="178" type="line"/>
      <point x="739" y="83"/>
      <point x="623" y="30"/>
      <point x="505" y="30" type="curve" smooth="yes"/>
      <point x="304" y="30"/>
      <point x="150" y="187"/>
      <point x="150" y="394" type="curve" smooth="yes"/>
      <point x="150" y="642"/>
      <point x="371" y="870"/>
      <point x="610" y="870" type="curve" smooth="yes"/>
      <point x="727" y="870"/>
      <point x="833" y="815"/>
      <point x="901" y="719" type="curve"/>
      <point x="923" y="765" type="line"/>
      <point x="846" y="859"/>
      <point x="735" y="912"/>
      <point x="613" y="912" type="curve" smooth="yes"/>
      <point x="348" y="912"/>
      <point x="104" y="664"/>
      <point x="104" y="395" type="curve" smooth="yes"/>
      <point x="104" y="166"/>
      <point x="279" y="-12"/>
    </contour>
  </outline>
</glyph>
<glyph name="D" format="2">
  <advance width="960"/>
  <unicode hex="0044"/>
  <anchor x="332" y="0" name="bottom"/>
  <anchor x="203" y="480" name="center"/>
  <anchor x="557" y="900" name="top"/>
  <outline>
    <contour>
      <point x="61" y="0" type="line"/>
      <point x="423" y="0" type="line" smooth="yes"/>
      <point x="687" y="0"/>
      <point x="931" y="243"/>
      <point x="931" y="505" type="curve" smooth="yes"/>
      <point x="931" y="728"/>
      <point x="756" y="900"/>
      <point x="528" y="900" type="curve" smooth="yes"/>
      <point x="286" y="900" type="line"/>
    </contour>
    <contour>
      <point x="115" y="40" type="line"/>
      <point x="320" y="860" type="line"/>
      <point x="518" y="860" type="line" smooth="yes"/>
      <point x="727" y="860"/>
      <point x="885" y="706"/>
      <point x="885" y="503" type="curve" smooth="yes"/>
      <point x="885" y="260"/>
      <point x="661" y="40"/>
      <point x="413" y="40" type="curve" smooth="yes"/>
    </contour>
  </outline>
</glyph>
<glyph name="E" format="2">
  <advance width="600"/>
  <unicode hex="0045"/>
  <anchor x="260" y="0" name="bottom"/>
  <anchor x="438" y="0" name="ogonek"/>
  <anchor x="484" y="900" name="top"/>
  <anchor x="286" y="900" name="topleft"/>
  <outline>
    <contour>
      <point x="61" y="0" type="line"/>
      <point x="459" y="0" type="line"/>
      <point x="469" y="40" type="line"/>
      <point x="115" y="40" type="line"/>
      <point x="239" y="536" type="line"/>
      <point x="521" y="536" type="line"/>
      <point x="531" y="574" type="line"/>
      <point x="248" y="574" type="line"/>
      <point x="320" y="860" type="line"/>
      <point x="671" y="860" type="line"/>
      <point x="681" y="900" type="line"/>
      <point x="286" y="900" type="line"/>
    </contour>
  </outline>
</glyph>
<glyph name="F" format="2">
  <advance width="570"/>
  <unicode hex="0046"/>
  <outline>
    <contour>
      <point x="61" y="0" type="line"/>
      <point x="105" y="0" type="line"/>
      <point x="239" y="536" type="line"/>
      <point x="561" y="536" type="line"/>
      <point x="571" y="574" type="line"/>
      <point x="248" y="574" type="line"/>
      <point x="320" y="860" type="line"/>
      <point x="674" y="860" type="line"/>
      <point x="684" y="900" type="line"/>
      <point x="286" y="900" type="line"/>
    </contour>
  </outline>
</glyph>
<glyph name="H" format="2">
  <advance width="760"/>
  <unicode hex="0048"/>
  <anchor x="305" y="0" name="bottom"/>
  <anchor x="492" y="750" name="center"/>
  <anchor x="530" y="900" name="top"/>
  <anchor x="286" y="900" name="topleft"/>
  <outline>
    <contour>
      <point x="61" y="0" type="line"/>
      <point x="105" y="0" type="line"/>
      <point x="239" y="535" type="line"/>
      <point x="639" y="535" type="line"/>
      <point x="505" y="0" type="line"/>
      <point x="549" y="0" type="line"/>
      <point x="774" y="900" type="line"/>
      <point x="730" y="900" type="line"/>
      <point x="649" y="575" type="line"/>
      <point x="249" y="575" type="line"/>
      <point x="330" y="900" type="line"/>
      <point x="286" y="900" type="line"/>
    </contour>
  </outline>
</glyph>
<glyph name="I" format="2">
  <advance width="340"/>
  <unicode hex="0049"/>
  <anchor x="95" y="0" name="bottom"/>
  <anchor x="95" y="0" name="ogonek"/>
  <anchor x="320" y="900" name="top"/>
  <anchor x="125" y="900" name="topleft"/>
  <outline>
    <contour>
      <point x="73" y="0" type="line"/>
      <point x="117" y="0" type="line"/>
      <point x="342" y="900" type="line"/>
      <point x="298" y="900" type="line"/>
    </contour>
  </outline>
</glyph>
<glyph name="J" format="2">
  <advance width="520"/>
  <unicode hex="004A"/>
  <anchor x="114" y="0" name="bottom"/>
  <anchor x="538" y="900" name="top"/>
  <outline>
    <contour>
      <point x="139" y="-12" type="curve" smooth="yes"/>
      <point x="261" y="-12"/>
      <point x="355" y="79"/>
      <point x="389" y="216" type="curve" smooth="yes"/>
      <point x="560" y="900" type="line"/>
      <point x="516" y="900" type="line"/>
      <point x="350" y="235" type="line" smooth="yes"/>
      <point x="316" y="99"/>
      <point x="245" y="28"/>
      <point x="140" y="28" type="curve" smooth="yes"/>
      <point x="71" y="28"/>
      <point x="16" y="59"/>
      <point x="-8" y="110" type="curve"/>
      <point x="-32" y="63" type="line"/>
      <point x="6" y="12"/>
      <point x="77" y="-12"/>
    </contour>
  </outline>
</glyph>
<glyph name="K" format="2">
  <advance width="740"/>
  <unicode hex="004B"/>
  <anchor x="343" y="0" name="bottom"/>
  <anchor x="497" y="900" name="top"/>
  <outline>
    <contour>
      <point x="600" y="0" type="line"/>
      <point x="651" y="0" type="line"/>
      <point x="341" y="572" type="line"/>
      <point x="772" y="900" type="line"/>
      <point x="709" y="900" type="line"/>
      <point x="286" y="579" type="line"/>
    </contour>
    <contour>
      <point x="61" y="0" type="line"/>
      <point x="105" y="0" type="line"/>
      <point x="330" y="900" type="line"/>
      <point x="286" y="900" type="line"/>
    </contour>
  </outline>
</glyph>
<glyph name="L" format="2">
  <advance width="580"/>
  <unicode hex="004C"/>
  <anchor x="256" y="0" name="bottom"/>
  <anchor x="195" y="450" name="center"/>
  <anchor x="443" y="480" name="periodcentered"/>
  <anchor x="308" y="900" name="top"/>
  <anchor x="402" y="900" name="topright"/>
  <outline>
    <contour>
      <point x="61" y="0" type="line"/>
      <point x="451" y="0" type="line"/>
      <point x="461" y="40" type="line"/>
      <point x="115" y="40" type="line"/>
      <point x="330" y="900" type="line"/>
      <point x="286" y="900" type="line"/>
    </contour>
  </outline>
</glyph>
<glyph name="M" format="2">
  <advance width="1060"/>
  <unicode hex="004D"/>
  <outline>
    <contour>
      <point x="61" y="0" type="line"/>
      <point x="103" y="0" type="line"/>
      <point x="248" y="570" type="line" smooth="yes"/>
      <point x="268" y="649"/>
      <point x="287" y="729"/>
      <point x="305" y="816" type="curve"/>
      <point x="340" y="739"/>
      <point x="372" y="669"/>
      <point x="405" y="600" type="curve" smooth="yes"/>
      <point x="542" y="315" type="line"/>
      <point x="811" y="600" type="line" smooth="yes"/>
      <point x="878" y="671"/>
      <point x="945" y="743"/>
      <point x="1012" y="816" type="curve"/>
      <point x="989" y="731"/>
      <point x="970" y="650"/>
      <point x="950" y="570" type="curve" smooth="yes"/>
      <point x="805" y="0" type="line"/>
      <point x="849" y="0" type="line"/>
      <point x="1087" y="951" type="line"/>
      <point x="1085" y="951" type="line"/>
      <point x="554" y="387" type="line"/>
      <point x="296" y="930" type="line"/>
      <point x="294" y="930" type="line"/>
    </contour>
  </outline>
</glyph>
<glyph name="N" format="2">
  <advance width="970"/>
  <unicode hex="004E"/>
  <anchor x="410" y="0" name="bottom"/>
  <anchor x="635" y="900" name="top"/>
  <outline>
    <contour>
      <point x="750" y="-30" type="line"/>
      <point x="752" y="-30" type="line"/>
      <point x="985" y="900" type="line"/>
      <point x="943" y="900" type="line"/>
      <point x="740" y="87" type="line"/>
      <point x="296" y="930" type="line"/>
      <point x="294" y="930" type="line"/>
      <point x="61" y="0" type="line"/>
      <point x="103" y="0" type="line"/>
      <point x="307" y="813" type="line"/>
    </contour>
  </outline>
</glyph>
<glyph name="O" format="2">
  <advance width="1040"/>
  <unicode hex="004F"/>
  <anchor x="445" y="0" name="bottom"/>
  <anchor x="556" y="450" name="center"/>
  <anchor x="489" y="0" name="ogonek"/>
  <anchor x="667" y="900" name="top"/>
  <anchor x="579" y="540" name="top-vertical"/>
  <anchor x="197" y="900" name="topleft"/>
  <anchor x="944" y="900" name="topright"/>
  <outline>
    <contour>
      <point x="503" y="-12" type="curve" smooth="yes"/>
      <point x="765" y="-12"/>
      <point x="1011" y="235"/>
      <point x="1011" y="506" type="curve" smooth="yes"/>
      <point x="1011" y="736"/>
      <point x="835" y="912"/>
      <point x="613" y="912" type="curve" smooth="yes"/>
      <point x="349" y="912"/>
      <point x="104" y="665"/>
      <point x="104" y="395" type="curve" smooth="yes"/>
      <point x="104" y="165"/>
      <point x="280" y="-12"/>
    </contour>
    <contour>
      <point x="505" y="30" type="curve" smooth="yes"/>
      <point x="305" y="30"/>
      <point x="150" y="186"/>
      <point x="150" y="394" type="curve" smooth="yes"/>
      <point x="150" y="643"/>
      <point x="372" y="870"/>
      <point x="610" y="870" type="curve" smooth="yes"/>
      <point x="808" y="870"/>
      <point x="965" y="712"/>
      <point x="965" y="504" type="curve" smooth="yes"/>
      <point x="965" y="256"/>
      <point x="742" y="30"/>
    </contour>
  </outline>
</glyph>
<glyph name="P" format="2">
  <advance width="700"/>
  <unicode hex="0050"/>
  <outline>
    <contour>
      <point x="61" y="0" type="line"/>
      <point x="105" y="0" type="line"/>
      <point x="192" y="348" type="line"/>
      <point x="384" y="348" type="line" smooth="yes"/>
      <point x="578" y="348"/>
      <point x="720" y="490"/>
      <point x="720" y="656" type="curve" smooth="yes"/>
      <point x="720" y="797"/>
      <point x="619" y="900"/>
      <point x="450" y="900" type="curve" smooth="yes"/>
      <point x="286" y="900" type="line"/>
    </contour>
    <contour>
      <point x="201" y="386" type="line"/>
      <point x="320" y="862" type="line"/>
      <point x="441" y="862" type="line" smooth="yes"/>
      <point x="595" y="862"/>
      <point x="678" y="773"/>
      <point x="678" y="652" type="curve" smooth="yes"/>
      <point x="678" y="509"/>
      <point x="559" y="386"/>
      <point x="381" y="386" type="curve" smooth="yes"/>
    </contour>
  </outline>
</glyph>
<glyph name="Q" format="2">
  <advance width="1040"/>
  <unicode hex="0051"/>
  <outline>
    <contour>
      <point x="813" y="-30" type="line"/>
      <point x="863" y="-30" type="line"/>
      <point x="793" y="90" type="line"/>
      <point x="921" y="187"/>
      <point x="1011" y="342"/>
      <point x="1011" y="506" type="curve" smooth="yes"/>
      <point x="1011" y="736"/>
      <point x="835" y="912"/>
      <point x="613" y="912" type="curve" smooth="yes"/>
      <point x="349" y="912"/>
      <point x="104" y="665"/>
      <point x="104" y="395" type="curve" smooth="yes"/>
      <point x="104" y="165"/>
      <point x="280" y="-12"/>
      <point x="503" y="-12" type="curve" smooth="yes"/>
      <point x="593" y="-12"/>
      <point x="680" y="17"/>
      <point x="757" y="66" type="curve"/>
    </contour>
    <contour>
      <point x="505" y="30" type="curve" smooth="yes"/>
      <point x="305" y="30"/>
      <point x="150" y="186"/>
      <point x="150" y="394" type="curve" smooth="yes"/>
      <point x="150" y="643"/>
      <point x="372" y="870"/>
      <point x="610" y="870" type="curve" smooth="yes"/>
      <point x="808" y="870"/>
      <point x="965" y="712"/>
      <point x="965" y="504" type="curve" smooth="yes"/>
      <point x="965" y="356"/>
      <point x="886" y="216"/>
      <point x="771" y="127" type="curve"/>
      <point x="582" y="450" type="line"/>
      <point x="532" y="450" type="line"/>
      <point x="736" y="102" type="line"/>
      <point x="666" y="57"/>
      <point x="586" y="30"/>
    </contour>
  </outline>
</glyph>
<glyph name="R" format="2">
  <advance width="740"/>
  <unicode hex="0052"/>
  <anchor x="362" y="0" name="bottom"/>
  <anchor x="470" y="900" name="top"/>
  <outline>
    <contour>
      <point x="61" y="0" type="line"/>
      <point x="105" y="0" type="line"/>
      <point x="217" y="447" type="line"/>
      <point x="389" y="447" type="line"/>
      <point x="600" y="0" type="line"/>
      <point x="651" y="0" type="line"/>
      <point x="436" y="450" type="line"/>
      <point x="575" y="468"/>
      <point x="678" y="574"/>
      <point x="678" y="699" type="curve" smooth="yes"/>
      <point x="678" y="813"/>
      <point x="590" y="900"/>
      <point x="453" y="900" type="curve" smooth="yes"/>
      <point x="286" y="900" type="line"/>
    </contour>
    <contour>
      <point x="226" y="482" type="line"/>
      <point x="320" y="862" type="line"/>
      <point x="445" y="862" type="line" smooth="yes"/>
      <point x="562" y="862"/>
      <point x="634" y="789"/>
      <point x="634" y="695" type="curve" smooth="yes"/>
      <point x="634" y="583"/>
      <point x="533" y="482"/>
      <point x="386" y="482" type="curve" smooth="yes"/>
    </contour>
  </outline>
</glyph>
<glyph name="S" format="2">
  <advance width="640"/>
  <unicode hex="0053"/>
  <anchor x="270" y="0" name="bottom"/>
  <anchor x="446" y="900" name="top"/>
  <outline>
    <contour>
      <point x="268" y="-12" type="curve" smooth="yes"/>
      <point x="425" y="-12"/>
      <point x="550" y="105"/>
      <point x="550" y="251" type="curve" smooth="yes"/>
      <point x="550" y="334"/>
      <point x="510" y="407"/>
      <point x="435" y="461" type="curve" smooth="yes"/>
      <point x="332" y="535" type="line" smooth="yes"/>
      <point x="275" y="576"/>
      <point x="246" y="627"/>
      <point x="246" y="684" type="curve" smooth="yes"/>
      <point x="246" y="786"/>
      <point x="338" y="873"/>
      <point x="444" y="873" type="curve" smooth="yes"/>
      <point x="515" y="873"/>
      <point x="585" y="834"/>
      <point x="625" y="771" type="curve"/>
      <point x="648" y="818" type="line"/>
      <point x="600" y="876"/>
      <point x="524" y="912"/>
      <point x="447" y="912" type="curve" smooth="yes"/>
      <point x="316" y="912"/>
      <point x="203" y="805"/>
      <point x="203" y="681" type="curve" smooth="yes"/>
      <point x="203" y="611"/>
      <point x="239" y="545"/>
      <point x="302" y="500" type="curve" smooth="yes"/>
      <point x="406" y="426" type="line" smooth="yes"/>
      <point x="472" y="379"/>
      <point x="507" y="319"/>
      <point x="507" y="250" type="curve" smooth="yes"/>
      <point x="507" y="127"/>
      <point x="401" y="27"/>
      <point x="271" y="27" type="curve" smooth="yes"/>
      <point x="181" y="27"/>
      <point x="100" y="75"/>
      <point x="57" y="153" type="curve"/>
      <point x="34" y="106" type="line"/>
      <point x="87" y="31"/>
      <point x="173" y="-12"/>
    </contour>
  </outline>
</glyph>
<glyph name="T" format="2">
  <advance width="670"/>
  <unicode hex="0054"/>
  <anchor x="260" y="0" name="bottom"/>
  <anchor x="380" y="480" name="center"/>
  <anchor x="485" y="900" name="top"/>
  <outline>
    <contour>
      <point x="238" y="0" type="line"/>
      <point x="282" y="0" type="line"/>
      <point x="497" y="860" type="line"/>
      <point x="756" y="860" type="line"/>
      <point x="766" y="900" type="line"/>
      <point x="204" y="900" type="line"/>
      <point x="194" y="860" type="line"/>
      <point x="453" y="860" type="line"/>
    </contour>
  </outline>
</glyph>
<glyph name="U" format="2">
  <advance width="760"/>
  <unicode hex="0055"/>
  <anchor x="305" y="0" name="bottom"/>
  <anchor x="326" y="0" name="ogonek"/>
  <anchor x="530" y="900" name="top"/>
  <anchor x="485" y="720" name="top-vertical"/>
  <anchor x="801" y="900" name="topright"/>
  <outline>
    <contour>
      <point x="340" y="-9" type="curve" smooth="yes"/>
      <point x="488" y="-9"/>
      <point x="596" y="81"/>
      <point x="638" y="248" type="curve" smooth="yes"/>
      <point x="801" y="900" type="line"/>
      <point x="759" y="900" type="line"/>
      <point x="596" y="248" type="line" smooth="yes"/>
      <point x="560" y="104"/>
      <point x="469" y="30"/>
      <point x="341" y="30" type="curve" smooth="yes"/>
      <point x="175" y="30"/>
      <point x="117" y="156"/>
      <point x="155" y="308" type="curve" smooth="yes"/>
      <point x="303" y="900" type="line"/>
      <point x="259" y="900" type="line"/>
      <point x="111" y="308" type="line" smooth="yes"/>
      <point x="69" y="139"/>
      <point x="151" y="-9"/>
    </contour>
  </outline>
</glyph>
<glyph name="V" format="2">
  <advance width="730"/>
  <unicode hex="0056"/>
  <outline>
    <contour>
      <point x="286" y="-30" type="line"/>
      <point x="288" y="-30" type="line"/>
      <point x="860" y="900" type="line"/>
      <point x="813" y="900" type="line"/>
      <point x="409" y="240" type="line"/>
      <point x="366" y="170"/>
      <point x="344" y="136"/>
      <point x="310" y="72" type="curve"/>
      <point x="306" y="136"/>
      <point x="301" y="170"/>
      <point x="293" y="240" type="curve"/>
      <point x="213" y="900" type="line"/>
      <point x="170" y="900" type="line"/>
    </contour>
  </outline>
</glyph>
<glyph name="W" format="2">
  <advance width="1180"/>
  <unicode hex="0057"/>
  <anchor x="519" y="0" name="bottom"/>
  <anchor x="744" y="900" name="top"/>
  <outline>
    <contour>
      <point x="275" y="-30" type="line"/>
      <point x="277" y="-30" type="line"/>
      <point x="646" y="660" type="line"/>
      <point x="668" y="700"/>
      <point x="689" y="741"/>
      <point x="713" y="793" type="curve"/>
      <point x="713" y="741"/>
      <point x="714" y="700"/>
      <point x="716" y="660" type="curve"/>
      <point x="745" y="-30" type="line"/>
      <point x="747" y="-30" type="line"/>
      <point x="1310" y="900" type="line"/>
      <point x="1263" y="900" type="line"/>
      <point x="863" y="240" type="line"/>
      <point x="836" y="195"/>
      <point x="808" y="149"/>
      <point x="779" y="98" type="curve"/>
      <point x="779" y="149"/>
      <point x="777" y="195"/>
      <point x="775" y="240" type="curve"/>
      <point x="746" y="930" type="line"/>
      <point x="744" y="930" type="line"/>
      <point x="376" y="240" type="line" smooth="yes"/>
      <point x="352" y="195"/>
      <point x="328" y="150"/>
      <point x="303" y="99" type="curve"/>
      <point x="299" y="150"/>
      <point x="293" y="195"/>
      <point x="288" y="240" type="curve" smooth="yes"/>
      <point x="213" y="900" type="line"/>
      <point x="170" y="900" type="line"/>
    </contour>
  </outline>
</glyph>
<glyph name="X" format="2">
  <advance width="870"/>
  <unicode hex="0058"/>
  <outline>
    <contour>
      <point x="-45" y="0" type="line"/>
      <point x="15" y="0" type="line"/>
      <point x="342" y="330" type="line" smooth="yes"/>
      <point x="388" y="376"/>
      <point x="434" y="424"/>
      <point x="480" y="473" type="curve"/>
      <point x="503" y="424"/>
      <point x="526" y="377"/>
      <point x="549" y="331" type="curve" smooth="yes"/>
      <point x="715" y="0" type="line"/>
      <point x="765" y="0" type="line"/>
      <point x="512" y="503" type="line"/>
      <point x="905" y="900" type="line"/>
      <point x="850" y="900" type="line"/>
      <point x="618" y="666" type="line" smooth="yes"/>
      <point x="576" y="624"/>
      <point x="533" y="579"/>
      <point x="491" y="534" type="curve"/>
      <point x="469" y="581"/>
      <point x="448" y="625"/>
      <point x="426" y="668" type="curve" smooth="yes"/>
      <point x="309" y="900" type="line"/>
      <point x="263" y="900" type="line"/>
      <point x="459" y="508" type="line"/>
    </contour>
  </outline>
</glyph>
<glyph name="Y" format="2">
  <advance width="670"/>
  <unicode hex="0059"/>
  <anchor x="260" y="0" name="bottom"/>
  <anchor x="485" y="900" name="top"/>
  <anchor x="180" y="900" name="topleft"/>
  <outline>
    <contour>
      <point x="238" y="0" type="line"/>
      <point x="282" y="0" type="line"/>
      <point x="392" y="441" type="line"/>
      <point x="790" y="900" type="line"/>
      <point x="736" y="900" type="line"/>
      <point x="476" y="600" type="line"/>
      <point x="444" y="562"/>
      <point x="409" y="521"/>
      <point x="376" y="480" type="curve"/>
      <point x="363" y="521"/>
      <point x="350" y="562"/>
      <point x="336" y="600" type="curve"/>
      <point x="228" y="900" type="line"/>
      <point x="180" y="900" type="line"/>
      <point x="348" y="441" type="line"/>
    </contour>
  </outline>
</glyph>
<glyph name="Z" format="2">
  <advance width="640"/>
  <unicode hex="005A"/>
  <anchor x="267" y="0" name="bottom"/>
  <anchor x="387" y="450" name="center"/>
  <anchor x="516" y="900" name="top"/>
  <outline>
    <contour>
      <point x="-9" y="0" type="line"/>
      <point x="472" y="0" type="line"/>
      <point x="482" y="40" type="line"/>
      <point x="71" y="40" type="line"/>
      <point x="712" y="898" type="line"/>
      <point x="712" y="900" type="line"/>
      <point x="255" y="900" type="line"/>
      <point x="245" y="860" type="line"/>
      <point x="632" y="860" type="line"/>
      <point x="-9" y="2" type="line"/>
    </contour>
  </outline>
</glyph>
<glyph name="bracketleft" format="2">
  <advance width="480"/>
  <unicode hex="005B"/>
  <outline>
    <contour>
      <point x="24" y="-180" type="line"/>
      <point x="288" y="-180" type="line"/>
      <point x="297" y="-142" type="line"/>
      <point x="75" y="-142" type="line"/>
      <point x="342" y="922" type="line"/>
      <point x="564" y="922" type="line"/>
      <point x="573" y="960" type="line"/>
      <point x="309" y="960" type="line"/>
    </contour>
  </outline>
</glyph>
<glyph name="backslash" format="2">
  <advance width="440"/>
  <unicode hex="005C"/>
  <outline>
    <contour>
      <point x="358" y="-180" type="line"/>
      <point x="401" y="-180" type="line"/>
      <point x="127" y="960" type="line"/>
      <point x="85" y="960" type="line"/>
    </contour>
  </outline>
</glyph>
<glyph name="bracketright" format="2">
  <advance width="480"/>
  <unicode hex="005D"/>
  <outline>
    <contour>
      <point x="-48" y="-180" type="line"/>
      <point x="216" y="-180" type="line"/>
      <point x="501" y="960" type="line"/>
      <point x="237" y="960" type="line"/>
      <point x="228" y="922" type="line"/>
      <point x="450" y="922" type="line"/>
      <point x="183" y="-142" type="line"/>
      <point x="-39" y="-142" type="line"/>
    </contour>
  </outline>
</glyph>
<glyph name="asciicircum" format="2">
  <advance width="750"/>
  <unicode hex="005E"/>
  <outline>
    <contour>
      <point x="83" y="225" type="line"/>
      <point x="129" y="225" type="line"/>
      <point x="337" y="514" type="line" smooth="yes"/>
      <point x="383" y="577"/>
      <point x="430" y="644"/>
      <point x="477" y="710" type="curve"/>
      <point x="491" y="644"/>
      <point x="506" y="577"/>
      <point x="521" y="514" type="curve" smooth="yes"/>
      <point x="591" y="225" type="line"/>
      <point x="629" y="225" type="line"/>
      <point x="494" y="792" type="line"/>
      <point x="492" y="792" type="line"/>
    </contour>
  </outline>
</glyph>
<glyph name="underscore" format="2">
  <advance width="750"/>
  <unicode hex="005F"/>
  <outline>
    <contour>
      <point x="-119" y="-152" type="line"/>
      <point x="643" y="-152" type="line"/>
      <point x="652" y="-118" type="line"/>
      <point x="-110" y="-118" type="line"/>
    </contour>
  </outline>
</glyph>
<glyph name="b" format="2">
  <advance width="740"/>
  <unicode hex="0062"/>
  <anchor x="327" y="0" name="bottom"/>
  <anchor x="552" y="914" name="top"/>
  <outline>
    <contour>
      <point x="348" y="-8" type="curve" smooth="yes"/>
      <point x="521" y="-8"/>
      <point x="676" y="148"/>
      <point x="676" y="322" type="curve" smooth="yes"/>
      <point x="676" y="468"/>
      <point x="566" y="578"/>
      <point x="421" y="578" type="curve" smooth="yes"/>
      <point x="337" y="578"/>
      <point x="252" y="538"/>
      <point x="190" y="470" type="curve"/>
      <point x="313" y="960" type="line"/>
      <point x="271" y="960" type="line"/>
      <point x="31" y="0" type="line"/>
      <point x="69" y="0" type="line"/>
      <point x="109" y="162" type="line"/>
      <point x="143" y="59"/>
      <point x="237" y="-8"/>
    </contour>
    <contour>
      <point x="349" y="32" type="curve" smooth="yes"/>
      <point x="225" y="32"/>
      <point x="135" y="123"/>
      <point x="135" y="247" type="curve" smooth="yes"/>
      <point x="135" y="399"/>
      <point x="265" y="538"/>
      <point x="415" y="538" type="curve" smooth="yes"/>
      <point x="538" y="538"/>
      <point x="634" y="441"/>
      <point x="634" y="316" type="curve" smooth="yes"/>
      <point x="634" y="166"/>
      <point x="499" y="32"/>
    </contour>
  </outline>
</glyph>
<glyph name="c" format="2">
  <advance width="610"/>
  <unicode hex="0063"/>
  <anchor x="322" y="0" name="bottom"/>
  <anchor x="390" y="570" name="top"/>
  <outline>
    <contour>
      <point x="320" y="-12" type="curve" smooth="yes"/>
      <point x="405" y="-12"/>
      <point x="486" y="24"/>
      <point x="547" y="80" type="curve"/>
      <point x="547" y="137" type="line"/>
      <point x="492" y="72"/>
      <point x="411" y="28"/>
      <point x="324" y="28" type="curve" smooth="yes"/>
      <point x="196" y="28"/>
      <point x="98" y="127"/>
      <point x="98" y="255" type="curve" smooth="yes"/>
      <point x="98" y="406"/>
      <point x="235" y="542"/>
      <point x="388" y="542" type="curve" smooth="yes"/>
      <point x="471" y="542"/>
      <point x="542" y="500"/>
      <point x="581" y="436" type="curve"/>
      <point x="602" y="481" type="line"/>
      <point x="554" y="543"/>
      <point x="479" y="582"/>
      <point x="392" y="582" type="curve" smooth="yes"/>
      <point x="215" y="582"/>
      <point x="56" y="426"/>
      <point x="56" y="251" type="curve" smooth="yes"/>
      <point x="56" y="102"/>
      <point x="171" y="-12"/>
    </contour>
  </outline>
</glyph>
<glyph name="d" format="2">
  <advance width="740"/>
  <unicode hex="0064"/>
  <anchor x="276" y="0" name="bottom"/>
  <anchor x="734" y="780" name="center"/>
  <anchor x="416" y="570" name="top"/>
  <anchor x="879" y="960" name="topright"/>
  <outline>
    <contour>
      <point x="311" y="-8" type="curve" smooth="yes"/>
      <point x="398" y="-8"/>
      <point x="487" y="35"/>
      <point x="548" y="108" type="curve"/>
      <point x="521" y="0" type="line"/>
      <point x="559" y="0" type="line"/>
      <point x="799" y="960" type="line"/>
      <point x="757" y="960" type="line"/>
      <point x="621" y="414" type="line"/>
      <point x="585" y="514"/>
      <point x="493" y="578"/>
      <point x="384" y="578" type="curve" smooth="yes"/>
      <point x="211" y="578"/>
      <point x="56" y="422"/>
      <point x="56" y="248" type="curve" smooth="yes"/>
      <point x="56" y="102"/>
      <point x="166" y="-8"/>
    </contour>
    <contour>
      <point x="317" y="32" type="curve" smooth="yes"/>
      <point x="194" y="32"/>
      <point x="98" y="129"/>
      <point x="98" y="254" type="curve" smooth="yes"/>
      <point x="98" y="404"/>
      <point x="233" y="538"/>
      <point x="383" y="538" type="curve" smooth="yes"/>
      <point x="507" y="538"/>
      <point x="597" y="447"/>
      <point x="597" y="323" type="curve" smooth="yes"/>
      <point x="597" y="171"/>
      <point x="467" y="32"/>
    </contour>
  </outline>
</glyph>
<glyph name="e" format="2">
  <advance width="690"/>
  <unicode hex="0065"/>
  <anchor x="335" y="0" name="bottom"/>
  <anchor x="420" y="0" name="ogonek"/>
  <anchor x="386" y="570" name="top"/>
  <outline>
    <contour>
      <point x="333" y="-12" type="curve" smooth="yes"/>
      <point x="416" y="-12"/>
      <point x="493" y="20"/>
      <point x="553" y="79" type="curve"/>
      <point x="553" y="134" type="line"/>
      <point x="499" y="67"/>
      <point x="420" y="28"/>
      <point x="336" y="28" type="curve" smooth="yes"/>
      <point x="190" y="28"/>
      <point x="84" y="147"/>
      <point x="99" y="295" type="curve"/>
      <point x="125" y="292"/>
      <point x="150" y="291"/>
      <point x="177" y="291" type="curve" smooth="yes"/>
      <point x="627" y="291" type="line"/>
      <point x="630" y="303" type="line" smooth="yes"/>
      <point x="667" y="450"/>
      <point x="552" y="582"/>
      <point x="388" y="582" type="curve" smooth="yes"/>
      <point x="206" y="582"/>
      <point x="56" y="437"/>
      <point x="56" y="261" type="curve" smooth="yes"/>
      <point x="56" y="105"/>
      <point x="175" y="-12"/>
    </contour>
    <contour>
      <point x="105" y="323" type="curve"/>
      <point x="134" y="450"/>
      <point x="250" y="542"/>
      <point x="384" y="542" type="curve" smooth="yes"/>
      <point x="518" y="542"/>
      <point x="614" y="442"/>
      <point x="593" y="323" type="curve"/>
      <point x="565" y="326"/>
      <point x="544" y="327"/>
      <point x="517" y="327" type="curve" smooth="yes"/>
      <point x="178" y="327" type="line" smooth="yes"/>
      <point x="151" y="327"/>
      <point x="126" y="326"/>
    </contour>
  </outline>
</glyph>
<glyph name="f" format="2">
  <advance width="450"/>
  <unicode hex="0066"/>
  <anchor x="136" y="0" name="bottom"/>
  <anchor x="517" y="960" name="top"/>
  <outline>
    <contour>
      <point x="115" y="0" type="line"/>
      <point x="157" y="0" type="line"/>
      <point x="290" y="534" type="line"/>
      <point x="472" y="534" type="line"/>
      <point x="481" y="570" type="line"/>
      <point x="299" y="570" type="line"/>
      <point x="353" y="784" type="line" smooth="yes"/>
      <point x="378" y="881"/>
      <point x="431" y="933"/>
      <point x="504" y="933" type="curve" smooth="yes"/>
      <point x="543" y="933"/>
      <point x="577" y="918"/>
      <point x="607" y="887" type="curve"/>
      <point x="626" y="925" type="line"/>
      <point x="596" y="954"/>
      <point x="553" y="971"/>
      <point x="509" y="971" type="curve" smooth="yes"/>
      <point x="418" y="971"/>
      <point x="340" y="900"/>
      <point x="313" y="793" type="curve" smooth="yes"/>
      <point x="257" y="570" type="line"/>
      <point x="103" y="570" type="line"/>
      <point x="94" y="534" type="line"/>
      <point x="248" y="534" type="line"/>
    </contour>
  </outline>
</glyph>
<glyph name="g" format="2">
  <advance width="740"/>
  <unicode hex="0067"/>
  <anchor x="225" y="-300" name="bottom"/>
  <anchor x="611" y="285" name="center"/>
  <anchor x="384" y="570" name="top"/>
  <outline>
    <contour>
      <point x="224" y="-312" type="curve" smooth="yes"/>
      <point x="381" y="-312"/>
      <point x="508" y="-204"/>
      <point x="550" y="-36" type="curve" smooth="yes"/>
      <point x="701" y="570" type="line"/>
      <point x="663" y="570" type="line"/>
      <point x="623" y="408" type="line"/>
      <point x="589" y="511"/>
      <point x="495" y="578"/>
      <point x="384" y="578" type="curve" smooth="yes"/>
      <point x="211" y="578"/>
      <point x="56" y="422"/>
      <point x="56" y="248" type="curve" smooth="yes"/>
      <point x="56" y="103"/>
      <point x="165" y="-8"/>
      <point x="309" y="-8" type="curve" smooth="yes"/>
      <point x="398" y="-8"/>
      <point x="487" y="35"/>
      <point x="548" y="108" type="curve"/>
      <point x="516" y="-19" type="line" smooth="yes"/>
      <point x="476" y="-177"/>
      <point x="362" y="-272"/>
      <point x="226" y="-272" type="curve" smooth="yes"/>
      <point x="132" y="-272"/>
      <point x="49" y="-227"/>
      <point x="7" y="-152" type="curve"/>
      <point x="-16" y="-198" type="line"/>
      <point x="35" y="-269"/>
      <point x="125" y="-312"/>
    </contour>
    <contour>
      <point x="318" y="32" type="curve" smooth="yes"/>
      <point x="194" y="32"/>
      <point x="98" y="129"/>
      <point x="98" y="254" type="curve" smooth="yes"/>
      <point x="98" y="404"/>
      <point x="233" y="538"/>
      <point x="383" y="538" type="curve" smooth="yes"/>
      <point x="507" y="538"/>
      <point x="597" y="447"/>
      <point x="597" y="322" type="curve" smooth="yes"/>
      <point x="597" y="170"/>
      <point x="465" y="32"/>
    </contour>
  </outline>
</glyph>
<glyph name="k" format="2">
  <advance width="590"/>
  <unicode hex="006B"/>
  <anchor x="265" y="0" name="bottom"/>
  <anchor x="295" y="960" name="top"/>
  <outline>
    <contour>
      <point x="422" y="0" type="line"/>
      <point x="470" y="0" type="line"/>
      <point x="250" y="338" type="line"/>
      <point x="561" y="570" type="line"/>
      <point x="498" y="570" type="line"/>
      <point x="198" y="345" type="line"/>
    </contour>
    <contour>
      <point x="34" y="0" type="line"/>
      <point x="76" y="0" type="line"/>
      <point x="316" y="960" type="line"/>
      <point x="274" y="960" type="line"/>
    </contour>
  </outline>
</glyph>
<glyph name="l" format="2">
  <advance width="260"/>
  <unicode hex="006C"/>
  <anchor x="55" y="0" name="bottom"/>
  <anchor x="175" y="480" name="center"/>
  <anchor x="368" y="420" name="periodcentered"/>
  <anchor x="295" y="960" name="top"/>
  <anchor x="396" y="960" name="topright"/>
  <outline>
    <contour>
      <point x="34" y="0" type="line"/>
      <point x="76" y="0" type="line"/>
      <point x="316" y="960" type="line"/>
      <point x="274" y="960" type="line"/>
    </contour>
  </outline>
</glyph>
<glyph name="m" format="2">
  <advance width="1120"/>
  <unicode hex="006D"/>
  <anchor x="566" y="0" name="bottom"/>
  <anchor x="566" y="600" name="top"/>
  <outline>
    <contour>
      <point x="34" y="0" type="line"/>
      <point x="76" y="0" type="line"/>
      <point x="164" y="345" type="line" smooth="yes"/>
      <point x="193" y="459"/>
      <point x="288" y="541"/>
      <point x="393" y="541" type="curve" smooth="yes"/>
      <point x="516" y="541"/>
      <point x="581" y="441"/>
      <point x="546" y="304" type="curve" smooth="yes"/>
      <point x="470" y="0" type="line"/>
      <point x="512" y="0" type="line"/>
      <point x="598" y="345" type="line" smooth="yes"/>
      <point x="626" y="458"/>
      <point x="724" y="541"/>
      <point x="830" y="541" type="curve" smooth="yes"/>
      <point x="953" y="541"/>
      <point x="1017" y="441"/>
      <point x="982" y="304" type="curve" smooth="yes"/>
      <point x="906" y="0" type="line"/>
      <point x="948" y="0" type="line"/>
      <point x="1024" y="305" type="line" smooth="yes"/>
      <point x="1063" y="461"/>
      <point x="981" y="580"/>
      <point x="835" y="580" type="curve" smooth="yes"/>
      <point x="736" y="580"/>
      <point x="646" y="525"/>
      <point x="592" y="433" type="curve"/>
      <point x="575" y="520"/>
      <point x="497" y="580"/>
      <point x="403" y="580" type="curve" smooth="yes"/>
      <point x="322" y="580"/>
      <point x="242" y="536"/>
      <point x="188" y="463" type="curve"/>
      <point x="215" y="570" type="line"/>
      <point x="177" y="570" type="line"/>
    </contour>
  </outline>
</glyph>
<glyph name="n" format="2">
  <advance width="700"/>
  <unicode hex="006E"/>
  <anchor x="281" y="0" name="bottom"/>
  <anchor x="426" y="570" name="top"/>
  <outline>
    <contour>
      <point x="34" y="0" type="line"/>
      <point x="76" y="0" type="line"/>
      <point x="164" y="345" type="line" smooth="yes"/>
      <point x="193" y="459"/>
      <point x="291" y="541"/>
      <point x="398" y="541" type="curve" smooth="yes"/>
      <point x="529" y="541"/>
      <point x="597" y="439"/>
      <point x="561" y="296" type="curve" smooth="yes"/>
      <point x="486" y="0" type="line"/>
      <point x="528" y="0" type="line"/>
      <point x="603" y="297" type="line" smooth="yes"/>
      <point x="643" y="456"/>
      <point x="557" y="580"/>
      <point x="408" y="580" type="curve" smooth="yes"/>
      <point x="324" y="580"/>
      <point x="241" y="536"/>
      <point x="188" y="463" type="curve"/>
      <point x="215" y="570" type="line"/>
      <point x="177" y="570" type="line"/>
    </contour>
  </outline>
</glyph>
<glyph name="q" format="2">
  <advance width="740"/>
  <unicode hex="0071"/>
  <outline>
    <contour>
      <point x="442" y="-300" type="line"/>
      <point x="484" y="-300" type="line"/>
      <point x="701" y="570" type="line"/>
      <point x="663" y="570" type="line"/>
      <point x="623" y="408" type="line"/>
      <point x="589" y="511"/>
      <point x="495" y="578"/>
      <point x="384" y="578" type="curve" smooth="yes"/>
      <point x="211" y="578"/>
      <point x="56" y="422"/>
      <point x="56" y="248" type="curve" smooth="yes"/>
      <point x="56" y="102"/>
      <point x="166" y="-8"/>
      <point x="311" y="-8" type="curve" smooth="yes"/>
      <point x="395" y="-8"/>
      <point x="480" y="32"/>
      <point x="542" y="100" type="curve"/>
    </contour>
    <contour>
      <point x="317" y="32" type="curve" smooth="yes"/>
      <point x="194" y="32"/>
      <point x="98" y="129"/>
      <point x="98" y="254" type="curve" smooth="yes"/>
      <point x="98" y="404"/>
      <point x="233" y="538"/>
      <point x="383" y="538" type="curve" smooth="yes"/>
      <point x="507" y="538"/>
      <point x="597" y="447"/>
      <point x="597" y="323" type="curve" smooth="yes"/>
      <point x="597" y="171"/>
      <point x="467" y="32"/>
    </contour>
  </outline>
</glyph>
<glyph name="r" format="2">
  <advance width="440"/>
  <unicode hex="0072"/>
  <anchor x="55" y="0" name="bottom"/>
  <anchor x="287" y="570" name="top"/>
  <outline>
    <contour>
      <point x="34" y="0" type="line"/>
      <point x="76" y="0" type="line"/>
      <point x="149" y="293" type="line" smooth="yes"/>
      <point x="185" y="439"/>
      <point x="317" y="536"/>
      <point x="439" y="536" type="curve" smooth="yes"/>
      <point x="445" y="536"/>
      <point x="451" y="536"/>
      <point x="458" y="535" type="curve"/>
      <point x="458" y="575" type="line"/>
      <point x="350" y="575"/>
      <point x="245" y="523"/>
      <point x="178" y="425" type="curve"/>
      <point x="214" y="570" type="line"/>
      <point x="176" y="570" type="line"/>
    </contour>
  </outline>
</glyph>
<glyph name="s" format="2">
  <advance width="490"/>
  <unicode hex="0073"/>
  <anchor x="195" y="0" name="bottom"/>
  <anchor x="294" y="570" name="top"/>
  <outline>
    <contour>
      <point x="193" y="-12" type="curve" smooth="yes"/>
      <point x="299" y="-12"/>
      <point x="378" y="68"/>
      <point x="378" y="160" type="curve" smooth="yes"/>
      <point x="378" y="216"/>
      <point x="350" y="260"/>
      <point x="293" y="294" type="curve" smooth="yes"/>
      <point x="223" y="336" type="line" smooth="yes"/>
      <point x="183" y="360"/>
      <point x="165" y="392"/>
      <point x="165" y="428" type="curve" smooth="yes"/>
      <point x="165" y="492"/>
      <point x="221" y="545"/>
      <point x="291" y="545" type="curve" smooth="yes"/>
      <point x="345" y="545"/>
      <point x="392" y="514"/>
      <point x="415" y="468" type="curve"/>
      <point x="439" y="514" type="line"/>
      <point x="403" y="558"/>
      <point x="350" y="582"/>
      <point x="296" y="582" type="curve" smooth="yes"/>
      <point x="199" y="582"/>
      <point x="124" y="504"/>
      <point x="124" y="420" type="curve" smooth="yes"/>
      <point x="124" y="374"/>
      <point x="147" y="333"/>
      <point x="198" y="303" type="curve" smooth="yes"/>
      <point x="268" y="261" type="line" smooth="yes"/>
      <point x="316" y="232"/>
      <point x="337" y="197"/>
      <point x="337" y="155" type="curve" smooth="yes"/>
      <point x="337" y="85"/>
      <point x="280" y="25"/>
      <point x="197" y="25" type="curve" smooth="yes"/>
      <point x="129" y="25"/>
      <point x="73" y="65"/>
      <point x="47" y="121" type="curve"/>
      <point x="23" y="75" type="line"/>
      <point x="60" y="23"/>
      <point x="122" y="-12"/>
    </contour>
  </outline>
</glyph>
<glyph name="t" format="2">
  <advance width="450"/>
  <unicode hex="0074"/>
  <anchor x="136" y="0" name="bottom"/>
  <anchor x="208" y="285" name="center"/>
  <anchor x="336" y="800" name="top"/>
  <anchor x="472" y="960" name="topright"/>
  <outline>
    <contour>
      <point x="115" y="0" type="line"/>
      <point x="157" y="0" type="line"/>
      <point x="291" y="534" type="line"/>
      <point x="473" y="534" type="line"/>
      <point x="482" y="570" type="line"/>
      <point x="300" y="570" type="line"/>
      <point x="358" y="800" type="line"/>
      <point x="316" y="800" type="line"/>
      <point x="258" y="570" type="line"/>
      <point x="104" y="570" type="line"/>
      <point x="95" y="534" type="line"/>
      <point x="249" y="534" type="line"/>
    </contour>
  </outline>
</glyph>
<glyph name="u" format="2">
  <advance width="700"/>
  <unicode hex="0075"/>
  <anchor x="297" y="0" name="bottom"/>
  <anchor x="496" y="0" name="ogonek"/>
  <anchor x="411" y="570" name="top"/>
  <anchor x="658" y="570" name="topright"/>
  <outline>
    <contour>
      <point x="284" y="-10" type="curve" smooth="yes"/>
      <point x="368" y="-10"/>
      <point x="451" y="34"/>
      <point x="504" y="107" type="curve"/>
      <point x="477" y="0" type="line"/>
      <point x="515" y="0" type="line"/>
      <point x="658" y="570" type="line"/>
      <point x="616" y="570" type="line"/>
      <point x="528" y="225" type="line" smooth="yes"/>
      <point x="499" y="111"/>
      <point x="401" y="29"/>
      <point x="294" y="29" type="curve" smooth="yes"/>
      <point x="163" y="29"/>
      <point x="95" y="131"/>
      <point x="131" y="274" type="curve" smooth="yes"/>
      <point x="206" y="570" type="line"/>
      <point x="164" y="570" type="line"/>
      <point x="89" y="273" type="line" smooth="yes"/>
      <point x="49" y="114"/>
      <point x="135" y="-10"/>
    </contour>
  </outline>
</glyph>
<glyph name="v" format="2">
  <advance width="590"/>
  <unicode hex="0076"/>
  <outline>
    <contour>
      <point x="213" y="-30" type="line"/>
      <point x="215" y="-30" type="line"/>
      <point x="627" y="570" type="line"/>
      <point x="579" y="570" type="line"/>
      <point x="374" y="273" type="line" smooth="yes"/>
      <point x="328" y="207"/>
      <point x="283" y="138"/>
      <point x="235" y="65" type="curve"/>
      <point x="223" y="138"/>
      <point x="210" y="207"/>
      <point x="197" y="273" type="curve" smooth="yes"/>
      <point x="139" y="570" type="line"/>
      <point x="97" y="570" type="line"/>
    </contour>
  </outline>
</glyph>
<glyph name="w" format="2">
  <advance width="1000"/>
  <unicode hex="0077"/>
  <anchor x="500" y="0" name="bottom"/>
  <anchor x="500" y="570" name="top"/>
  <outline>
    <contour>
      <point x="213" y="-30" type="line"/>
      <point x="215" y="-30" type="line"/>
      <point x="426" y="300" type="line" smooth="yes"/>
      <point x="466" y="363"/>
      <point x="506" y="429"/>
      <point x="548" y="495" type="curve"/>
      <point x="556" y="429"/>
      <point x="566" y="363"/>
      <point x="575" y="300" type="curve" smooth="yes"/>
      <point x="624" y="-30" type="line"/>
      <point x="626" y="-30" type="line"/>
      <point x="1037" y="570" type="line"/>
      <point x="989" y="570" type="line"/>
      <point x="785" y="273" type="line" smooth="yes"/>
      <point x="740" y="207"/>
      <point x="694" y="137"/>
      <point x="648" y="68" type="curve"/>
      <point x="639" y="137"/>
      <point x="628" y="207"/>
      <point x="619" y="273" type="curve" smooth="yes"/>
      <point x="572" y="600" type="line"/>
      <point x="570" y="600" type="line"/>
      <point x="363" y="273" type="line" smooth="yes"/>
      <point x="321" y="207"/>
      <point x="279" y="137"/>
      <point x="236" y="68" type="curve"/>
      <point x="224" y="137"/>
      <point x="211" y="207"/>
      <point x="198" y="273" type="curve" smooth="yes"/>
      <point x="140" y="570" type="line"/>
      <point x="97" y="570" type="line"/>
    </contour>
  </outline>
</glyph>
<glyph name="x" format="2">
  <advance width="560"/>
  <unicode hex="0078"/>
  <outline>
    <contour>
      <point x="-16" y="0" type="line"/>
      <point x="37" y="0" type="line"/>
      <point x="201" y="179" type="line" smooth="yes"/>
      <point x="229" y="210"/>
      <point x="258" y="243"/>
      <point x="286" y="276" type="curve"/>
      <point x="302" y="243"/>
      <point x="318" y="211"/>
      <point x="334" y="180" type="curve" smooth="yes"/>
      <point x="427" y="0" type="line"/>
      <point x="472" y="0" type="line"/>
      <point x="315" y="302" type="line"/>
      <point x="561" y="570" type="line"/>
      <point x="508" y="570" type="line"/>
      <point x="371" y="420" type="line" smooth="yes"/>
      <point x="346" y="393"/>
      <point x="322" y="365"/>
      <point x="297" y="336" type="curve"/>
      <point x="283" y="365"/>
      <point x="269" y="393"/>
      <point x="255" y="420" type="curve" smooth="yes"/>
      <point x="178" y="570" type="line"/>
      <point x="133" y="570" type="line"/>
      <point x="268" y="309" type="line"/>
    </contour>
  </outline>
</glyph>
<glyph name="y" format="2">
  <advance width="610"/>
  <unicode hex="0079"/>
  <anchor x="350" y="0" name="bottom"/>
  <anchor x="369" y="570" name="top"/>
  <outline>
    <contour>
      <point x="-39" y="-300" type="line"/>
      <point x="9" y="-300" type="line"/>
      <point x="647" y="570" type="line"/>
      <point x="599" y="570" type="line"/>
      <point x="382" y="273" type="line" smooth="yes"/>
      <point x="334" y="207"/>
      <point x="284" y="138"/>
      <point x="235" y="69" type="curve"/>
      <point x="223" y="138"/>
      <point x="210" y="207"/>
      <point x="197" y="273" type="curve" smooth="yes"/>
      <point x="139" y="570" type="line"/>
      <point x="97" y="570" type="line"/>
      <point x="203" y="30" type="line"/>
    </contour>
  </outline>
</glyph>
<glyph name="z" format="2">
  <advance width="530"/>
  <unicode hex="007A"/>
  <anchor x="190" y="0" name="bottom"/>
  <anchor x="261" y="285" name="center"/>
  <anchor x="332" y="570" name="top"/>
  <outline>
    <contour>
      <point x="-15" y="0" type="line"/>
      <point x="363" y="0" type="line"/>
      <point x="372" y="38" type="line"/>
      <point x="66" y="38" type="line"/>
      <point x="515" y="568" type="line"/>
      <point x="515" y="570" type="line"/>
      <point x="143" y="570" type="line"/>
      <point x="134" y="532" type="line"/>
      <point x="434" y="532" type="line"/>
      <point x="-15" y="2" type="line"/>
    </contour>
  </outline>
</glyph>
<glyph name="braceleft" format="2">
  <advance width="480"/>
  <unicode hex="007B"/>
  <outline>
    <contour>
      <point x="288" y="-180" type="curve"/>
      <point x="297" y="-144" type="line"/>
      <point x="195" y="-126"/>
      <point x="139" y="-66"/>
      <point x="139" y="23" type="curve" smooth="yes"/>
      <point x="139" y="123"/>
      <point x="208" y="225"/>
      <point x="208" y="314" type="curve" smooth="yes"/>
      <point x="208" y="360"/>
      <point x="189" y="394"/>
      <point x="149" y="423" type="curve"/>
      <point x="218" y="446"/>
      <point x="258" y="485"/>
      <point x="278" y="564" type="curve" smooth="yes"/>
      <point x="290" y="613"/>
      <point x="291" y="665"/>
      <point x="306" y="724" type="curve" smooth="yes"/>
      <point x="347" y="884"/>
      <point x="447" y="922"/>
      <point x="564" y="922" type="curve"/>
      <point x="573" y="960" type="line"/>
      <point x="403" y="960"/>
      <point x="304" y="888"/>
      <point x="264" y="728" type="curve" smooth="yes"/>
      <point x="249" y="668"/>
      <point x="246" y="612"/>
      <point x="235" y="566" type="curve" smooth="yes"/>
      <point x="213" y="477"/>
      <point x="165" y="455"/>
      <point x="81" y="432" type="curve"/>
      <point x="133" y="399"/>
      <point x="167" y="372"/>
      <point x="167" y="316" type="curve" smooth="yes"/>
      <point x="167" y="236"/>
      <point x="97" y="135"/>
      <point x="97" y="23" type="curve" smooth="yes"/>
      <point x="97" y="-102"/>
      <point x="184" y="-161"/>
    </contour>
  </outline>
</glyph>
<glyph name="braceright" format="2">
  <advance width="480"/>
  <unicode hex="007D"/>
  <outline>
    <contour>
      <point x="-48" y="-180" type="line"/>
      <point x="122" y="-180"/>
      <point x="221" y="-108"/>
      <point x="261" y="52" type="curve" smooth="yes"/>
      <point x="276" y="112"/>
      <point x="279" y="168"/>
      <point x="290" y="214" type="curve" smooth="yes"/>
      <point x="312" y="303"/>
      <point x="360" y="325"/>
      <point x="444" y="348" type="curve"/>
      <point x="392" y="381"/>
      <point x="358" y="408"/>
      <point x="358" y="464" type="curve" smooth="yes"/>
      <point x="358" y="544"/>
      <point x="428" y="645"/>
      <point x="428" y="757" type="curve" smooth="yes"/>
      <point x="428" y="882"/>
      <point x="341" y="941"/>
      <point x="237" y="960" type="curve"/>
      <point x="228" y="924" type="line"/>
      <point x="330" y="906"/>
      <point x="386" y="846"/>
      <point x="386" y="757" type="curve" smooth="yes"/>
      <point x="386" y="657"/>
      <point x="317" y="555"/>
      <point x="317" y="466" type="curve" smooth="yes"/>
      <point x="317" y="420"/>
      <point x="336" y="386"/>
      <point x="376" y="357" type="curve"/>
      <point x="307" y="334"/>
      <point x="267" y="295"/>
      <point x="247" y="216" type="curve" smooth="yes"/>
      <point x="235" y="167"/>
      <point x="234" y="115"/>
      <point x="219" y="56" type="curve" smooth="yes"/>
      <point x="178" y="-104"/>
      <point x="78" y="-142"/>
      <point x="-39" y="-142" type="curve"/>
    </contour>
  </outline>
</glyph>
<glyph name="asciitilde" format="2">
  <advance width="750"/>
  <unicode hex="007E"/>
  <outline>
    <contour>
      <point x="105" y="385" type="line"/>
      <point x="152" y="447"/>
      <point x="208" y="483"/>
      <point x="270" y="483" type="curve" smooth="yes"/>
      <point x="375" y="483"/>
      <point x="439" y="381"/>
      <point x="556" y="381" type="curve" smooth="yes"/>
      <point x="627" y="381"/>
      <point x="688" y="418"/>
      <point x="735" y="478" type="curve"/>
      <point x="721" y="516" type="line"/>
      <point x="674" y="451"/>
      <point x="617" y="417"/>
      <point x="557" y="417" type="curve" smooth="yes"/>
      <point x="451" y="417"/>
      <point x="388" y="519"/>
      <point x="271" y="519" type="curve" smooth="yes"/>
      <point x="200" y="519"/>
      <point x="139" y="482"/>
      <point x="91" y="423" type="curve"/>
    </contour>
  </outline>
</glyph>
<glyph name="exclamdown" format="2">
  <advance width="480"/>
  <unicode hex="00A1"/>
  <outline>
    <contour>
      <point x="69" y="-300" type="line"/>
      <point x="111" y="-300" type="line"/>
      <point x="267" y="330" type="line"/>
      <point x="229" y="330" type="line"/>
    </contour>
    <contour>
      <point x="302" y="524" type="curve" smooth="yes"/>
      <point x="326" y="524"/>
      <point x="348" y="546"/>
      <point x="348" y="571" type="curve" smooth="yes"/>
      <point x="348" y="590"/>
      <point x="331" y="608"/>
      <point x="310" y="608" type="curve" smooth="yes"/>
      <point x="286" y="608"/>
      <point x="264" y="586"/>
      <point x="264" y="562" type="curve" smooth="yes"/>
      <point x="264" y="539"/>
      <point x="283" y="524"/>
    </contour>
  </outline>
</glyph>
<glyph name="cent" format="2">
  <advance width="750"/>
  <unicode hex="00A2"/>
  <outline>
    <contour>
      <point x="328" y="0" type="line"/>
      <point x="364" y="0" type="line"/>
      <point x="402" y="154" type="line"/>
      <point x="487" y="147"/>
      <point x="581" y="177"/>
      <point x="655" y="245" type="curve"/>
      <point x="655" y="302" type="line"/>
      <point x="600" y="237"/>
      <point x="519" y="193"/>
      <point x="432" y="193" type="curve" smooth="yes"/>
      <point x="304" y="193"/>
      <point x="206" y="292"/>
      <point x="206" y="420" type="curve" smooth="yes"/>
      <point x="206" y="571"/>
      <point x="343" y="707"/>
      <point x="496" y="707" type="curve" smooth="yes"/>
      <point x="579" y="707"/>
      <point x="650" y="665"/>
      <point x="689" y="601" type="curve"/>
      <point x="710" y="646" type="line"/>
      <point x="671" y="696"/>
      <point x="615" y="731"/>
      <point x="550" y="743" type="curve"/>
      <point x="582" y="870" type="line"/>
      <point x="546" y="870" type="line"/>
      <point x="515" y="747" type="line"/>
      <point x="323" y="747"/>
      <point x="164" y="591"/>
      <point x="164" y="416" type="curve" smooth="yes"/>
      <point x="164" y="288"/>
      <point x="249" y="185"/>
      <point x="368" y="159" type="curve"/>
    </contour>
  </outline>
</glyph>
<glyph name="sterling" format="2">
  <advance width="750"/>
  <unicode hex="00A3"/>
  <outline>
    <contour>
      <point x="101" y="0" type="line"/>
      <point x="569" y="0" type="line"/>
      <point x="579" y="40" type="line"/>
      <point x="199" y="40" type="line"/>
      <point x="255" y="93"/>
      <point x="288" y="150"/>
      <point x="309" y="236" type="curve" smooth="yes"/>
      <point x="323" y="295"/>
      <point x="328" y="363"/>
      <point x="333" y="432" type="curve"/>
      <point x="615" y="432" type="line"/>
      <point x="624" y="468" type="line"/>
      <point x="336" y="468" type="line"/>
      <point x="341" y="536"/>
      <point x="346" y="602"/>
      <point x="360" y="657" type="curve" smooth="yes"/>
      <point x="396" y="801"/>
      <point x="489" y="871"/>
      <point x="590" y="871" type="curve" smooth="yes"/>
      <point x="662" y="871"/>
      <point x="727" y="836"/>
      <point x="761" y="761" type="curve"/>
      <point x="785" y="807" type="line"/>
      <point x="742" y="877"/>
      <point x="673" y="910"/>
      <point x="596" y="910" type="curve" smooth="yes"/>
      <point x="466" y="910"/>
      <point x="356" y="813"/>
      <point x="318" y="660" type="curve" smooth="yes"/>
      <point x="304" y="603"/>
      <point x="299" y="536"/>
      <point x="294" y="468" type="curve"/>
      <point x="132" y="468" type="line"/>
      <point x="123" y="432" type="line"/>
      <point x="292" y="432" type="line"/>
      <point x="287" y="362"/>
      <point x="283" y="293"/>
      <point x="269" y="238" type="curve" smooth="yes"/>
      <point x="247" y="150"/>
      <point x="197" y="68"/>
      <point x="101" y="2" type="curve"/>
    </contour>
  </outline>
</glyph>
<glyph name="currency" format="2">
  <advance width="750"/>
  <unicode hex="00A4"/>
  <outline>
    <contour>
      <point x="376" y="153" type="curve" smooth="yes"/>
      <point x="444" y="153"/>
      <point x="509" y="176"/>
      <point x="563" y="214" type="curve"/>
      <point x="625" y="132" type="line"/>
      <point x="655" y="159" type="line"/>
      <point x="595" y="238" type="line"/>
      <point x="665" y="300"/>
      <point x="712" y="389"/>
      <point x="712" y="484" type="curve" smooth="yes"/>
      <point x="712" y="539"/>
      <point x="696" y="590"/>
      <point x="669" y="631" type="curve"/>
      <point x="765" y="708" type="line"/>
      <point x="744" y="738" type="line"/>
      <point x="646" y="660" type="line"/>
      <point x="599" y="714"/>
      <point x="528" y="747"/>
      <point x="448" y="747" type="curve" smooth="yes"/>
      <point x="380" y="747"/>
      <point x="314" y="724"/>
      <point x="259" y="685" type="curve"/>
      <point x="198" y="768" type="line"/>
      <point x="168" y="741" type="line"/>
      <point x="228" y="660" type="line"/>
      <point x="158" y="599"/>
      <point x="112" y="510"/>
      <point x="112" y="416" type="curve" smooth="yes"/>
      <point x="112" y="361"/>
      <point x="128" y="310"/>
      <point x="156" y="268" type="curve"/>
      <point x="60" y="192" type="line"/>
      <point x="81" y="162" type="line"/>
      <point x="178" y="239" type="line"/>
      <point x="226" y="186"/>
      <point x="296" y="153"/>
    </contour>
    <contour>
      <point x="380" y="193" type="curve" smooth="yes"/>
      <point x="252" y="193"/>
      <point x="154" y="292"/>
      <point x="154" y="420" type="curve" smooth="yes"/>
      <point x="154" y="571"/>
      <point x="291" y="707"/>
      <point x="444" y="707" type="curve" smooth="yes"/>
      <point x="572" y="707"/>
      <point x="670" y="608"/>
      <point x="670" y="480" type="curve" smooth="yes"/>
      <point x="670" y="329"/>
      <point x="533" y="193"/>
    </contour>
  </outline>
</glyph>
<glyph name="yen" format="2">
  <advance width="750"/>
  <unicode hex="00A5"/>
  <outline>
    <contour>
      <point x="278" y="0" type="line"/>
      <point x="322" y="0" type="line"/>
      <point x="408" y="343" type="line"/>
      <point x="671" y="343" type="line"/>
      <point x="679" y="377" type="line"/>
      <point x="416" y="377" type="line"/>
      <point x="432" y="441" type="line"/>
      <point x="503" y="523" type="line"/>
      <point x="716" y="523" type="line"/>
      <point x="724" y="557" type="line"/>
      <point x="533" y="557" type="line"/>
      <point x="830" y="900" type="line"/>
      <point x="776" y="900" type="line"/>
      <point x="516" y="600" type="line" smooth="yes"/>
      <point x="484" y="562"/>
      <point x="449" y="521"/>
      <point x="416" y="480" type="curve"/>
      <point x="403" y="521"/>
      <point x="390" y="562"/>
      <point x="376" y="600" type="curve" smooth="yes"/>
      <point x="268" y="900" type="line"/>
      <point x="220" y="900" type="line"/>
      <point x="346" y="557" type="line"/>
      <point x="154" y="557" type="line"/>
      <point x="146" y="523" type="line"/>
      <point x="358" y="523" type="line"/>
      <point x="388" y="441" type="line"/>
      <point x="372" y="377" type="line"/>
      <point x="109" y="377" type="line"/>
      <point x="101" y="343" type="line"/>
      <point x="364" y="343" type="line"/>
    </contour>
  </outline>
</glyph>
<glyph name="section" format="2">
  <advance width="750"/>
  <unicode hex="00A7"/>
  <outline>
    <contour>
      <point x="267" y="-189" type="curve" smooth="yes"/>
      <point x="398" y="-189"/>
      <point x="512" y="-83"/>
      <point x="512" y="37" type="curve" smooth="yes"/>
      <point x="512" y="89"/>
      <point x="489" y="136"/>
      <point x="444" y="176" type="curve"/>
      <point x="571" y="181"/>
      <point x="668" y="274"/>
      <point x="668" y="390" type="curve" smooth="yes"/>
      <point x="668" y="462"/>
      <point x="632" y="521"/>
      <point x="557" y="570" type="curve" smooth="yes"/>
      <point x="431" y="652" type="line" smooth="yes"/>
      <point x="382" y="684"/>
      <point x="356" y="726"/>
      <point x="356" y="774" type="curve" smooth="yes"/>
      <point x="356" y="859"/>
      <point x="433" y="930"/>
      <point x="525" y="930" type="curve" smooth="yes"/>
      <point x="589" y="930"/>
      <point x="648" y="897"/>
      <point x="676" y="846" type="curve"/>
      <point x="699" y="893" type="line"/>
      <point x="657" y="942"/>
      <point x="591" y="972"/>
      <point x="527" y="972" type="curve" smooth="yes"/>
      <point x="414" y="972"/>
      <point x="314" y="877"/>
      <point x="314" y="768" type="curve" smooth="yes"/>
      <point x="314" y="724"/>
      <point x="331" y="685"/>
      <point x="365" y="652" type="curve"/>
      <point x="237" y="647"/>
      <point x="140" y="556"/>
      <point x="140" y="441" type="curve" smooth="yes"/>
      <point x="140" y="368"/>
      <point x="177" y="307"/>
      <point x="251" y="258" type="curve" smooth="yes"/>
      <point x="382" y="172" type="line" smooth="yes"/>
      <point x="440" y="134"/>
      <point x="470" y="86"/>
      <point x="470" y="31" type="curve" smooth="yes"/>
      <point x="470" y="-67"/>
      <point x="380" y="-151"/>
      <point x="275" y="-151" type="curve" smooth="yes"/>
      <point x="200" y="-151"/>
      <point x="130" y="-110"/>
      <point x="93" y="-43" type="curve"/>
      <point x="71" y="-90" type="line"/>
      <point x="115" y="-151"/>
      <point x="190" y="-189"/>
    </contour>
    <contour>
      <point x="446" y="211" type="curve" smooth="yes"/>
      <point x="413" y="211"/>
      <point x="386" y="220"/>
      <point x="348" y="244" type="curve" smooth="yes"/>
      <point x="303" y="272"/>
      <point x="280" y="288"/>
      <point x="265" y="299" type="curve" smooth="yes"/>
      <point x="208" y="342"/>
      <point x="182" y="387"/>
      <point x="182" y="444" type="curve" smooth="yes"/>
      <point x="182" y="541"/>
      <point x="261" y="617"/>
      <point x="361" y="617" type="curve" smooth="yes"/>
      <point x="393" y="617"/>
      <point x="416" y="609"/>
      <point x="461" y="583" type="curve" smooth="yes"/>
      <point x="488" y="567"/>
      <point x="522" y="545"/>
      <point x="543" y="529" type="curve" smooth="yes"/>
      <point x="599" y="485"/>
      <point x="626" y="439"/>
      <point x="626" y="383" type="curve" smooth="yes"/>
      <point x="626" y="288"/>
      <point x="545" y="211"/>
    </contour>
  </outline>
</glyph>
<glyph name="copyright" format="2">
  <advance width="1260"/>
  <unicode hex="00A9"/>
  <outline>
    <contour>
      <point x="602" y="-102" type="curve" smooth="yes"/>
      <point x="927" y="-102"/>
      <point x="1221" y="192"/>
      <point x="1221" y="515" type="curve" smooth="yes"/>
      <point x="1221" y="790"/>
      <point x="1009" y="1002"/>
      <point x="732" y="1002" type="curve" smooth="yes"/>
      <point x="407" y="1002"/>
      <point x="113" y="708"/>
      <point x="113" y="385" type="curve" smooth="yes"/>
      <point x="113" y="110"/>
      <point x="325" y="-102"/>
    </contour>
    <contour>
      <point x="603" y="-62" type="curve" smooth="yes"/>
      <point x="349" y="-62"/>
      <point x="155" y="130"/>
      <point x="155" y="384" type="curve" smooth="yes"/>
      <point x="155" y="686"/>
      <point x="429" y="962"/>
      <point x="731" y="962" type="curve" smooth="yes"/>
      <point x="985" y="962"/>
      <point x="1179" y="770"/>
      <point x="1179" y="516" type="curve" smooth="yes"/>
      <point x="1179" y="214"/>
      <point x="905" y="-62"/>
    </contour>
    <contour>
      <point x="651" y="168" type="curve" smooth="yes"/>
      <point x="731" y="168"/>
      <point x="808" y="202"/>
      <point x="866" y="255" type="curve"/>
      <point x="866" y="309" type="line"/>
      <point x="814" y="248"/>
      <point x="737" y="206"/>
      <point x="654" y="206" type="curve" smooth="yes"/>
      <point x="533" y="206"/>
      <point x="440" y="300"/>
      <point x="440" y="422" type="curve" smooth="yes"/>
      <point x="440" y="565"/>
      <point x="570" y="694"/>
      <point x="715" y="694" type="curve" smooth="yes"/>
      <point x="794" y="694"/>
      <point x="861" y="654"/>
      <point x="898" y="593" type="curve"/>
      <point x="918" y="636" type="line"/>
      <point x="873" y="695"/>
      <point x="802" y="732"/>
      <point x="719" y="732" type="curve" smooth="yes"/>
      <point x="551" y="732"/>
      <point x="400" y="584"/>
      <point x="400" y="418" type="curve" smooth="yes"/>
      <point x="400" y="276"/>
      <point x="509" y="168"/>
    </contour>
  </outline>
</glyph>
<glyph name="ordfeminine" format="2">
  <advance width="480"/>
  <unicode hex="00AA"/>
  <outline>
    <contour>
      <point x="287" y="415" type="curve" smooth="yes"/>
      <point x="340" y="415"/>
      <point x="392" y="441"/>
      <point x="429" y="482" type="curve"/>
      <point x="413" y="420" type="line"/>
      <point x="447" y="420" type="line"/>
      <point x="538" y="780" type="line"/>
      <point x="504" y="780" type="line"/>
      <point x="481" y="689" type="line"/>
      <point x="457" y="747"/>
      <point x="401" y="785"/>
      <point x="335" y="785" type="curve" smooth="yes"/>
      <point x="225" y="785"/>
      <point x="127" y="687"/>
      <point x="127" y="577" type="curve" smooth="yes"/>
      <point x="127" y="484"/>
      <point x="198" y="415"/>
    </contour>
    <contour>
      <point x="295" y="449" type="curve" smooth="yes"/>
      <point x="221" y="449"/>
      <point x="163" y="507"/>
      <point x="163" y="582" type="curve" smooth="yes"/>
      <point x="163" y="671"/>
      <point x="245" y="751"/>
      <point x="335" y="751" type="curve" smooth="yes"/>
      <point x="409" y="751"/>
      <point x="462" y="696"/>
      <point x="462" y="622" type="curve" smooth="yes"/>
      <point x="462" y="531"/>
      <point x="384" y="449"/>
    </contour>
  </outline>
</glyph>
<glyph name="logicalnot" format="2">
  <advance width="750"/>
  <unicode hex="00AC"/>
  <outline>
    <contour>
      <point x="587" y="225" type="line"/>
      <point x="621" y="225" type="line"/>
      <point x="682" y="468" type="line"/>
      <point x="112" y="468" type="line"/>
      <point x="103" y="432" type="line"/>
      <point x="639" y="432" type="line"/>
    </contour>
  </outline>
</glyph>
<glyph name="registered" format="2">
  <advance width="600"/>
  <unicode hex="00AE"/>
  <outline>
    <contour>
      <point x="359" y="402" type="curve" smooth="yes"/>
      <point x="514" y="402"/>
      <point x="654" y="540"/>
      <point x="654" y="690" type="curve" smooth="yes"/>
      <point x="654" y="819"/>
      <point x="553" y="918"/>
      <point x="421" y="918" type="curve" smooth="yes"/>
      <point x="266" y="918"/>
      <point x="126" y="781"/>
      <point x="126" y="631" type="curve" smooth="yes"/>
      <point x="126" y="502"/>
      <point x="226" y="402"/>
    </contour>
    <contour>
      <point x="360" y="433" type="curve" smooth="yes"/>
      <point x="248" y="433"/>
      <point x="160" y="517"/>
      <point x="160" y="630" type="curve" smooth="yes"/>
      <point x="160" y="765"/>
      <point x="282" y="887"/>
      <point x="418" y="887" type="curve" smooth="yes"/>
      <point x="530" y="887"/>
      <point x="620" y="804"/>
      <point x="620" y="690" type="curve" smooth="yes"/>
      <point x="620" y="555"/>
      <point x="497" y="433"/>
    </contour>
    <contour>
      <point x="281" y="546" type="line"/>
      <point x="312" y="546" type="line"/>
      <point x="334" y="632" type="line"/>
      <point x="385" y="632" type="line"/>
      <point x="425" y="546" type="line"/>
      <point x="459" y="546" type="line"/>
      <point x="416" y="635" type="line"/>
      <point x="461" y="645"/>
      <point x="490" y="675"/>
      <point x="490" y="716" type="curve" smooth="yes"/>
      <point x="490" y="757"/>
      <point x="458" y="786"/>
      <point x="419" y="786" type="curve" smooth="yes"/>
      <point x="341" y="786" type="line"/>
    </contour>
    <contour>
      <point x="341" y="662" type="line"/>
      <point x="365" y="756" type="line"/>
      <point x="414" y="756" type="line" smooth="yes"/>
      <point x="442" y="756"/>
      <point x="458" y="736"/>
      <point x="458" y="712" type="curve" smooth="yes"/>
      <point x="458" y="686"/>
      <point x="433" y="662"/>
      <point x="401" y="662" type="curve" smooth="yes"/>
    </contour>
  </outline>
</glyph>
<glyph name="degree" format="2">
  <advance width="480"/>
  <unicode hex="00B0"/>
  <outline>
    <contour>
      <point x="332" y="588" type="curve" smooth="yes"/>
      <point x="429" y="588"/>
      <point x="516" y="673"/>
      <point x="516" y="769" type="curve" smooth="yes"/>
      <point x="516" y="850"/>
      <point x="453" y="912"/>
      <point x="372" y="912" type="curve" smooth="yes"/>
      <point x="275" y="912"/>
      <point x="188" y="827"/>
      <point x="188" y="731" type="curve" smooth="yes"/>
      <point x="188" y="650"/>
      <point x="251" y="588"/>
    </contour>
    <contour>
      <point x="337" y="622" type="curve" smooth="yes"/>
      <point x="273" y="622"/>
      <point x="224" y="671"/>
      <point x="224" y="735" type="curve" smooth="yes"/>
      <point x="224" y="810"/>
      <point x="292" y="878"/>
      <point x="367" y="878" type="curve" smooth="yes"/>
      <point x="431" y="878"/>
      <point x="480" y="829"/>
      <point x="480" y="765" type="curve" smooth="yes"/>
      <point x="480" y="690"/>
      <point x="412" y="622"/>
    </contour>
  </outline>
</glyph>
<glyph name="plusminus" format="2">
  <advance width="750"/>
  <unicode hex="00B1"/>
  <outline>
    <contour>
      <point x="347" y="265" type="line"/>
      <point x="385" y="265" type="line"/>
      <point x="442" y="492" type="line"/>
      <point x="698" y="492" type="line"/>
      <point x="707" y="528" type="line"/>
      <point x="451" y="528" type="line"/>
      <point x="515" y="785" type="line"/>
      <point x="477" y="785" type="line"/>
      <point x="413" y="528" type="line"/>
      <point x="157" y="528" type="line"/>
      <point x="148" y="492" type="line"/>
      <point x="404" y="492" type="line"/>
    </contour>
    <contour>
      <point x="60" y="103" type="line"/>
      <point x="594" y="103" type="line"/>
      <point x="602" y="137" type="line"/>
      <point x="68" y="137" type="line"/>
    </contour>
  </outline>
</glyph>
<glyph name="micro" format="2">
  <advance width="770"/>
  <unicode hex="00B5"/>
  <unicode hex="03BC"/>
  <outline>
    <contour>
      <point x="-44" y="-300" type="line"/>
      <point x="-2" y="-300" type="line"/>
      <point x="102" y="120" type="line"/>
      <point x="120" y="40"/>
      <point x="186" y="-12"/>
      <point x="275" y="-12" type="curve" smooth="yes"/>
      <point x="362" y="-12"/>
      <point x="447" y="35"/>
      <point x="506" y="116" type="curve"/>
      <point x="503" y="45"/>
      <point x="542" y="0"/>
      <point x="611" y="-9" type="curve"/>
      <point x="629" y="29" type="line"/>
      <point x="562" y="37"/>
      <point x="535" y="79"/>
      <point x="555" y="159" type="curve" smooth="yes"/>
      <point x="659" y="570" type="line"/>
      <point x="617" y="570" type="line"/>
      <point x="536" y="251" type="line" smooth="yes"/>
      <point x="503" y="120"/>
      <point x="392" y="28"/>
      <point x="285" y="28" type="curve" smooth="yes"/>
      <point x="165" y="28"/>
      <point x="102" y="123"/>
      <point x="136" y="257" type="curve" smooth="yes"/>
      <point x="216" y="570" type="line"/>
      <point x="174" y="570" type="line"/>
    </contour>
  </outline>
</glyph>
<glyph name="paragraph" format="2">
  <advance width="750"/>
  <unicode hex="00B6"/>
  <outline>
    <contour>
      <point x="228" y="-180" type="line"/>
      <point x="264" y="-180" type="line"/>
      <point x="541" y="928" type="line"/>
      <point x="731" y="928" type="line"/>
      <point x="456" y="-180" type="line"/>
      <point x="492" y="-180" type="line"/>
      <point x="777" y="960" type="line"/>
      <point x="492" y="960" type="line" smooth="yes"/>
      <point x="307" y="960"/>
      <point x="156" y="824"/>
      <point x="156" y="657" type="curve" smooth="yes"/>
      <point x="156" y="533"/>
      <point x="238" y="441"/>
      <point x="375" y="409" type="curve"/>
    </contour>
  </outline>
</glyph>
<glyph name="ordmasculine" format="2">
  <advance width="480"/>
  <unicode hex="00BA"/>
  <outline>
    <contour>
      <point x="292" y="414" type="curve" smooth="yes"/>
      <point x="403" y="414"/>
      <point x="503" y="512"/>
      <point x="503" y="622" type="curve" smooth="yes"/>
      <point x="503" y="715"/>
      <point x="430" y="786"/>
      <point x="337" y="786" type="curve" smooth="yes"/>
      <point x="227" y="786"/>
      <point x="127" y="688"/>
      <point x="127" y="578" type="curve" smooth="yes"/>
      <point x="127" y="485"/>
      <point x="199" y="414"/>
    </contour>
    <contour>
      <point x="296" y="448" type="curve" smooth="yes"/>
      <point x="220" y="448"/>
      <point x="164" y="507"/>
      <point x="164" y="582" type="curve" smooth="yes"/>
      <point x="164" y="671"/>
      <point x="244" y="752"/>
      <point x="334" y="752" type="curve" smooth="yes"/>
      <point x="410" y="752"/>
      <point x="466" y="693"/>
      <point x="466" y="618" type="curve" smooth="yes"/>
      <point x="466" y="529"/>
      <point x="385" y="448"/>
    </contour>
  </outline>
</glyph>
<glyph name="questiondown" format="2">
  <advance width="480"/>
  <unicode hex="00BF"/>
  <outline>
    <contour>
      <point x="128" y="-312" type="curve" smooth="yes"/>
      <point x="171" y="-312"/>
      <point x="209" y="-302"/>
      <point x="244" y="-285" type="curve"/>
      <point x="257" y="-234" type="line"/>
      <point x="222" y="-259"/>
      <point x="181" y="-272"/>
      <point x="136" y="-272" type="curve" smooth="yes"/>
      <point x="57" y="-272"/>
      <point x="-18" y="-232"/>
      <point x="-18" y="-134" type="curve" smooth="yes"/>
      <point x="-18" y="37"/>
      <point x="207" y="95"/>
      <point x="266" y="330" type="curve"/>
      <point x="230" y="330" type="line"/>
      <point x="175" y="119"/>
      <point x="-60" y="51"/>
      <point x="-60" y="-134" type="curve" smooth="yes"/>
      <point x="-60" y="-235"/>
      <point x="9" y="-312"/>
    </contour>
    <contour>
      <point x="302" y="524" type="curve" smooth="yes"/>
      <point x="326" y="524"/>
      <point x="348" y="546"/>
      <point x="348" y="571" type="curve" smooth="yes"/>
      <point x="348" y="590"/>
      <point x="331" y="608"/>
      <point x="310" y="608" type="curve" smooth="yes"/>
      <point x="286" y="608"/>
      <point x="264" y="586"/>
      <point x="264" y="562" type="curve" smooth="yes"/>
      <point x="264" y="539"/>
      <point x="283" y="524"/>
    </contour>
  </outline>
</glyph>
<glyph name="Aring" format="2">
  <advance width="780"/>
  <unicode hex="00C5"/>
  <outline>
    <contour>
      <point x="-30" y="0" type="line"/>
      <point x="17" y="0" type="line"/>
      <point x="247" y="374" type="line"/>
      <point x="571" y="374" type="line"/>
      <point x="617" y="0" type="line"/>
      <point x="660" y="0" type="line"/>
      <point x="550" y="880" type="line"/>
      <point x="627" y="883"/>
      <point x="695" y="952"/>
      <point x="695" y="1027" type="curve" smooth="yes"/>
      <point x="695" y="1097"/>
      <point x="638" y="1146"/>
      <point x="573" y="1146" type="curve" smooth="yes"/>
      <point x="496" y="1146"/>
      <point x="423" y="1076"/>
      <point x="423" y="998" type="curve" smooth="yes"/>
      <point x="423" y="943"/>
      <point x="461" y="897"/>
      <point x="514" y="884" type="curve"/>
    </contour>
    <contour>
      <point x="269" y="412" type="line"/>
      <point x="421" y="660" type="line" smooth="yes"/>
      <point x="464" y="730"/>
      <point x="486" y="764"/>
      <point x="520" y="828" type="curve"/>
      <point x="524" y="764"/>
      <point x="529" y="730"/>
      <point x="537" y="660" type="curve" smooth="yes"/>
      <point x="567" y="412" type="line"/>
    </contour>
    <contour>
      <point x="544" y="914" type="curve" smooth="yes"/>
      <point x="496" y="914"/>
      <point x="460" y="954"/>
      <point x="460" y="998" type="curve" smooth="yes"/>
      <point x="460" y="1061"/>
      <point x="516" y="1112"/>
      <point x="574" y="1112" type="curve" smooth="yes"/>
      <point x="622" y="1112"/>
      <point x="658" y="1073"/>
      <point x="658" y="1028" type="curve" smooth="yes"/>
      <point x="658" y="965"/>
      <point x="602" y="914"/>
    </contour>
  </outline>
</glyph>
<glyph name="AE" format="2">
  <advance width="1000"/>
  <unicode hex="00C6"/>
  <anchor x="278" y="0" name="bottom"/>
  <anchor x="717" y="900" name="top"/>
  <outline>
    <contour>
      <point x="-30" y="0" type="line"/>
      <point x="17" y="0" type="line"/>
      <point x="247" y="374" type="line"/>
      <point x="539" y="374" type="line"/>
      <point x="557" y="0" type="line"/>
      <point x="889" y="0" type="line"/>
      <point x="889" y="40" type="line"/>
      <point x="598" y="40" type="line"/>
      <point x="572" y="536" type="line"/>
      <point x="829" y="536" type="line"/>
      <point x="829" y="574" type="line"/>
      <point x="570" y="574" type="line"/>
      <point x="555" y="860" type="line"/>
      <point x="865" y="860" type="line"/>
      <point x="865" y="900" type="line"/>
      <point x="525" y="900" type="line"/>
    </contour>
    <contour>
      <point x="270" y="412" type="line"/>
      <point x="422" y="660" type="line" smooth="yes"/>
      <point x="465" y="730"/>
      <point x="486" y="764"/>
      <point x="521" y="828" type="curve"/>
      <point x="520" y="764"/>
      <point x="523" y="730"/>
      <point x="526" y="660" type="curve" smooth="yes"/>
      <point x="538" y="412" type="line"/>
    </contour>
  </outline>
</glyph>
<glyph name="Ccedilla" format="2">
  <advance width="930"/>
  <unicode hex="00C7"/>
  <outline>
    <contour>
      <point x="306" y="-180" type="line"/>
      <point x="360" y="-180" type="line"/>
      <point x="515" y="-12" type="line"/>
      <point x="628" y="-9"/>
      <point x="740" y="37"/>
      <point x="828" y="119" type="curve"/>
      <point x="828" y="178" type="line"/>
      <point x="739" y="83"/>
      <point x="623" y="30"/>
      <point x="505" y="30" type="curve" smooth="yes"/>
      <point x="304" y="30"/>
      <point x="150" y="187"/>
      <point x="150" y="394" type="curve" smooth="yes"/>
      <point x="150" y="642"/>
      <point x="371" y="870"/>
      <point x="610" y="870" type="curve" smooth="yes"/>
      <point x="727" y="870"/>
      <point x="833" y="815"/>
      <point x="901" y="719" type="curve"/>
      <point x="923" y="765" type="line"/>
      <point x="846" y="859"/>
      <point x="735" y="912"/>
      <point x="613" y="912" type="curve" smooth="yes"/>
      <point x="348" y="912"/>
      <point x="104" y="664"/>
      <point x="104" y="395" type="curve" smooth="yes"/>
      <point x="104" y="177"/>
      <point x="263" y="5"/>
      <point x="473" y="-11" type="curve"/>
    </contour>
  </outline>
</glyph>
<glyph name="Eth" format="2">
  <advance width="990"/>
  <unicode hex="00D0"/>
  <outline>
    <contour>
      <point x="91" y="0" type="line"/>
      <point x="453" y="0" type="line" smooth="yes"/>
      <point x="717" y="0"/>
      <point x="961" y="243"/>
      <point x="961" y="505" type="curve" smooth="yes"/>
      <point x="961" y="728"/>
      <point x="786" y="900"/>
      <point x="558" y="900" type="curve" smooth="yes"/>
      <point x="316" y="900" type="line"/>
      <point x="216" y="499" type="line"/>
      <point x="110" y="499" type="line"/>
      <point x="100" y="461" type="line"/>
      <point x="206" y="461" type="line"/>
    </contour>
    <contour>
      <point x="145" y="40" type="line"/>
      <point x="250" y="461" type="line"/>
      <point x="580" y="461" type="line"/>
      <point x="590" y="499" type="line"/>
      <point x="260" y="499" type="line"/>
      <point x="350" y="860" type="line"/>
      <point x="548" y="860" type="line" smooth="yes"/>
      <point x="757" y="860"/>
      <point x="915" y="706"/>
      <point x="915" y="503" type="curve" smooth="yes"/>
      <point x="915" y="260"/>
      <point x="691" y="40"/>
      <point x="443" y="40" type="curve" smooth="yes"/>
    </contour>
  </outline>
</glyph>
<glyph name="multiply" format="2">
  <advance width="750"/>
  <unicode hex="00D7"/>
  <outline>
    <contour>
      <point x="118" y="192" type="line"/>
      <point x="408" y="422" type="line"/>
      <point x="580" y="192" type="line"/>
      <point x="610" y="219" type="line"/>
      <point x="438" y="446" type="line"/>
      <point x="727" y="678" type="line"/>
      <point x="706" y="708" type="line"/>
      <point x="415" y="477" type="line"/>
      <point x="242" y="708" type="line"/>
      <point x="212" y="681" type="line"/>
      <point x="384" y="453" type="line"/>
      <point x="97" y="222" type="line"/>
    </contour>
  </outline>
</glyph>
<glyph name="Oslash" format="2">
  <advance width="1040"/>
  <unicode hex="00D8"/>
  <anchor x="443" y="0" name="bottom"/>
  <anchor x="670" y="900" name="top"/>
  <outline>
    <contour>
      <point x="503" y="-12" type="curve" smooth="yes"/>
      <point x="765" y="-12"/>
      <point x="1011" y="235"/>
      <point x="1011" y="506" type="curve" smooth="yes"/>
      <point x="1011" y="596"/>
      <point x="984" y="678"/>
      <point x="937" y="745" type="curve"/>
      <point x="1037" y="828" type="line"/>
      <point x="1013" y="856" type="line"/>
      <point x="915" y="774" type="line"/>
      <point x="842" y="859"/>
      <point x="734" y="912"/>
      <point x="613" y="912" type="curve" smooth="yes"/>
      <point x="349" y="912"/>
      <point x="104" y="665"/>
      <point x="104" y="395" type="curve" smooth="yes"/>
      <point x="104" y="305"/>
      <point x="131" y="223"/>
      <point x="177" y="157" type="curve"/>
      <point x="77" y="73" type="line"/>
      <point x="102" y="45" type="line"/>
      <point x="200" y="127" type="line"/>
      <point x="273" y="41"/>
      <point x="381" y="-12"/>
    </contour>
    <contour>
      <point x="211" y="185" type="line"/>
      <point x="172" y="243"/>
      <point x="150" y="315"/>
      <point x="150" y="394" type="curve" smooth="yes"/>
      <point x="150" y="643"/>
      <point x="372" y="870"/>
      <point x="610" y="870" type="curve" smooth="yes"/>
      <point x="719" y="870"/>
      <point x="815" y="822"/>
      <point x="880" y="745" type="curve"/>
    </contour>
    <contour>
      <point x="505" y="30" type="curve" smooth="yes"/>
      <point x="395" y="30"/>
      <point x="298" y="78"/>
      <point x="233" y="155" type="curve"/>
      <point x="902" y="715" type="line"/>
      <point x="942" y="656"/>
      <point x="965" y="584"/>
      <point x="965" y="504" type="curve" smooth="yes"/>
      <point x="965" y="256"/>
      <point x="742" y="30"/>
    </contour>
  </outline>
</glyph>
<glyph name="Thorn" format="2">
  <advance width="700"/>
  <unicode hex="00DE"/>
  <outline>
    <contour>
      <point x="61" y="0" type="line"/>
      <point x="105" y="0" type="line"/>
      <point x="162" y="228" type="line"/>
      <point x="354" y="228" type="line" smooth="yes"/>
      <point x="548" y="228"/>
      <point x="690" y="370"/>
      <point x="690" y="536" type="curve" smooth="yes"/>
      <point x="690" y="677"/>
      <point x="589" y="780"/>
      <point x="420" y="780" type="curve" smooth="yes"/>
      <point x="300" y="780" type="line"/>
      <point x="330" y="900" type="line"/>
      <point x="286" y="900" type="line"/>
    </contour>
    <contour>
      <point x="171" y="266" type="line"/>
      <point x="290" y="742" type="line"/>
      <point x="411" y="742" type="line" smooth="yes"/>
      <point x="565" y="742"/>
      <point x="648" y="653"/>
      <point x="648" y="532" type="curve" smooth="yes"/>
      <point x="648" y="389"/>
      <point x="529" y="266"/>
      <point x="351" y="266" type="curve" smooth="yes"/>
    </contour>
  </outline>
</glyph>
<glyph name="germandbls" format="2">
  <advance width="710"/>
  <unicode hex="00DF"/>
  <outline>
    <contour>
      <point x="269" y="-6" type="line"/>
      <point x="460" y="-6"/>
      <point x="634" y="160"/>
      <point x="634" y="349" type="curve" smooth="yes"/>
      <point x="634" y="447"/>
      <point x="586" y="529"/>
      <point x="488" y="593" type="curve"/>
      <point x="590" y="639"/>
      <point x="648" y="714"/>
      <point x="648" y="799" type="curve" smooth="yes"/>
      <point x="648" y="899"/>
      <point x="568" y="970"/>
      <point x="462" y="970" type="curve" smooth="yes"/>
      <point x="350" y="970"/>
      <point x="257" y="892"/>
      <point x="227" y="772" type="curve" smooth="yes"/>
      <point x="34" y="0" type="line"/>
      <point x="76" y="0" type="line"/>
      <point x="267" y="764" type="line" smooth="yes"/>
      <point x="293" y="869"/>
      <point x="363" y="932"/>
      <point x="456" y="932" type="curve" smooth="yes"/>
      <point x="543" y="932"/>
      <point x="605" y="878"/>
      <point x="605" y="796" type="curve" smooth="yes"/>
      <point x="605" y="709"/>
      <point x="533" y="634"/>
      <point x="410" y="595" type="curve"/>
      <point x="410" y="593" type="line"/>
      <point x="533" y="535"/>
      <point x="592" y="454"/>
      <point x="592" y="349" type="curve" smooth="yes"/>
      <point x="592" y="181"/>
      <point x="441" y="32"/>
      <point x="269" y="32" type="curve"/>
    </contour>
  </outline>
</glyph>
<glyph name="ae" format="2">
  <advance width="1160"/>
  <unicode hex="00E6"/>
  <anchor x="680" y="0" name="bottom"/>
  <anchor x="680" y="570" name="top"/>
  <outline>
    <contour>
      <point x="235" y="-8" type="curve" smooth="yes"/>
      <point x="355" y="-8"/>
      <point x="477" y="63"/>
      <point x="541" y="170" type="curve"/>
      <point x="577" y="60"/>
      <point x="680" y="-12"/>
      <point x="803" y="-12" type="curve" smooth="yes"/>
      <point x="886" y="-12"/>
      <point x="963" y="20"/>
      <point x="1023" y="79" type="curve"/>
      <point x="1023" y="134" type="line"/>
      <point x="969" y="67"/>
      <point x="890" y="28"/>
      <point x="806" y="28" type="curve" smooth="yes"/>
      <point x="660" y="28"/>
      <point x="554" y="147"/>
      <point x="569" y="295" type="curve"/>
      <point x="591" y="292"/>
      <point x="615" y="291"/>
      <point x="647" y="291" type="curve" smooth="yes"/>
      <point x="1097" y="291" type="line"/>
      <point x="1100" y="303" type="line" smooth="yes"/>
      <point x="1137" y="450"/>
      <point x="1022" y="582"/>
      <point x="858" y="582" type="curve" smooth="yes"/>
      <point x="745" y="582"/>
      <point x="639" y="525"/>
      <point x="578" y="432" type="curve"/>
      <point x="554" y="525"/>
      <point x="466" y="579"/>
      <point x="339" y="579" type="curve" smooth="yes"/>
      <point x="273" y="579"/>
      <point x="210" y="564"/>
      <point x="152" y="534" type="curve"/>
      <point x="152" y="490" type="line"/>
      <point x="210" y="524"/>
      <point x="267" y="540"/>
      <point x="333" y="540" type="curve" smooth="yes"/>
      <point x="466" y="540"/>
      <point x="546" y="474"/>
      <point x="545" y="366" type="curve"/>
      <point x="537" y="346"/>
      <point x="532" y="325"/>
      <point x="529" y="302" type="curve"/>
      <point x="456" y="336"/>
      <point x="365" y="354"/>
      <point x="272" y="354" type="curve" smooth="yes"/>
      <point x="134" y="354"/>
      <point x="31" y="272"/>
      <point x="31" y="162" type="curve" smooth="yes"/>
      <point x="31" y="63"/>
      <point x="116" y="-8"/>
    </contour>
    <contour>
      <point x="244" y="30" type="curve" smooth="yes"/>
      <point x="146" y="30"/>
      <point x="74" y="87"/>
      <point x="74" y="165" type="curve" smooth="yes"/>
      <point x="74" y="251"/>
      <point x="161" y="316"/>
      <point x="275" y="316" type="curve" smooth="yes"/>
      <point x="360" y="316"/>
      <point x="446" y="299"/>
      <point x="524" y="267" type="curve"/>
      <point x="527" y="213" type="line"/>
      <point x="477" y="109"/>
      <point x="355" y="30"/>
    </contour>
    <contour>
      <point x="575" y="323" type="curve"/>
      <point x="604" y="450"/>
      <point x="720" y="542"/>
      <point x="854" y="542" type="curve" smooth="yes"/>
      <point x="988" y="542"/>
      <point x="1084" y="442"/>
      <point x="1063" y="323" type="curve"/>
      <point x="1037" y="326"/>
      <point x="1016" y="327"/>
      <point x="987" y="327" type="curve" smooth="yes"/>
      <point x="648" y="327" type="line" smooth="yes"/>
      <point x="615" y="327"/>
      <point x="592" y="326"/>
    </contour>
  </outline>
</glyph>
<glyph name="ccedilla" format="2">
  <advance width="610"/>
  <unicode hex="00E7"/>
  <outline>
    <contour>
      <point x="123" y="-180" type="line"/>
      <point x="177" y="-180" type="line"/>
      <point x="332" y="-12" type="line"/>
      <point x="413" y="-9"/>
      <point x="489" y="27"/>
      <point x="547" y="80" type="curve"/>
      <point x="547" y="137" type="line"/>
      <point x="492" y="72"/>
      <point x="411" y="28"/>
      <point x="324" y="28" type="curve" smooth="yes"/>
      <point x="196" y="28"/>
      <point x="98" y="127"/>
      <point x="98" y="255" type="curve" smooth="yes"/>
      <point x="98" y="406"/>
      <point x="235" y="542"/>
      <point x="388" y="542" type="curve" smooth="yes"/>
      <point x="471" y="542"/>
      <point x="542" y="500"/>
      <point x="581" y="436" type="curve"/>
      <point x="602" y="481" type="line"/>
      <point x="554" y="543"/>
      <point x="479" y="582"/>
      <point x="392" y="582" type="curve" smooth="yes"/>
      <point x="215" y="582"/>
      <point x="56" y="426"/>
      <point x="56" y="251" type="curve" smooth="yes"/>
      <point x="56" y="112"/>
      <point x="156" y="3"/>
      <point x="291" y="-10" type="curve"/>
    </contour>
  </outline>
</glyph>
<glyph name="eth" format="2">
  <advance width="720"/>
  <unicode hex="00F0"/>
  <outline>
    <contour>
      <point x="320" y="-12" type="curve" smooth="yes"/>
      <point x="479" y="-12"/>
      <point x="656" y="118"/>
      <point x="656" y="336" type="curve" smooth="yes"/>
      <point x="656" y="401"/>
      <point x="640" y="468"/>
      <point x="614" y="538" type="curve" smooth="yes"/>
      <point x="592" y="597"/>
      <point x="548" y="698"/>
      <point x="503" y="796" type="curve"/>
      <point x="643" y="860" type="line"/>
      <point x="630" y="890" type="line"/>
      <point x="490" y="826" type="line"/>
      <point x="467" y="875"/>
      <point x="445" y="922"/>
      <point x="427" y="958" type="curve"/>
      <point x="380" y="960" type="line"/>
      <point x="405" y="910"/>
      <point x="430" y="860"/>
      <point x="454" y="809" type="curve"/>
      <point x="297" y="737" type="line"/>
      <point x="309" y="707" type="line"/>
      <point x="468" y="780" type="line"/>
      <point x="518" y="674"/>
      <point x="563" y="567"/>
      <point x="605" y="459" type="curve"/>
      <point x="562" y="533"/>
      <point x="485" y="582"/>
      <point x="388" y="582" type="curve" smooth="yes"/>
      <point x="216" y="582"/>
      <point x="56" y="426"/>
      <point x="56" y="251" type="curve" smooth="yes"/>
      <point x="56" y="102"/>
      <point x="171" y="-12"/>
    </contour>
    <contour>
      <point x="324" y="28" type="curve" smooth="yes"/>
      <point x="196" y="28"/>
      <point x="98" y="127"/>
      <point x="98" y="255" type="curve" smooth="yes"/>
      <point x="98" y="406"/>
      <point x="235" y="542"/>
      <point x="388" y="542" type="curve" smooth="yes"/>
      <point x="516" y="542"/>
      <point x="614" y="443"/>
      <point x="614" y="315" type="curve" smooth="yes"/>
      <point x="614" y="164"/>
      <point x="477" y="28"/>
    </contour>
  </outline>
</glyph>
<glyph name="divide" format="2">
  <advance width="750"/>
  <unicode hex="00F7"/>
  <outline>
    <contour>
      <point x="103" y="432" type="line"/>
      <point x="713" y="432" type="line"/>
      <point x="721" y="468" type="line"/>
      <point x="111" y="468" type="line"/>
    </contour>
    <contour>
      <point x="356" y="201" type="curve" smooth="yes"/>
      <point x="379" y="201"/>
      <point x="399" y="221"/>
      <point x="399" y="244" type="curve" smooth="yes"/>
      <point x="399" y="265"/>
      <point x="382" y="279"/>
      <point x="364" y="279" type="curve" smooth="yes"/>
      <point x="341" y="279"/>
      <point x="321" y="259"/>
      <point x="321" y="235" type="curve" smooth="yes"/>
      <point x="321" y="218"/>
      <point x="336" y="201"/>
    </contour>
    <contour>
      <point x="461" y="621" type="curve" smooth="yes"/>
      <point x="484" y="621"/>
      <point x="504" y="641"/>
      <point x="504" y="664" type="curve" smooth="yes"/>
      <point x="504" y="685"/>
      <point x="487" y="699"/>
      <point x="469" y="699" type="curve" smooth="yes"/>
      <point x="446" y="699"/>
      <point x="426" y="679"/>
      <point x="426" y="655" type="curve" smooth="yes"/>
      <point x="426" y="638"/>
      <point x="441" y="621"/>
    </contour>
  </outline>
</glyph>
<glyph name="oslash" format="2">
  <advance width="720"/>
  <unicode hex="00F8"/>
  <anchor x="427" y="570" name="top"/>
  <outline>
    <contour>
      <point x="320" y="-12" type="curve" smooth="yes"/>
      <point x="497" y="-12"/>
      <point x="656" y="144"/>
      <point x="656" y="319" type="curve" smooth="yes"/>
      <point x="656" y="377"/>
      <point x="639" y="429"/>
      <point x="609" y="472" type="curve"/>
      <point x="677" y="529" type="line"/>
      <point x="655" y="558" type="line"/>
      <point x="586" y="500" type="line"/>
      <point x="538" y="551"/>
      <point x="470" y="582"/>
      <point x="392" y="582" type="curve" smooth="yes"/>
      <point x="215" y="582"/>
      <point x="56" y="426"/>
      <point x="56" y="251" type="curve" smooth="yes"/>
      <point x="56" y="193"/>
      <point x="73" y="141"/>
      <point x="103" y="98" type="curve"/>
      <point x="35" y="41" type="line"/>
      <point x="57" y="12" type="line"/>
      <point x="126" y="70" type="line"/>
      <point x="174" y="19"/>
      <point x="242" y="-12"/>
    </contour>
    <contour>
      <point x="137" y="126" type="line"/>
      <point x="112" y="162"/>
      <point x="98" y="206"/>
      <point x="98" y="255" type="curve" smooth="yes"/>
      <point x="98" y="406"/>
      <point x="235" y="542"/>
      <point x="388" y="542" type="curve" smooth="yes"/>
      <point x="454" y="542"/>
      <point x="512" y="516"/>
      <point x="553" y="473" type="curve"/>
    </contour>
    <contour>
      <point x="324" y="28" type="curve" smooth="yes"/>
      <point x="258" y="28"/>
      <point x="200" y="54"/>
      <point x="159" y="97" type="curve"/>
      <point x="575" y="444" type="line"/>
      <point x="600" y="408"/>
      <point x="614" y="364"/>
      <point x="614" y="315" type="curve" smooth="yes"/>
      <point x="614" y="164"/>
      <point x="477" y="28"/>
    </contour>
  </outline>
</glyph>
<glyph name="thorn" format="2">
  <advance width="740"/>
  <unicode hex="00FE"/>
  <outline>
    <contour>
      <point x="-44" y="-300" type="line"/>
      <point x="-2" y="-300" type="line"/>
      <point x="111" y="156" type="line"/>
      <point x="147" y="56"/>
      <point x="239" y="-8"/>
      <point x="348" y="-8" type="curve" smooth="yes"/>
      <point x="521" y="-8"/>
      <point x="676" y="148"/>
      <point x="676" y="322" type="curve" smooth="yes"/>
      <point x="676" y="468"/>
      <point x="566" y="578"/>
      <point x="421" y="578" type="curve" smooth="yes"/>
      <point x="334" y="578"/>
      <point x="245" y="535"/>
      <point x="190" y="468" type="curve"/>
      <point x="313" y="960" type="line"/>
      <point x="271" y="960" type="line"/>
    </contour>
    <contour>
      <point x="349" y="32" type="curve" smooth="yes"/>
      <point x="225" y="32"/>
      <point x="135" y="123"/>
      <point x="135" y="247" type="curve" smooth="yes"/>
      <point x="135" y="399"/>
      <point x="265" y="538"/>
      <point x="415" y="538" type="curve" smooth="yes"/>
      <point x="538" y="538"/>
      <point x="634" y="441"/>
      <point x="634" y="316" type="curve" smooth="yes"/>
      <point x="634" y="166"/>
      <point x="499" y="32"/>
    </contour>
  </outline>
</glyph>
<glyph name="Aogonek" format="2">
  <advance width="780"/>
  <unicode hex="0104"/>
  <outline>
    <contour>
      <point x="602" y="-282" type="curve"/>
      <point x="621" y="-246" type="line"/>
      <point x="568" y="-238"/>
      <point x="538" y="-209"/>
      <point x="538" y="-165" type="curve" smooth="yes"/>
      <point x="538" y="-117"/>
      <point x="572" y="-60"/>
      <point x="660" y="0" type="curve"/>
      <point x="544" y="930" type="line"/>
      <point x="542" y="930" type="line"/>
      <point x="-30" y="0" type="line"/>
      <point x="17" y="0" type="line"/>
      <point x="247" y="374" type="line"/>
      <point x="571" y="374" type="line"/>
      <point x="616" y="6" type="line"/>
      <point x="527" y="-56"/>
      <point x="496" y="-121"/>
      <point x="496" y="-171" type="curve" smooth="yes"/>
      <point x="496" y="-230"/>
      <point x="537" y="-274"/>
    </contour>
    <contour>
      <point x="269" y="412" type="line"/>
      <point x="421" y="660" type="line" smooth="yes"/>
      <point x="464" y="730"/>
      <point x="486" y="764"/>
      <point x="520" y="828" type="curve"/>
      <point x="524" y="764"/>
      <point x="529" y="730"/>
      <point x="537" y="660" type="curve" smooth="yes"/>
      <point x="567" y="412" type="line"/>
    </contour>
  </outline>
</glyph>
<glyph name="aogonek" format="2">
  <advance width="740"/>
  <unicode hex="0105"/>
  <outline>
    <contour>
      <point x="533" y="-282" type="curve"/>
      <point x="552" y="-246" type="line"/>
      <point x="499" y="-238"/>
      <point x="469" y="-209"/>
      <point x="469" y="-165" type="curve" smooth="yes"/>
      <point x="469" y="-117"/>
      <point x="501" y="-60"/>
      <point x="559" y="0" type="curve"/>
      <point x="701" y="570" type="line"/>
      <point x="663" y="570" type="line"/>
      <point x="623" y="408" type="line"/>
      <point x="589" y="511"/>
      <point x="495" y="578"/>
      <point x="384" y="578" type="curve" smooth="yes"/>
      <point x="211" y="578"/>
      <point x="56" y="422"/>
      <point x="56" y="248" type="curve" smooth="yes"/>
      <point x="56" y="102"/>
      <point x="166" y="-8"/>
      <point x="311" y="-8" type="curve" smooth="yes"/>
      <point x="398" y="-8"/>
      <point x="487" y="35"/>
      <point x="548" y="108" type="curve"/>
      <point x="521" y="0" type="line"/>
      <point x="466" y="-53"/>
      <point x="427" y="-118"/>
      <point x="427" y="-173" type="curve" smooth="yes"/>
      <point x="427" y="-229"/>
      <point x="468" y="-274"/>
    </contour>
    <contour>
      <point x="317" y="32" type="curve" smooth="yes"/>
      <point x="194" y="32"/>
      <point x="98" y="129"/>
      <point x="98" y="254" type="curve" smooth="yes"/>
      <point x="98" y="404"/>
      <point x="233" y="538"/>
      <point x="383" y="538" type="curve" smooth="yes"/>
      <point x="507" y="538"/>
      <point x="597" y="447"/>
      <point x="597" y="323" type="curve" smooth="yes"/>
      <point x="597" y="171"/>
      <point x="467" y="32"/>
    </contour>
  </outline>
</glyph>
<glyph name="Eogonek" format="2">
  <advance width="600"/>
  <unicode hex="0118"/>
  <anchor x="300" y="900" name="top"/>
  <outline>
    <contour>
      <point x="431" y="-282" type="curve"/>
      <point x="450" y="-246" type="line"/>
      <point x="397" y="-238"/>
      <point x="367" y="-209"/>
      <point x="367" y="-165" type="curve" smooth="yes"/>
      <point x="367" y="-117"/>
      <point x="399" y="-60"/>
      <point x="459" y="0" type="curve"/>
      <point x="469" y="40" type="line"/>
      <point x="115" y="40" type="line"/>
      <point x="239" y="536" type="line"/>
      <point x="521" y="536" type="line"/>
      <point x="531" y="574" type="line"/>
      <point x="248" y="574" type="line"/>
      <point x="320" y="860" type="line"/>
      <point x="671" y="860" type="line"/>
      <point x="681" y="900" type="line"/>
      <point x="286" y="900" type="line"/>
      <point x="61" y="0" type="line"/>
      <point x="417" y="0" type="line"/>
      <point x="360" y="-53"/>
      <point x="325" y="-119"/>
      <point x="325" y="-171" type="curve" smooth="yes"/>
      <point x="325" y="-230"/>
      <point x="366" y="-274"/>
    </contour>
  </outline>
</glyph>
<glyph name="eogonek" format="2">
  <advance width="690"/>
  <unicode hex="0119"/>
  <anchor x="412" y="570" name="top"/>
  <outline>
    <contour>
      <point x="413" y="-282" type="curve"/>
      <point x="432" y="-246" type="line"/>
      <point x="378" y="-238"/>
      <point x="349" y="-209"/>
      <point x="349" y="-163" type="curve" smooth="yes"/>
      <point x="349" y="-93"/>
      <point x="417" y="-13"/>
      <point x="553" y="79" type="curve"/>
      <point x="553" y="134" type="line"/>
      <point x="499" y="67"/>
      <point x="420" y="28"/>
      <point x="336" y="28" type="curve" smooth="yes"/>
      <point x="190" y="28"/>
      <point x="84" y="147"/>
      <point x="99" y="295" type="curve"/>
      <point x="123" y="292"/>
      <point x="147" y="291"/>
      <point x="177" y="291" type="curve" smooth="yes"/>
      <point x="627" y="291" type="line"/>
      <point x="630" y="303" type="line" smooth="yes"/>
      <point x="667" y="452"/>
      <point x="552" y="582"/>
      <point x="384" y="582" type="curve" smooth="yes"/>
      <point x="206" y="582"/>
      <point x="56" y="435"/>
      <point x="56" y="260" type="curve" smooth="yes"/>
      <point x="56" y="105"/>
      <point x="175" y="-12"/>
      <point x="332" y="-12" type="curve" smooth="yes"/>
      <point x="356" y="-12"/>
      <point x="378" y="-9"/>
      <point x="405" y="-3" type="curve"/>
      <point x="347" y="-53"/>
      <point x="307" y="-118"/>
      <point x="307" y="-171" type="curve" smooth="yes"/>
      <point x="307" y="-231"/>
      <point x="349" y="-274"/>
    </contour>
    <contour>
      <point x="105" y="323" type="curve"/>
      <point x="134" y="450"/>
      <point x="251" y="542"/>
      <point x="382" y="542" type="curve" smooth="yes"/>
      <point x="518" y="542"/>
      <point x="614" y="443"/>
      <point x="593" y="323" type="curve"/>
      <point x="566" y="326"/>
      <point x="545" y="327"/>
      <point x="517" y="327" type="curve" smooth="yes"/>
      <point x="178" y="327" type="line" smooth="yes"/>
      <point x="148" y="327"/>
      <point x="124" y="326"/>
    </contour>
  </outline>
</glyph>
<glyph name="Hbar" format="2">
  <advance width="760"/>
  <unicode hex="0126"/>
  <outline>
    <contour>
      <point x="61" y="0" type="line"/>
      <point x="105" y="0" type="line"/>
      <point x="239" y="535" type="line"/>
      <point x="639" y="535" type="line"/>
      <point x="505" y="0" type="line"/>
      <point x="549" y="0" type="line"/>
      <point x="732" y="732" type="line"/>
      <point x="828" y="732" type="line"/>
      <point x="836" y="768" type="line"/>
      <point x="741" y="768" type="line"/>
      <point x="774" y="900" type="line"/>
      <point x="730" y="900" type="line"/>
      <point x="697" y="768" type="line"/>
      <point x="297" y="768" type="line"/>
      <point x="330" y="900" type="line"/>
      <point x="286" y="900" type="line"/>
      <point x="253" y="768" type="line"/>
      <point x="156" y="768" type="line"/>
      <point x="148" y="732" type="line"/>
      <point x="244" y="732" type="line"/>
    </contour>
    <contour>
      <point x="249" y="575" type="line"/>
      <point x="288" y="732" type="line"/>
      <point x="688" y="732" type="line"/>
      <point x="649" y="575" type="line"/>
    </contour>
  </outline>
</glyph>
<glyph name="hbar" format="2">
  <advance width="700"/>
  <unicode hex="0127"/>
  <outline>
    <contour>
      <point x="34" y="0" type="line"/>
      <point x="76" y="0" type="line"/>
      <point x="164" y="345" type="line" smooth="yes"/>
      <point x="193" y="459"/>
      <point x="291" y="541"/>
      <point x="398" y="541" type="curve" smooth="yes"/>
      <point x="525" y="541"/>
      <point x="596" y="434"/>
      <point x="561" y="296" type="curve" smooth="yes"/>
      <point x="486" y="0" type="line"/>
      <point x="528" y="0" type="line"/>
      <point x="604" y="297" type="line" smooth="yes"/>
      <point x="644" y="455"/>
      <point x="558" y="580"/>
      <point x="408" y="580" type="curve" smooth="yes"/>
      <point x="327" y="580"/>
      <point x="246" y="539"/>
      <point x="193" y="470" type="curve"/>
      <point x="267" y="763" type="line"/>
      <point x="490" y="763" type="line"/>
      <point x="498" y="797" type="line"/>
      <point x="275" y="797" type="line"/>
      <point x="316" y="960" type="line"/>
      <point x="274" y="960" type="line"/>
      <point x="233" y="797" type="line"/>
      <point x="154" y="797" type="line"/>
      <point x="146" y="763" type="line"/>
      <point x="225" y="763" type="line"/>
    </contour>
  </outline>
</glyph>
<glyph name="Iogonek" format="2">
  <advance width="390"/>
  <unicode hex="012E"/>
  <outline>
    <contour>
      <point x="113" y="-282" type="curve"/>
      <point x="132" y="-246" type="line"/>
      <point x="79" y="-238"/>
      <point x="49" y="-209"/>
      <point x="49" y="-165" type="curve" smooth="yes"/>
      <point x="49" y="-117"/>
      <point x="82" y="-60"/>
      <point x="142" y="0" type="curve"/>
      <point x="367" y="900" type="line"/>
      <point x="323" y="900" type="line"/>
      <point x="98" y="0" type="line"/>
      <point x="41" y="-53"/>
      <point x="7" y="-119"/>
      <point x="7" y="-171" type="curve" smooth="yes"/>
      <point x="7" y="-230"/>
      <point x="48" y="-274"/>
    </contour>
  </outline>
</glyph>
<glyph name="idotless" format="2">
  <advance width="260"/>
  <unicode hex="0131"/>
  <anchor x="55" y="0" name="bottom"/>
  <anchor x="55" y="0" name="ogonek"/>
  <anchor x="197" y="570" name="top"/>
  <outline>
    <contour>
      <point x="34" y="0" type="line"/>
      <point x="76" y="0" type="line"/>
      <point x="218" y="570" type="line"/>
      <point x="176" y="570" type="line"/>
    </contour>
  </outline>
</glyph>
<glyph name="kgreenlandic" format="2">
  <advance width="590"/>
  <unicode hex="0138"/>
  <anchor x="265" y="0" name="bottom"/>
  <anchor x="349" y="570" name="top"/>
  <outline>
    <contour>
      <point x="455" y="0" type="line"/>
      <point x="503" y="0" type="line"/>
      <point x="251" y="341" type="line"/>
      <point x="538" y="570" type="line"/>
      <point x="479" y="570" type="line"/>
      <point x="198" y="345" type="line"/>
    </contour>
    <contour>
      <point x="34" y="0" type="line"/>
      <point x="76" y="0" type="line"/>
      <point x="219" y="570" type="line"/>
      <point x="177" y="570" type="line"/>
    </contour>
  </outline>
</glyph>
<glyph name="Lslash" format="2">
  <advance width="610"/>
  <unicode hex="0141"/>
  <outline>
    <contour>
      <point x="91" y="0" type="line"/>
      <point x="481" y="0" type="line"/>
      <point x="491" y="40" type="line"/>
      <point x="145" y="40" type="line"/>
      <point x="245" y="440" type="line"/>
      <point x="546" y="610" type="line"/>
      <point x="531" y="644" type="line"/>
      <point x="257" y="490" type="line"/>
      <point x="360" y="900" type="line"/>
      <point x="316" y="900" type="line"/>
      <point x="206" y="461" type="line"/>
      <point x="38" y="366" type="line"/>
      <point x="53" y="332" type="line"/>
      <point x="194" y="411" type="line"/>
    </contour>
  </outline>
</glyph>
<glyph name="lslash" format="2">
  <advance width="320"/>
  <unicode hex="0142"/>
  <outline>
    <contour>
      <point x="64" y="0" type="line"/>
      <point x="106" y="0" type="line"/>
      <point x="224" y="471" type="line"/>
      <point x="372" y="555" type="line"/>
      <point x="356" y="585" type="line"/>
      <point x="235" y="516" type="line"/>
      <point x="346" y="960" type="line"/>
      <point x="304" y="960" type="line"/>
      <point x="186" y="488" type="line"/>
      <point x="38" y="404" type="line"/>
      <point x="54" y="375" type="line"/>
      <point x="175" y="443" type="line"/>
    </contour>
  </outline>
</glyph>
<glyph name="Eng" format="2">
  <advance width="970"/>
  <unicode hex="014A"/>
  <anchor x="410" y="0" name="bottom"/>
  <anchor x="635" y="900" name="top"/>
  <outline>
    <contour>
      <point x="519" y="-192" type="curve" smooth="yes"/>
      <point x="641" y="-192"/>
      <point x="735" y="-101"/>
      <point x="769" y="36" type="curve" smooth="yes"/>
      <point x="985" y="900" type="line"/>
      <point x="943" y="900" type="line"/>
      <point x="754" y="147" type="line"/>
      <point x="296" y="930" type="line"/>
      <point x="294" y="930" type="line"/>
      <point x="61" y="0" type="line"/>
      <point x="103" y="0" type="line"/>
      <point x="308" y="821" type="line"/>
      <point x="740" y="89" type="line"/>
      <point x="732" y="55" type="line" smooth="yes"/>
      <point x="700" y="-81"/>
      <point x="625" y="-152"/>
      <point x="520" y="-152" type="curve" smooth="yes"/>
      <point x="451" y="-152"/>
      <point x="396" y="-121"/>
      <point x="372" y="-70" type="curve"/>
      <point x="348" y="-117" type="line"/>
      <point x="386" y="-168"/>
      <point x="457" y="-192"/>
    </contour>
  </outline>
</glyph>
<glyph name="eng" format="2">
  <advance width="700"/>
  <unicode hex="014B"/>
  <outline>
    <contour>
      <point x="312" y="-312" type="line"/>
      <point x="395" y="-312"/>
      <point x="465" y="-254"/>
      <point x="491" y="-149" type="curve" smooth="yes"/>
      <point x="603" y="297" type="line" smooth="yes"/>
      <point x="643" y="456"/>
      <point x="557" y="580"/>
      <point x="408" y="580" type="curve" smooth="yes"/>
      <point x="324" y="580"/>
      <point x="241" y="536"/>
      <point x="188" y="463" type="curve"/>
      <point x="215" y="570" type="line"/>
      <point x="177" y="570" type="line"/>
      <point x="34" y="0" type="line"/>
      <point x="76" y="0" type="line"/>
      <point x="164" y="345" type="line" smooth="yes"/>
      <point x="193" y="459"/>
      <point x="291" y="541"/>
      <point x="398" y="541" type="curve" smooth="yes"/>
      <point x="529" y="541"/>
      <point x="597" y="439"/>
      <point x="561" y="296" type="curve" smooth="yes"/>
      <point x="451" y="-141" type="line" smooth="yes"/>
      <point x="424" y="-248"/>
      <point x="365" y="-274"/>
      <point x="312" y="-274" type="curve"/>
    </contour>
  </outline>
</glyph>
<glyph name="OE" format="2">
  <advance width="1380"/>
  <unicode hex="0152"/>
  <anchor x="670" y="0" name="bottom"/>
  <anchor x="836" y="900" name="top"/>
  <outline>
    <contour>
      <point x="498" y="-12" type="curve" smooth="yes"/>
      <point x="650" y="-12"/>
      <point x="796" y="73"/>
      <point x="891" y="199" type="curve"/>
      <point x="841" y="0" type="line"/>
      <point x="1239" y="0" type="line"/>
      <point x="1249" y="40" type="line"/>
      <point x="895" y="40" type="line"/>
      <point x="1019" y="536" type="line"/>
      <point x="1301" y="536" type="line"/>
      <point x="1311" y="574" type="line"/>
      <point x="1028" y="574" type="line"/>
      <point x="1100" y="860" type="line"/>
      <point x="1451" y="860" type="line"/>
      <point x="1461" y="900" type="line"/>
      <point x="1066" y="900" type="line"/>
      <point x="990" y="596" type="line"/>
      <point x="951" y="780"/>
      <point x="795" y="912"/>
      <point x="606" y="912" type="curve" smooth="yes"/>
      <point x="346" y="912"/>
      <point x="104" y="665"/>
      <point x="104" y="395" type="curve" smooth="yes"/>
      <point x="104" y="165"/>
      <point x="278" y="-12"/>
    </contour>
    <contour>
      <point x="502" y="30" type="curve" smooth="yes"/>
      <point x="303" y="30"/>
      <point x="150" y="186"/>
      <point x="150" y="394" type="curve" smooth="yes"/>
      <point x="150" y="643"/>
      <point x="370" y="870"/>
      <point x="605" y="870" type="curve" smooth="yes"/>
      <point x="802" y="870"/>
      <point x="957" y="712"/>
      <point x="957" y="504" type="curve" smooth="yes"/>
      <point x="957" y="256"/>
      <point x="736" y="30"/>
    </contour>
  </outline>
</glyph>
<glyph name="oe" format="2">
  <advance width="1250"/>
  <unicode hex="0153"/>
  <anchor x="612" y="0" name="bottom"/>
  <anchor x="675" y="570" name="top"/>
  <outline>
    <contour>
      <point x="330" y="-12" type="curve" smooth="yes"/>
      <point x="456" y="-12"/>
      <point x="572" y="67"/>
      <point x="629" y="174" type="curve"/>
      <point x="664" y="64"/>
      <point x="766" y="-12"/>
      <point x="893" y="-12" type="curve" smooth="yes"/>
      <point x="976" y="-12"/>
      <point x="1053" y="20"/>
      <point x="1113" y="79" type="curve"/>
      <point x="1113" y="134" type="line"/>
      <point x="1059" y="67"/>
      <point x="980" y="28"/>
      <point x="896" y="28" type="curve" smooth="yes"/>
      <point x="750" y="28"/>
      <point x="644" y="147"/>
      <point x="659" y="295" type="curve"/>
      <point x="685" y="292"/>
      <point x="710" y="291"/>
      <point x="737" y="291" type="curve" smooth="yes"/>
      <point x="1187" y="291" type="line"/>
      <point x="1190" y="303" type="line" smooth="yes"/>
      <point x="1227" y="450"/>
      <point x="1112" y="582"/>
      <point x="948" y="582" type="curve" smooth="yes"/>
      <point x="820" y="582"/>
      <point x="707" y="510"/>
      <point x="652" y="406" type="curve"/>
      <point x="617" y="510"/>
      <point x="520" y="582"/>
      <point x="402" y="582" type="curve" smooth="yes"/>
      <point x="225" y="582"/>
      <point x="66" y="426"/>
      <point x="66" y="251" type="curve" smooth="yes"/>
      <point x="66" y="102"/>
      <point x="181" y="-12"/>
    </contour>
    <contour>
      <point x="334" y="28" type="curve" smooth="yes"/>
      <point x="206" y="28"/>
      <point x="108" y="127"/>
      <point x="108" y="255" type="curve" smooth="yes"/>
      <point x="108" y="406"/>
      <point x="245" y="542"/>
      <point x="398" y="542" type="curve" smooth="yes"/>
      <point x="526" y="542"/>
      <point x="624" y="443"/>
      <point x="624" y="315" type="curve" smooth="yes"/>
      <point x="624" y="164"/>
      <point x="487" y="28"/>
    </contour>
    <contour>
      <point x="665" y="323" type="curve"/>
      <point x="694" y="450"/>
      <point x="810" y="542"/>
      <point x="944" y="542" type="curve" smooth="yes"/>
      <point x="1078" y="542"/>
      <point x="1174" y="442"/>
      <point x="1153" y="323" type="curve"/>
      <point x="1125" y="326"/>
      <point x="1104" y="327"/>
      <point x="1077" y="327" type="curve" smooth="yes"/>
      <point x="738" y="327" type="line" smooth="yes"/>
      <point x="711" y="327"/>
      <point x="686" y="326"/>
    </contour>
  </outline>
</glyph>
<glyph name="Scedilla" format="2">
  <advance width="640"/>
  <unicode hex="015E"/>
  <outline>
    <contour>
      <point x="81" y="-180" type="line"/>
      <point x="133" y="-180" type="line"/>
      <point x="280" y="-12" type="line"/>
      <point x="431" y="-6"/>
      <point x="550" y="109"/>
      <point x="550" y="251" type="curve" smooth="yes"/>
      <point x="550" y="334"/>
      <point x="510" y="407"/>
      <point x="435" y="461" type="curve" smooth="yes"/>
      <point x="332" y="535" type="line" smooth="yes"/>
      <point x="275" y="576"/>
      <point x="246" y="627"/>
      <point x="246" y="684" type="curve" smooth="yes"/>
      <point x="246" y="786"/>
      <point x="338" y="873"/>
      <point x="444" y="873" type="curve" smooth="yes"/>
      <point x="515" y="873"/>
      <point x="585" y="834"/>
      <point x="625" y="771" type="curve"/>
      <point x="648" y="818" type="line"/>
      <point x="600" y="876"/>
      <point x="524" y="912"/>
      <point x="447" y="912" type="curve" smooth="yes"/>
      <point x="316" y="912"/>
      <point x="203" y="805"/>
      <point x="203" y="681" type="curve" smooth="yes"/>
      <point x="203" y="611"/>
      <point x="239" y="545"/>
      <point x="302" y="500" type="curve" smooth="yes"/>
      <point x="406" y="426" type="line" smooth="yes"/>
      <point x="472" y="379"/>
      <point x="507" y="319"/>
      <point x="507" y="250" type="curve" smooth="yes"/>
      <point x="507" y="127"/>
      <point x="401" y="27"/>
      <point x="271" y="27" type="curve" smooth="yes"/>
      <point x="181" y="27"/>
      <point x="100" y="75"/>
      <point x="57" y="153" type="curve"/>
      <point x="34" y="106" type="line"/>
      <point x="82" y="38"/>
      <point x="156" y="-3"/>
      <point x="240" y="-11" type="curve"/>
    </contour>
  </outline>
</glyph>
<glyph name="scedilla" format="2">
  <advance width="490"/>
  <unicode hex="015F"/>
  <outline>
    <contour>
      <point x="-4" y="-180" type="line"/>
      <point x="50" y="-180" type="line"/>
      <point x="205" y="-12" type="line"/>
      <point x="305" y="-6"/>
      <point x="378" y="72"/>
      <point x="378" y="160" type="curve" smooth="yes"/>
      <point x="378" y="216"/>
      <point x="350" y="260"/>
      <point x="293" y="294" type="curve" smooth="yes"/>
      <point x="223" y="336" type="line" smooth="yes"/>
      <point x="183" y="360"/>
      <point x="165" y="392"/>
      <point x="165" y="428" type="curve" smooth="yes"/>
      <point x="165" y="492"/>
      <point x="221" y="545"/>
      <point x="291" y="545" type="curve" smooth="yes"/>
      <point x="345" y="545"/>
      <point x="392" y="514"/>
      <point x="415" y="468" type="curve"/>
      <point x="439" y="514" type="line"/>
      <point x="403" y="558"/>
      <point x="350" y="582"/>
      <point x="296" y="582" type="curve" smooth="yes"/>
      <point x="199" y="582"/>
      <point x="124" y="504"/>
      <point x="124" y="420" type="curve" smooth="yes"/>
      <point x="124" y="374"/>
      <point x="147" y="333"/>
      <point x="198" y="303" type="curve" smooth="yes"/>
      <point x="268" y="261" type="line" smooth="yes"/>
      <point x="316" y="232"/>
      <point x="337" y="197"/>
      <point x="337" y="155" type="curve" smooth="yes"/>
      <point x="337" y="85"/>
      <point x="280" y="25"/>
      <point x="197" y="25" type="curve" smooth="yes"/>
      <point x="129" y="25"/>
      <point x="73" y="65"/>
      <point x="47" y="121" type="curve"/>
      <point x="23" y="75" type="line"/>
      <point x="55" y="30"/>
      <point x="105" y="-2"/>
      <point x="164" y="-10" type="curve"/>
    </contour>
  </outline>
</glyph>
<glyph name="Tcedilla" format="2">
  <advance width="670"/>
  <unicode hex="0162"/>
  <outline>
    <contour>
      <point x="61" y="-180" type="line"/>
      <point x="115" y="-180" type="line"/>
      <point x="282" y="0" type="line"/>
      <point x="497" y="860" type="line"/>
      <point x="756" y="860" type="line"/>
      <point x="766" y="900" type="line"/>
      <point x="204" y="900" type="line"/>
      <point x="194" y="860" type="line"/>
      <point x="453" y="860" type="line"/>
      <point x="238" y="0" type="line"/>
    </contour>
  </outline>
</glyph>
<glyph name="tcedilla" format="2">
  <advance width="450"/>
  <unicode hex="0163"/>
  <outline>
    <contour>
      <point x="-53" y="-180" type="line"/>
      <point x="1" y="-180" type="line"/>
      <point x="167" y="0" type="line"/>
      <point x="301" y="534" type="line"/>
      <point x="473" y="534" type="line"/>
      <point x="482" y="570" type="line"/>
      <point x="310" y="570" type="line"/>
      <point x="368" y="800" type="line"/>
      <point x="326" y="800" type="line"/>
      <point x="268" y="570" type="line"/>
      <point x="104" y="570" type="line"/>
      <point x="95" y="534" type="line"/>
      <point x="259" y="534" type="line"/>
      <point x="125" y="0" type="line"/>
    </contour>
  </outline>
</glyph>
<glyph name="Tbar" format="2">
  <advance width="670"/>
  <unicode hex="0166"/>
  <outline>
    <contour>
      <point x="238" y="0" type="line"/>
      <point x="282" y="0" type="line"/>
      <point x="398" y="462" type="line"/>
      <point x="592" y="462" type="line"/>
      <point x="600" y="498" type="line"/>
      <point x="407" y="498" type="line"/>
      <point x="497" y="860" type="line"/>
      <point x="756" y="860" type="line"/>
      <point x="766" y="900" type="line"/>
      <point x="204" y="900" type="line"/>
      <point x="194" y="860" type="line"/>
      <point x="453" y="860" type="line"/>
      <point x="363" y="498" type="line"/>
      <point x="168" y="498" type="line"/>
      <point x="160" y="462" type="line"/>
      <point x="354" y="462" type="line"/>
    </contour>
  </outline>
</glyph>
<glyph name="tbar" format="2">
  <advance width="450"/>
  <unicode hex="0167"/>
  <outline>
    <contour>
      <point x="125" y="0" type="line"/>
      <point x="167" y="0" type="line"/>
      <point x="234" y="268" type="line"/>
      <point x="393" y="268" type="line"/>
      <point x="402" y="302" type="line"/>
      <point x="243" y="302" type="line"/>
      <point x="301" y="534" type="line"/>
      <point x="473" y="534" type="line"/>
      <point x="482" y="570" type="line"/>
      <point x="310" y="570" type="line"/>
      <point x="368" y="800" type="line"/>
      <point x="326" y="800" type="line"/>
      <point x="268" y="570" type="line"/>
      <point x="104" y="570" type="line"/>
      <point x="95" y="534" type="line"/>
      <point x="259" y="534" type="line"/>
      <point x="201" y="302" type="line"/>
      <point x="43" y="302" type="line"/>
      <point x="34" y="268" type="line"/>
      <point x="192" y="268" type="line"/>
    </contour>
  </outline>
</glyph>
<glyph name="Uogonek" format="2">
  <advance width="760"/>
  <unicode hex="0172"/>
  <outline>
    <contour>
      <point x="319" y="-282" type="curve"/>
      <point x="338" y="-246" type="line"/>
      <point x="285" y="-238"/>
      <point x="255" y="-209"/>
      <point x="255" y="-165" type="curve" smooth="yes"/>
      <point x="255" y="-119"/>
      <point x="284" y="-66"/>
      <point x="338" y="-9" type="curve"/>
      <point x="488" y="-9"/>
      <point x="596" y="81"/>
      <point x="638" y="248" type="curve" smooth="yes"/>
      <point x="801" y="900" type="line"/>
      <point x="759" y="900" type="line"/>
      <point x="596" y="248" type="line" smooth="yes"/>
      <point x="560" y="104"/>
      <point x="469" y="30"/>
      <point x="341" y="30" type="curve" smooth="yes"/>
      <point x="175" y="30"/>
      <point x="117" y="156"/>
      <point x="155" y="308" type="curve" smooth="yes"/>
      <point x="303" y="900" type="line"/>
      <point x="259" y="900" type="line"/>
      <point x="111" y="308" type="line" smooth="yes"/>
      <point x="72" y="152"/>
      <point x="139" y="14"/>
      <point x="298" y="-6" type="curve"/>
      <point x="245" y="-58"/>
      <point x="213" y="-121"/>
      <point x="213" y="-171" type="curve" smooth="yes"/>
      <point x="213" y="-230"/>
      <point x="254" y="-274"/>
    </contour>
  </outline>
</glyph>
<glyph name="uogonek" format="2">
  <advance width="700"/>
  <unicode hex="0173"/>
  <outline>
    <contour>
      <point x="489" y="-282" type="curve"/>
      <point x="508" y="-246" type="line"/>
      <point x="455" y="-238"/>
      <point x="425" y="-209"/>
      <point x="425" y="-165" type="curve" smooth="yes"/>
      <point x="425" y="-117"/>
      <point x="457" y="-60"/>
      <point x="515" y="0" type="curve"/>
      <point x="658" y="570" type="line"/>
      <point x="616" y="570" type="line"/>
      <point x="528" y="225" type="line" smooth="yes"/>
      <point x="499" y="111"/>
      <point x="401" y="29"/>
      <point x="294" y="29" type="curve" smooth="yes"/>
      <point x="163" y="29"/>
      <point x="95" y="131"/>
      <point x="131" y="274" type="curve" smooth="yes"/>
      <point x="206" y="570" type="line"/>
      <point x="164" y="570" type="line"/>
      <point x="89" y="273" type="line" smooth="yes"/>
      <point x="49" y="114"/>
      <point x="135" y="-10"/>
      <point x="284" y="-10" type="curve" smooth="yes"/>
      <point x="368" y="-10"/>
      <point x="451" y="34"/>
      <point x="504" y="107" type="curve"/>
      <point x="477" y="0" type="line"/>
      <point x="422" y="-53"/>
      <point x="383" y="-118"/>
      <point x="383" y="-173" type="curve" smooth="yes"/>
      <point x="383" y="-229"/>
      <point x="424" y="-274"/>
    </contour>
  </outline>
</glyph>
<glyph name="Schwa" format="2">
  <advance width="1050"/>
  <unicode hex="018F"/>
  <outline>
    <contour>
      <point x="502" y="-12" type="curve" smooth="yes"/>
      <point x="766" y="-12"/>
      <point x="1011" y="235"/>
      <point x="1011" y="506" type="curve" smooth="yes"/>
      <point x="1011" y="736"/>
      <point x="835" y="912"/>
      <point x="613" y="912" type="curve" smooth="yes"/>
      <point x="497" y="912"/>
      <point x="381" y="865"/>
      <point x="290" y="781" type="curve"/>
      <point x="290" y="722" type="line"/>
      <point x="379" y="817"/>
      <point x="495" y="870"/>
      <point x="610" y="870" type="curve" smooth="yes"/>
      <point x="821" y="870"/>
      <point x="979" y="693"/>
      <point x="964" y="475" type="curve"/>
      <point x="925" y="478"/>
      <point x="888" y="480"/>
      <point x="851" y="480" type="curve" smooth="yes"/>
      <point x="113" y="480" type="line"/>
      <point x="112" y="473"/>
      <point x="110" y="466"/>
      <point x="109" y="459" type="curve" smooth="yes"/>
      <point x="63" y="217"/>
      <point x="248" y="-12"/>
    </contour>
    <contour>
      <point x="503" y="30" type="curve" smooth="yes"/>
      <point x="289" y="30"/>
      <point x="124" y="211"/>
      <point x="152" y="438" type="curve"/>
      <point x="851" y="438" type="line" smooth="yes"/>
      <point x="887" y="438"/>
      <point x="924" y="439"/>
      <point x="960" y="443" type="curve"/>
      <point x="927" y="218"/>
      <point x="722" y="30"/>
    </contour>
  </outline>
</glyph>
<glyph name="florin" format="2">
  <advance width="750"/>
  <unicode hex="0192"/>
  <outline>
    <contour>
      <point x="123" y="-192" type="curve" smooth="yes"/>
      <point x="214" y="-192"/>
      <point x="291" y="-121"/>
      <point x="318" y="-14" type="curve" smooth="yes"/>
      <point x="429" y="432" type="line"/>
      <point x="653" y="432" type="line"/>
      <point x="661" y="468" type="line"/>
      <point x="438" y="468" type="line"/>
      <point x="502" y="724" type="line" smooth="yes"/>
      <point x="526" y="820"/>
      <point x="580" y="873"/>
      <point x="653" y="873" type="curve" smooth="yes"/>
      <point x="692" y="873"/>
      <point x="726" y="858"/>
      <point x="756" y="827" type="curve"/>
      <point x="775" y="865" type="line"/>
      <point x="745" y="894"/>
      <point x="702" y="911"/>
      <point x="658" y="911" type="curve" smooth="yes"/>
      <point x="567" y="911"/>
      <point x="489" y="840"/>
      <point x="462" y="733" type="curve" smooth="yes"/>
      <point x="396" y="468" type="line"/>
      <point x="171" y="468" type="line"/>
      <point x="163" y="432" type="line"/>
      <point x="387" y="432" type="line"/>
      <point x="278" y="-5" type="line" smooth="yes"/>
      <point x="254" y="-101"/>
      <point x="201" y="-154"/>
      <point x="128" y="-154" type="curve" smooth="yes"/>
      <point x="89" y="-154"/>
      <point x="55" y="-139"/>
      <point x="25" y="-108" type="curve"/>
      <point x="6" y="-146" type="line"/>
      <point x="36" y="-175"/>
      <point x="79" y="-192"/>
    </contour>
  </outline>
</glyph>
<glyph name="Ohorn" format="2">
  <advance width="1040"/>
  <unicode hex="01A0"/>
  <anchor x="445" y="0" name="bottom"/>
  <anchor x="670" y="900" name="top"/>
  <outline>
    <contour>
      <point x="503" y="-12" type="curve" smooth="yes"/>
      <point x="765" y="-12"/>
      <point x="1011" y="235"/>
      <point x="1011" y="506" type="curve" smooth="yes"/>
      <point x="1011" y="586"/>
      <point x="990" y="659"/>
      <point x="953" y="721" type="curve"/>
      <point x="1033" y="732"/>
      <point x="1095" y="810"/>
      <point x="1095" y="909" type="curve" smooth="yes"/>
      <point x="1095" y="927"/>
      <point x="1093" y="944"/>
      <point x="1089" y="960" type="curve"/>
      <point x="1048" y="960" type="line"/>
      <point x="1054" y="943"/>
      <point x="1057" y="927"/>
      <point x="1057" y="908" type="curve" smooth="yes"/>
      <point x="1057" y="824"/>
      <point x="1001" y="756"/>
      <point x="930" y="755" type="curve"/>
      <point x="858" y="851"/>
      <point x="743" y="912"/>
      <point x="613" y="912" type="curve" smooth="yes"/>
      <point x="349" y="912"/>
      <point x="104" y="665"/>
      <point x="104" y="395" type="curve" smooth="yes"/>
      <point x="104" y="165"/>
      <point x="280" y="-12"/>
    </contour>
    <contour>
      <point x="505" y="30" type="curve" smooth="yes"/>
      <point x="305" y="30"/>
      <point x="150" y="186"/>
      <point x="150" y="394" type="curve" smooth="yes"/>
      <point x="150" y="643"/>
      <point x="372" y="870"/>
      <point x="610" y="870" type="curve" smooth="yes"/>
      <point x="808" y="870"/>
      <point x="965" y="712"/>
      <point x="965" y="504" type="curve" smooth="yes"/>
      <point x="965" y="256"/>
      <point x="742" y="30"/>
    </contour>
  </outline>
</glyph>
<glyph name="ohorn" format="2">
  <advance width="750"/>
  <unicode hex="01A1"/>
  <anchor x="375" y="0" name="bottom"/>
  <anchor x="375" y="570" name="top"/>
  <outline>
    <contour>
      <point x="320" y="-12" type="curve" smooth="yes"/>
      <point x="497" y="-12"/>
      <point x="656" y="144"/>
      <point x="656" y="319" type="curve" smooth="yes"/>
      <point x="656" y="355"/>
      <point x="649" y="389"/>
      <point x="637" y="420" type="curve"/>
      <point x="718" y="429"/>
      <point x="783" y="508"/>
      <point x="783" y="609" type="curve" smooth="yes"/>
      <point x="783" y="627"/>
      <point x="781" y="644"/>
      <point x="777" y="660" type="curve"/>
      <point x="736" y="660" type="line"/>
      <point x="742" y="643"/>
      <point x="745" y="627"/>
      <point x="745" y="608" type="curve" smooth="yes"/>
      <point x="745" y="523"/>
      <point x="688" y="455"/>
      <point x="620" y="455" type="curve"/>
      <point x="574" y="532"/>
      <point x="491" y="582"/>
      <point x="392" y="582" type="curve" smooth="yes"/>
      <point x="215" y="582"/>
      <point x="56" y="426"/>
      <point x="56" y="251" type="curve" smooth="yes"/>
      <point x="56" y="102"/>
      <point x="171" y="-12"/>
    </contour>
    <contour>
      <point x="324" y="28" type="curve" smooth="yes"/>
      <point x="196" y="28"/>
      <point x="98" y="127"/>
      <point x="98" y="255" type="curve" smooth="yes"/>
      <point x="98" y="406"/>
      <point x="235" y="542"/>
      <point x="388" y="542" type="curve" smooth="yes"/>
      <point x="516" y="542"/>
      <point x="614" y="443"/>
      <point x="614" y="315" type="curve" smooth="yes"/>
      <point x="614" y="164"/>
      <point x="477" y="28"/>
    </contour>
  </outline>
</glyph>
<glyph name="Uhorn" format="2">
  <advance width="850"/>
  <unicode hex="01AF"/>
  <anchor x="305" y="0" name="bottom"/>
  <anchor x="530" y="900" name="top"/>
  <outline>
    <contour>
      <point x="340" y="-9" type="curve" smooth="yes"/>
      <point x="488" y="-9"/>
      <point x="596" y="81"/>
      <point x="638" y="248" type="curve" smooth="yes"/>
      <point x="757" y="725" type="line"/>
      <point x="772" y="721"/>
      <point x="788" y="719"/>
      <point x="806" y="719" type="curve" smooth="yes"/>
      <point x="896" y="719"/>
      <point x="969" y="802"/>
      <point x="969" y="909" type="curve" smooth="yes"/>
      <point x="969" y="927"/>
      <point x="967" y="944"/>
      <point x="963" y="960" type="curve"/>
      <point x="922" y="960" type="line"/>
      <point x="928" y="943"/>
      <point x="931" y="927"/>
      <point x="931" y="908" type="curve" smooth="yes"/>
      <point x="931" y="823"/>
      <point x="874" y="755"/>
      <point x="808" y="755" type="curve" smooth="yes"/>
      <point x="791" y="755"/>
      <point x="774" y="758"/>
      <point x="764" y="761" type="curve"/>
      <point x="799" y="900" type="line"/>
      <point x="759" y="900" type="line"/>
      <point x="596" y="248" type="line" smooth="yes"/>
      <point x="560" y="104"/>
      <point x="469" y="30"/>
      <point x="341" y="30" type="curve" smooth="yes"/>
      <point x="175" y="30"/>
      <point x="117" y="156"/>
      <point x="155" y="308" type="curve" smooth="yes"/>
      <point x="303" y="900" type="line"/>
      <point x="259" y="900" type="line"/>
      <point x="111" y="308" type="line" smooth="yes"/>
      <point x="69" y="139"/>
      <point x="151" y="-9"/>
    </contour>
  </outline>
</glyph>
<glyph name="uhorn" format="2">
  <advance width="790"/>
  <unicode hex="01B0"/>
  <anchor x="286" y="0" name="bottom"/>
  <anchor x="411" y="570" name="top"/>
  <outline>
    <contour>
      <point x="282" y="-10" type="curve" smooth="yes"/>
      <point x="368" y="-10"/>
      <point x="450" y="33"/>
      <point x="504" y="107" type="curve"/>
      <point x="477" y="0" type="line"/>
      <point x="515" y="0" type="line"/>
      <point x="621" y="423" type="line"/>
      <point x="633" y="420"/>
      <point x="646" y="419"/>
      <point x="660" y="419" type="curve" smooth="yes"/>
      <point x="750" y="419"/>
      <point x="823" y="502"/>
      <point x="823" y="609" type="curve" smooth="yes"/>
      <point x="823" y="627"/>
      <point x="821" y="644"/>
      <point x="817" y="660" type="curve"/>
      <point x="776" y="660" type="line"/>
      <point x="782" y="643"/>
      <point x="785" y="627"/>
      <point x="785" y="608" type="curve" smooth="yes"/>
      <point x="785" y="523"/>
      <point x="728" y="455"/>
      <point x="662" y="455" type="curve" smooth="yes"/>
      <point x="650" y="455"/>
      <point x="638" y="456"/>
      <point x="628" y="458" type="curve"/>
      <point x="656" y="570" type="line"/>
      <point x="616" y="570" type="line"/>
      <point x="528" y="225" type="line" smooth="yes"/>
      <point x="499" y="111"/>
      <point x="403" y="29"/>
      <point x="290" y="29" type="curve" smooth="yes"/>
      <point x="165" y="29"/>
      <point x="95" y="131"/>
      <point x="131" y="274" type="curve" smooth="yes"/>
      <point x="206" y="570" type="line"/>
      <point x="164" y="570" type="line"/>
      <point x="89" y="273" type="line" smooth="yes"/>
      <point x="49" y="114"/>
      <point x="136" y="-10"/>
    </contour>
  </outline>
</glyph>
<glyph name="Ezh" format="2">
  <advance width="660"/>
  <unicode hex="01B7"/>
  <anchor x="255" y="0" name="bottom"/>
  <anchor x="480" y="900" name="top"/>
  <outline>
    <contour>
      <point x="252" y="-12" type="curve" smooth="yes"/>
      <point x="428" y="-12"/>
      <point x="594" y="145"/>
      <point x="594" y="323" type="curve" smooth="yes"/>
      <point x="594" y="443"/>
      <point x="519" y="544"/>
      <point x="399" y="574" type="curve"/>
      <point x="669" y="898" type="line"/>
      <point x="669" y="900" type="line"/>
      <point x="249" y="900" type="line"/>
      <point x="239" y="862" type="line"/>
      <point x="589" y="862" type="line"/>
      <point x="326" y="540" type="line"/>
      <point x="327" y="538" type="line"/>
      <point x="333" y="541"/>
      <point x="341" y="542"/>
      <point x="351" y="542" type="curve" smooth="yes"/>
      <point x="440" y="542"/>
      <point x="550" y="461"/>
      <point x="550" y="322" type="curve" smooth="yes"/>
      <point x="550" y="164"/>
      <point x="407" y="28"/>
      <point x="256" y="28" type="curve" smooth="yes"/>
      <point x="154" y="28"/>
      <point x="69" y="90"/>
      <point x="37" y="189" type="curve"/>
      <point x="4" y="149" type="line"/>
      <point x="48" y="51"/>
      <point x="140" y="-12"/>
    </contour>
  </outline>
</glyph>
<glyph name="Gstroke" format="2">
  <advance width="940"/>
  <unicode hex="01E4"/>
  <outline>
    <contour>
      <point x="505" y="-12" type="curve" smooth="yes"/>
      <point x="600" y="-12"/>
      <point x="695" y="19"/>
      <point x="776" y="77" type="curve"/>
      <point x="842" y="342" type="line"/>
      <point x="933" y="342" type="line"/>
      <point x="941" y="378" type="line"/>
      <point x="851" y="378" type="line"/>
      <point x="892" y="540" type="line"/>
      <point x="849" y="540" type="line"/>
      <point x="809" y="378" type="line"/>
      <point x="521" y="378" type="line"/>
      <point x="513" y="342" type="line"/>
      <point x="800" y="342" type="line"/>
      <point x="742" y="105" type="line"/>
      <point x="669" y="56"/>
      <point x="588" y="30"/>
      <point x="505" y="30" type="curve" smooth="yes"/>
      <point x="304" y="30"/>
      <point x="150" y="187"/>
      <point x="150" y="394" type="curve" smooth="yes"/>
      <point x="150" y="642"/>
      <point x="371" y="870"/>
      <point x="610" y="870" type="curve" smooth="yes"/>
      <point x="727" y="870"/>
      <point x="833" y="815"/>
      <point x="901" y="719" type="curve"/>
      <point x="923" y="765" type="line"/>
      <point x="846" y="859"/>
      <point x="735" y="912"/>
      <point x="613" y="912" type="curve" smooth="yes"/>
      <point x="348" y="912"/>
      <point x="104" y="664"/>
      <point x="104" y="395" type="curve" smooth="yes"/>
      <point x="104" y="166"/>
      <point x="279" y="-12"/>
    </contour>
  </outline>
</glyph>
<glyph name="Oogonek" format="2">
  <advance width="1040"/>
  <unicode hex="01EA"/>
  <anchor x="667" y="900" name="top"/>
  <outline>
    <contour>
      <point x="482" y="-282" type="curve"/>
      <point x="501" y="-246" type="line"/>
      <point x="448" y="-238"/>
      <point x="418" y="-209"/>
      <point x="418" y="-165" type="curve" smooth="yes"/>
      <point x="418" y="-120"/>
      <point x="446" y="-68"/>
      <point x="498" y="-12" type="curve"/>
      <point x="765" y="-12"/>
      <point x="1011" y="235"/>
      <point x="1011" y="506" type="curve" smooth="yes"/>
      <point x="1011" y="736"/>
      <point x="835" y="912"/>
      <point x="613" y="912" type="curve" smooth="yes"/>
      <point x="349" y="912"/>
      <point x="104" y="665"/>
      <point x="104" y="395" type="curve" smooth="yes"/>
      <point x="104" y="181"/>
      <point x="257" y="12"/>
      <point x="458" y="-10" type="curve"/>
      <point x="407" y="-61"/>
      <point x="376" y="-122"/>
      <point x="376" y="-171" type="curve" smooth="yes"/>
      <point x="376" y="-230"/>
      <point x="417" y="-274"/>
    </contour>
    <contour>
      <point x="505" y="30" type="curve" smooth="yes"/>
      <point x="305" y="30"/>
      <point x="150" y="186"/>
      <point x="150" y="394" type="curve" smooth="yes"/>
      <point x="150" y="643"/>
      <point x="372" y="870"/>
      <point x="610" y="870" type="curve" smooth="yes"/>
      <point x="808" y="870"/>
      <point x="965" y="712"/>
      <point x="965" y="504" type="curve" smooth="yes"/>
      <point x="965" y="256"/>
      <point x="742" y="30"/>
    </contour>
  </outline>
</glyph>
<glyph name="oogonek" format="2">
  <advance width="720"/>
  <unicode hex="01EB"/>
  <anchor x="427" y="570" name="top"/>
  <outline>
    <contour>
      <point x="336" y="-282" type="curve"/>
      <point x="355" y="-246" type="line"/>
      <point x="302" y="-238"/>
      <point x="272" y="-209"/>
      <point x="272" y="-165" type="curve" smooth="yes"/>
      <point x="272" y="-120"/>
      <point x="301" y="-66"/>
      <point x="354" y="-10" type="curve"/>
      <point x="517" y="8"/>
      <point x="656" y="155"/>
      <point x="656" y="319" type="curve" smooth="yes"/>
      <point x="656" y="468"/>
      <point x="541" y="582"/>
      <point x="392" y="582" type="curve" smooth="yes"/>
      <point x="215" y="582"/>
      <point x="56" y="426"/>
      <point x="56" y="251" type="curve" smooth="yes"/>
      <point x="56" y="105"/>
      <point x="166" y="-7"/>
      <point x="310" y="-12" type="curve"/>
      <point x="260" y="-63"/>
      <point x="230" y="-123"/>
      <point x="230" y="-171" type="curve" smooth="yes"/>
      <point x="230" y="-230"/>
      <point x="271" y="-274"/>
    </contour>
    <contour>
      <point x="324" y="28" type="curve" smooth="yes"/>
      <point x="196" y="28"/>
      <point x="98" y="127"/>
      <point x="98" y="255" type="curve" smooth="yes"/>
      <point x="98" y="406"/>
      <point x="235" y="542"/>
      <point x="388" y="542" type="curve" smooth="yes"/>
      <point x="516" y="542"/>
      <point x="614" y="443"/>
      <point x="614" y="315" type="curve" smooth="yes"/>
      <point x="614" y="164"/>
      <point x="477" y="28"/>
    </contour>
  </outline>
</glyph>
<glyph name="jdotless" format="2">
  <advance width="260"/>
  <unicode hex="0237"/>
  <anchor x="-16" y="-300" name="bottom"/>
  <anchor x="209" y="570" name="top"/>
  <outline>
    <contour>
      <point x="-128" y="-312" type="line"/>
      <point x="-45" y="-312"/>
      <point x="25" y="-254"/>
      <point x="51" y="-149" type="curve" smooth="yes"/>
      <point x="230" y="570" type="line"/>
      <point x="188" y="570" type="line"/>
      <point x="11" y="-141" type="line" smooth="yes"/>
      <point x="-16" y="-248"/>
      <point x="-75" y="-274"/>
      <point x="-128" y="-274" type="curve"/>
    </contour>
  </outline>
</glyph>
<glyph name="schwa" format="2">
  <advance width="690"/>
  <unicode hex="0259"/>
  <outline>
    <contour>
      <point x="294" y="-12" type="curve" smooth="yes"/>
      <point x="476" y="-12"/>
      <point x="626" y="133"/>
      <point x="626" y="309" type="curve" smooth="yes"/>
      <point x="626" y="465"/>
      <point x="507" y="582"/>
      <point x="349" y="582" type="curve" smooth="yes"/>
      <point x="266" y="582"/>
      <point x="189" y="550"/>
      <point x="129" y="491" type="curve"/>
      <point x="129" y="436" type="line"/>
      <point x="183" y="503"/>
      <point x="262" y="542"/>
      <point x="346" y="542" type="curve" smooth="yes"/>
      <point x="492" y="542"/>
      <point x="598" y="423"/>
      <point x="583" y="275" type="curve"/>
      <point x="557" y="278"/>
      <point x="532" y="279"/>
      <point x="505" y="279" type="curve" smooth="yes"/>
      <point x="55" y="279" type="line"/>
      <point x="52" y="267" type="line" smooth="yes"/>
      <point x="15" y="120"/>
      <point x="130" y="-12"/>
    </contour>
    <contour>
      <point x="298" y="28" type="curve" smooth="yes"/>
      <point x="164" y="28"/>
      <point x="68" y="128"/>
      <point x="89" y="247" type="curve"/>
      <point x="117" y="244"/>
      <point x="138" y="243"/>
      <point x="165" y="243" type="curve" smooth="yes"/>
      <point x="504" y="243" type="line" smooth="yes"/>
      <point x="531" y="243"/>
      <point x="556" y="244"/>
      <point x="577" y="247" type="curve"/>
      <point x="548" y="120"/>
      <point x="432" y="28"/>
    </contour>
  </outline>
</glyph>
<glyph name="ezh" format="2">
  <advance width="640"/>
  <unicode hex="0292"/>
  <anchor x="170" y="-300" name="bottom"/>
  <anchor x="359" y="570" name="top"/>
  <outline>
    <contour>
      <point x="156" y="-312" type="curve" smooth="yes"/>
      <point x="326" y="-312"/>
      <point x="487" y="-160"/>
      <point x="487" y="12" type="curve" smooth="yes"/>
      <point x="487" y="128"/>
      <point x="414" y="226"/>
      <point x="298" y="255" type="curve"/>
      <point x="559" y="568" type="line"/>
      <point x="559" y="570" type="line"/>
      <point x="158" y="570" type="line"/>
      <point x="148" y="532" type="line"/>
      <point x="482" y="532" type="line"/>
      <point x="229" y="224" type="line"/>
      <point x="230" y="222" type="line"/>
      <point x="236" y="223"/>
      <point x="244" y="224"/>
      <point x="252" y="224" type="curve" smooth="yes"/>
      <point x="338" y="224"/>
      <point x="445" y="145"/>
      <point x="445" y="11" type="curve" smooth="yes"/>
      <point x="445" y="-142"/>
      <point x="306" y="-272"/>
      <point x="160" y="-272" type="curve" smooth="yes"/>
      <point x="61" y="-272"/>
      <point x="-21" y="-213"/>
      <point x="-52" y="-118" type="curve"/>
      <point x="-84" y="-156" type="line"/>
      <point x="-42" y="-251"/>
      <point x="47" y="-312"/>
    </contour>
  </outline>
</glyph>
<glyph name="acutecomb" format="2">
  <unicode hex="0301"/>
  <anchor x="374" y="570" name="_top"/>
  <anchor x="539" y="828" name="top"/>
  <outline>
    <contour>
      <point x="380" y="672" type="line"/>
      <point x="418" y="672" type="line"/>
      <point x="564" y="828" type="line"/>
      <point x="514" y="828" type="line"/>
    </contour>
  </outline>
</glyph>
<glyph name="circumflexcomb" format="2">
  <unicode hex="0302"/>
  <anchor x="427" y="570" name="_top"/>
  <anchor x="494" y="840" name="top"/>
  <outline>
    <contour>
      <point x="315" y="672" type="line"/>
      <point x="357" y="672" type="line"/>
      <point x="401" y="712"/>
      <point x="445" y="753"/>
      <point x="486" y="793" type="curve"/>
      <point x="507" y="753"/>
      <point x="529" y="712"/>
      <point x="555" y="672" type="curve"/>
      <point x="591" y="672" type="line"/>
      <point x="497" y="846" type="line"/>
      <point x="495" y="846" type="line"/>
    </contour>
  </outline>
</glyph>
<glyph name="macroncomb" format="2">
  <unicode hex="0304"/>
  <anchor x="427" y="570" name="_top"/>
  <anchor x="477" y="767" name="top"/>
  <outline>
    <contour>
      <point x="297" y="733" type="line"/>
      <point x="639" y="733" type="line"/>
      <point x="647" y="767" type="line"/>
      <point x="305" y="767" type="line"/>
    </contour>
  </outline>
</glyph>
<glyph name="brevecomb" format="2">
  <unicode hex="0306"/>
  <anchor x="427" y="570" name="_top"/>
  <anchor x="488" y="810" name="top"/>
  <outline>
    <contour>
      <point x="467" y="662" type="curve" smooth="yes"/>
      <point x="551" y="662"/>
      <point x="615" y="728"/>
      <point x="633" y="810" type="curve"/>
      <point x="599" y="810" type="line"/>
      <point x="582" y="743"/>
      <point x="534" y="694"/>
      <point x="469" y="694" type="curve" smooth="yes"/>
      <point x="399" y="694"/>
      <point x="362" y="749"/>
      <point x="372" y="810" type="curve"/>
      <point x="339" y="810" type="line"/>
      <point x="326" y="737"/>
      <point x="378" y="662"/>
    </contour>
  </outline>
</glyph>
<glyph name="dotaccentcomb" format="2">
  <unicode hex="0307"/>
  <anchor x="427" y="570" name="_top"/>
  <anchor x="482" y="786" name="top"/>
  <outline>
    <contour>
      <point x="469" y="714" type="curve" smooth="yes"/>
      <point x="490" y="714"/>
      <point x="509" y="733"/>
      <point x="509" y="755" type="curve" smooth="yes"/>
      <point x="509" y="773"/>
      <point x="494" y="786"/>
      <point x="477" y="786" type="curve" smooth="yes"/>
      <point x="456" y="786"/>
      <point x="437" y="767"/>
      <point x="437" y="745" type="curve" smooth="yes"/>
      <point x="437" y="728"/>
      <point x="450" y="714"/>
    </contour>
  </outline>
</glyph>
<glyph name="hookabovecomb" format="2">
  <unicode hex="0309"/>
  <anchor x="427" y="570" name="_top"/>
  <anchor x="499" y="855" name="top"/>
  <outline>
    <contour>
      <point x="433" y="660" type="curve"/>
      <point x="481" y="660" type="line"/>
      <point x="521" y="688"/>
      <point x="559" y="725"/>
      <point x="559" y="773" type="curve" smooth="yes"/>
      <point x="559" y="820"/>
      <point x="521" y="855"/>
      <point x="459" y="855" type="curve" smooth="yes"/>
      <point x="431" y="855"/>
      <point x="403" y="847"/>
      <point x="377" y="834" type="curve"/>
      <point x="377" y="798" type="line"/>
      <point x="401" y="814"/>
      <point x="425" y="823"/>
      <point x="454" y="823" type="curve" smooth="yes"/>
      <point x="498" y="823"/>
      <point x="525" y="803"/>
      <point x="525" y="769" type="curve" smooth="yes"/>
      <point x="525" y="724"/>
      <point x="473" y="686"/>
    </contour>
  </outline>
</glyph>
<glyph name="hungarumlautcomb" format="2">
  <unicode hex="030B"/>
  <anchor x="374" y="570" name="_top"/>
  <anchor x="539" y="828" name="top"/>
  <outline>
    <contour>
      <point x="462" y="672" type="line"/>
      <point x="496" y="672" type="line"/>
      <point x="642" y="828" type="line"/>
      <point x="596" y="828" type="line"/>
    </contour>
    <contour>
      <point x="302" y="672" type="line"/>
      <point x="336" y="672" type="line"/>
      <point x="482" y="828" type="line"/>
      <point x="436" y="828" type="line"/>
    </contour>
  </outline>
</glyph>
<glyph name="caroncomb" format="2">
  <unicode hex="030C"/>
  <anchor x="427" y="570" name="_top"/>
  <anchor x="494" y="840" name="top"/>
  <outline>
    <contour>
      <point x="447" y="654" type="line"/>
      <point x="449" y="654" type="line"/>
      <point x="628" y="828" type="line"/>
      <point x="586" y="828" type="line"/>
      <point x="542" y="788"/>
      <point x="498" y="747"/>
      <point x="457" y="707" type="curve"/>
      <point x="436" y="747"/>
      <point x="414" y="788"/>
      <point x="388" y="828" type="curve"/>
      <point x="352" y="828" type="line"/>
    </contour>
  </outline>
</glyph>
<glyph name="dblgravecomb" format="2">
  <unicode hex="030F"/>
  <anchor x="513" y="570" name="_top"/>
  <anchor x="442" y="846" name="top"/>
  <outline>
    <contour>
      <point x="572" y="672" type="line"/>
      <point x="602" y="672" type="line"/>
      <point x="537" y="846" type="line"/>
      <point x="495" y="846" type="line"/>
    </contour>
    <contour>
      <point x="424" y="672" type="line"/>
      <point x="454" y="672" type="line"/>
      <point x="389" y="846" type="line"/>
      <point x="347" y="846" type="line"/>
    </contour>
  </outline>
</glyph>
<glyph name="breveinvertedcomb" format="2">
  <unicode hex="0311"/>
  <anchor x="427" y="570" name="_top"/>
  <anchor x="488" y="810" name="top"/>
  <outline>
    <contour>
      <point x="305" y="672" type="curve"/>
      <point x="339" y="672" type="line"/>
      <point x="356" y="739"/>
      <point x="404" y="788"/>
      <point x="469" y="788" type="curve" smooth="yes"/>
      <point x="539" y="788"/>
      <point x="576" y="733"/>
      <point x="566" y="672" type="curve"/>
      <point x="599" y="672" type="line"/>
      <point x="612" y="745"/>
      <point x="560" y="820"/>
      <point x="471" y="820" type="curve" smooth="yes"/>
      <point x="387" y="820"/>
      <point x="323" y="754"/>
    </contour>
  </outline>
</glyph>
<glyph name="commaturnedabovecomb" format="2">
  <unicode hex="0312"/>
  <anchor x="435" y="600" name="_top"/>
  <anchor x="533" y="930" name="top"/>
  <outline>
    <contour>
      <point x="443" y="732" type="curve"/>
      <point x="489" y="732" type="line"/>
      <point x="516" y="812"/>
      <point x="568" y="877"/>
      <point x="624" y="930" type="curve"/>
      <point x="568" y="930" type="line"/>
      <point x="516" y="872"/>
      <point x="467" y="806"/>
    </contour>
  </outline>
</glyph>
<glyph name="horncomb" format="2">
  <unicode hex="031B"/>
  <anchor x="337" y="600" name="_topright"/>
  <outline>
    <contour>
      <point x="342" y="419" type="curve" smooth="yes"/>
      <point x="432" y="419"/>
      <point x="505" y="502"/>
      <point x="505" y="609" type="curve" smooth="yes"/>
      <point x="505" y="627"/>
      <point x="503" y="644"/>
      <point x="499" y="660" type="curve"/>
      <point x="458" y="660" type="line"/>
      <point x="464" y="643"/>
      <point x="467" y="627"/>
      <point x="467" y="608" type="curve" smooth="yes"/>
      <point x="467" y="523"/>
      <point x="410" y="455"/>
      <point x="344" y="455" type="curve" smooth="yes"/>
      <point x="327" y="455"/>
      <point x="311" y="458"/>
      <point x="302" y="461" type="curve"/>
      <point x="293" y="425" type="line"/>
      <point x="308" y="421"/>
      <point x="324" y="419"/>
    </contour>
  </outline>
</glyph>
<glyph name="dotbelowcomb" format="2">
  <unicode hex="0323"/>
  <anchor x="285" y="0" name="_bottom"/>
  <anchor x="227" y="-231" name="bottom"/>
  <outline>
    <contour>
      <point x="236" y="-216" type="curve" smooth="yes"/>
      <point x="257" y="-216"/>
      <point x="276" y="-197"/>
      <point x="276" y="-175" type="curve" smooth="yes"/>
      <point x="276" y="-157"/>
      <point x="261" y="-144"/>
      <point x="244" y="-144" type="curve" smooth="yes"/>
      <point x="223" y="-144"/>
      <point x="204" y="-163"/>
      <point x="204" y="-185" type="curve" smooth="yes"/>
      <point x="204" y="-202"/>
      <point x="217" y="-216"/>
    </contour>
  </outline>
</glyph>
<glyph name="dieresisbelowcomb" format="2">
  <unicode hex="0324"/>
  <anchor x="285" y="0" name="_bottom"/>
  <anchor x="231" y="-216" name="bottom"/>
  <outline>
    <contour>
      <point x="328" y="-216" type="curve" smooth="yes"/>
      <point x="349" y="-216"/>
      <point x="368" y="-197"/>
      <point x="368" y="-175" type="curve" smooth="yes"/>
      <point x="368" y="-158"/>
      <point x="354" y="-144"/>
      <point x="336" y="-144" type="curve" smooth="yes"/>
      <point x="315" y="-144"/>
      <point x="296" y="-163"/>
      <point x="296" y="-185" type="curve" smooth="yes"/>
      <point x="296" y="-203"/>
      <point x="311" y="-216"/>
    </contour>
    <contour>
      <point x="142" y="-216" type="curve" smooth="yes"/>
      <point x="163" y="-216"/>
      <point x="182" y="-197"/>
      <point x="182" y="-175" type="curve" smooth="yes"/>
      <point x="182" y="-158"/>
      <point x="168" y="-144"/>
      <point x="150" y="-144" type="curve" smooth="yes"/>
      <point x="129" y="-144"/>
      <point x="110" y="-163"/>
      <point x="110" y="-185" type="curve" smooth="yes"/>
      <point x="110" y="-203"/>
      <point x="125" y="-216"/>
    </contour>
  </outline>
</glyph>
<glyph name="commaaccentcomb" format="2">
  <unicode hex="0326"/>
  <anchor x="284" y="0" name="_bottom"/>
  <anchor x="123" y="-330" name="bottom"/>
  <outline>
    <contour>
      <point x="97" y="-330" type="curve"/>
      <point x="149" y="-330" type="line"/>
      <point x="201" y="-272"/>
      <point x="250" y="-206"/>
      <point x="274" y="-132" type="curve"/>
      <point x="232" y="-132" type="line"/>
      <point x="205" y="-212"/>
      <point x="153" y="-277"/>
    </contour>
  </outline>
</glyph>
<glyph name="cedillacomb" format="2">
  <unicode hex="0327"/>
  <anchor x="329" y="0" name="_bottom"/>
  <anchor x="157" y="-180" name="bottom"/>
  <outline>
    <contour>
      <point x="130" y="-180" type="line"/>
      <point x="184" y="-180" type="line"/>
      <point x="350" y="0" type="line"/>
      <point x="308" y="0" type="line"/>
    </contour>
  </outline>
</glyph>
<glyph name="brevebelowcomb" format="2">
  <unicode hex="032E"/>
  <anchor x="285" y="0" name="_bottom"/>
  <anchor x="223" y="-250" name="bottom"/>
  <outline>
    <contour>
      <point x="241" y="-250" type="curve" smooth="yes"/>
      <point x="325" y="-250"/>
      <point x="389" y="-184"/>
      <point x="407" y="-102" type="curve"/>
      <point x="373" y="-102" type="line"/>
      <point x="356" y="-169"/>
      <point x="308" y="-218"/>
      <point x="243" y="-218" type="curve" smooth="yes"/>
      <point x="173" y="-218"/>
      <point x="136" y="-163"/>
      <point x="146" y="-102" type="curve"/>
      <point x="113" y="-102" type="line"/>
      <point x="100" y="-175"/>
      <point x="152" y="-250"/>
    </contour>
  </outline>
</glyph>
<glyph name="strokeshortcomb" format="2">
  <unicode hex="0335"/>
  <anchor x="355" y="300" name="_center"/>
  <outline>
    <contour>
      <point x="86" y="283" type="line"/>
      <point x="446" y="283" type="line"/>
      <point x="454" y="317" type="line"/>
      <point x="94" y="317" type="line"/>
    </contour>
  </outline>
</glyph>
<glyph name="strokelongcomb" format="2">
  <unicode hex="0336"/>
  <anchor x="437" y="450" name="_center"/>
  <outline>
    <contour>
      <point x="93" y="432" type="line"/>
      <point x="773" y="432" type="line"/>
      <point x="781" y="468" type="line"/>
      <point x="101" y="468" type="line"/>
    </contour>
  </outline>
</glyph>
<glyph name="slashshortcomb" format="2">
  <unicode hex="0337"/>
  <anchor x="275" y="300" name="_center"/>
  <outline>
    <contour>
      <point x="108" y="224" type="line"/>
      <point x="124" y="195" type="line"/>
      <point x="442" y="375" type="line"/>
      <point x="426" y="405" type="line"/>
    </contour>
  </outline>
</glyph>
<glyph name="slashlongcomb" format="2">
  <unicode hex="0338"/>
  <anchor x="275" y="285" name="_center"/>
  <outline>
    <contour>
      <point x="-24" y="12" type="line"/>
      <point x="596" y="529" type="line"/>
      <point x="574" y="558" type="line"/>
      <point x="-46" y="41" type="line"/>
    </contour>
  </outline>
</glyph>
<glyph name="pi" format="2">
  <advance width="700"/>
  <unicode hex="03C0"/>
  <outline>
    <contour>
      <point x="34" y="0" type="line"/>
      <point x="76" y="0" type="line"/>
      <point x="208" y="532" type="line"/>
      <point x="605" y="532" type="line"/>
      <point x="474" y="0" type="line"/>
      <point x="516" y="0" type="line"/>
      <point x="658" y="570" type="line"/>
      <point x="177" y="570" type="line"/>
    </contour>
  </outline>
</glyph>
<glyph name="baht" format="2">
  <advance width="750"/>
  <unicode hex="0E3F"/>
  <outline>
    <contour>
      <point x="246" y="-120" type="line"/>
      <point x="282" y="-120" type="line"/>
      <point x="312" y="0" type="line"/>
      <point x="512" y="0"/>
      <point x="664" y="136"/>
      <point x="664" y="300" type="curve" smooth="yes"/>
      <point x="664" y="403"/>
      <point x="602" y="491"/>
      <point x="506" y="525" type="curve"/>
      <point x="616" y="548"/>
      <point x="692" y="630"/>
      <point x="692" y="727" type="curve" smooth="yes"/>
      <point x="692" y="817"/>
      <point x="630" y="882"/>
      <point x="536" y="897" type="curve"/>
      <point x="560" y="990" type="line"/>
      <point x="524" y="990" type="line"/>
      <point x="501" y="900" type="line"/>
      <point x="296" y="900" type="line"/>
      <point x="71" y="0" type="line"/>
      <point x="276" y="0" type="line"/>
    </contour>
    <contour>
      <point x="125" y="38" type="line"/>
      <point x="242" y="510" type="line"/>
      <point x="407" y="510" type="line" smooth="yes"/>
      <point x="528" y="510"/>
      <point x="620" y="420"/>
      <point x="620" y="301" type="curve" smooth="yes"/>
      <point x="620" y="157"/>
      <point x="489" y="38"/>
      <point x="331" y="38" type="curve" smooth="yes"/>
    </contour>
    <contour>
      <point x="251" y="546" type="line"/>
      <point x="330" y="862" type="line"/>
      <point x="489" y="862" type="line" smooth="yes"/>
      <point x="585" y="862"/>
      <point x="650" y="805"/>
      <point x="650" y="721" type="curve" smooth="yes"/>
      <point x="650" y="621"/>
      <point x="553" y="546"/>
      <point x="425" y="546" type="curve" smooth="yes"/>
    </contour>
  </outline>
</glyph>
<glyph name="Germandbls" format="2">
  <advance width="950"/>
  <unicode hex="1E9E"/>
  <outline>
    <contour>
      <point x="545" y="-12" type="curve" smooth="yes"/>
      <point x="721" y="-12"/>
      <point x="887" y="145"/>
      <point x="887" y="323" type="curve" smooth="yes"/>
      <point x="887" y="443"/>
      <point x="812" y="544"/>
      <point x="692" y="574" type="curve"/>
      <point x="962" y="899" type="line"/>
      <point x="962" y="900" type="line"/>
      <point x="286" y="900" type="line"/>
      <point x="61" y="0" type="line"/>
      <point x="105" y="0" type="line"/>
      <point x="321" y="862" type="line"/>
      <point x="882" y="862" type="line"/>
      <point x="619" y="541" type="line"/>
      <point x="620" y="540" type="line"/>
      <point x="626" y="541"/>
      <point x="634" y="542"/>
      <point x="644" y="542" type="curve" smooth="yes"/>
      <point x="733" y="542"/>
      <point x="843" y="461"/>
      <point x="843" y="322" type="curve" smooth="yes"/>
      <point x="843" y="164"/>
      <point x="700" y="28"/>
      <point x="549" y="28" type="curve" smooth="yes"/>
      <point x="447" y="28"/>
      <point x="362" y="90"/>
      <point x="330" y="189" type="curve"/>
      <point x="297" y="149" type="line"/>
      <point x="341" y="51"/>
      <point x="433" y="-12"/>
    </contour>
  </outline>
</glyph>
<glyph name="endash" format="2">
  <advance width="720"/>
  <unicode hex="2013"/>
  <outline>
    <contour>
      <point x="66" y="282" type="line"/>
      <point x="646" y="282" type="line"/>
      <point x="654" y="318" type="line"/>
      <point x="74" y="318" type="line"/>
    </contour>
  </outline>
</glyph>
<glyph name="dblverticalbar" format="2">
  <advance width="480"/>
  <unicode hex="2016"/>
  <outline>
    <contour>
      <point x="342" y="-180" type="line"/>
      <point x="378" y="-180" type="line"/>
      <point x="378" y="960" type="line"/>
      <point x="342" y="960" type="line"/>
    </contour>
    <contour>
      <point x="102" y="-180" type="line"/>
      <point x="138" y="-180" type="line"/>
      <point x="138" y="960" type="line"/>
      <point x="102" y="960" type="line"/>
    </contour>
  </outline>
</glyph>
<glyph name="quoteleft" format="2">
  <advance width="240"/>
  <unicode hex="2018"/>
  <outline>
    <contour>
      <point x="157" y="630" type="curve"/>
      <point x="199" y="630" type="line"/>
      <point x="226" y="738"/>
      <point x="286" y="829"/>
      <point x="361" y="900" type="curve"/>
      <point x="307" y="900" type="line"/>
      <point x="231" y="817"/>
      <point x="180" y="725"/>
    </contour>
  </outline>
</glyph>
<glyph name="quoteright" format="2">
  <advance width="240"/>
  <unicode hex="2019"/>
  <outline>
    <contour>
      <point x="111" y="630" type="curve"/>
      <point x="165" y="630" type="line"/>
      <point x="241" y="713"/>
      <point x="292" y="805"/>
      <point x="315" y="900" type="curve"/>
      <point x="273" y="900" type="line"/>
      <point x="246" y="792"/>
      <point x="186" y="701"/>
    </contour>
  </outline>
</glyph>
<glyph name="quotesinglbase" format="2">
  <advance width="240"/>
  <unicode hex="201A"/>
  <outline>
    <contour>
      <point x="-78" y="-150" type="curve"/>
      <point x="-24" y="-150" type="line"/>
      <point x="52" y="-67"/>
      <point x="103" y="25"/>
      <point x="126" y="120" type="curve"/>
      <point x="84" y="120" type="line"/>
      <point x="57" y="12"/>
      <point x="-3" y="-79"/>
    </contour>
  </outline>
</glyph>
<glyph name="dagger" format="2">
  <advance width="600"/>
  <unicode hex="2020"/>
  <outline>
    <contour>
      <point x="204" y="0" type="line"/>
      <point x="246" y="0" type="line"/>
      <point x="396" y="614" type="line"/>
      <point x="594" y="611" type="line"/>
      <point x="603" y="649" type="line"/>
      <point x="405" y="646" type="line"/>
      <point x="471" y="900" type="line"/>
      <point x="429" y="900" type="line"/>
      <point x="369" y="646" type="line"/>
      <point x="171" y="649" type="line"/>
      <point x="162" y="611" type="line"/>
      <point x="360" y="614" type="line"/>
    </contour>
  </outline>
</glyph>
<glyph name="daggerdbl" format="2">
  <advance width="600"/>
  <unicode hex="2021"/>
  <outline>
    <contour>
      <point x="204" y="0" type="line"/>
      <point x="246" y="0" type="line"/>
      <point x="306" y="254" type="line"/>
      <point x="504" y="251" type="line"/>
      <point x="513" y="289" type="line"/>
      <point x="315" y="286" type="line"/>
      <point x="358" y="450" type="line"/>
      <point x="396" y="614" type="line"/>
      <point x="594" y="611" type="line"/>
      <point x="603" y="649" type="line"/>
      <point x="405" y="646" type="line"/>
      <point x="471" y="900" type="line"/>
      <point x="429" y="900" type="line"/>
      <point x="369" y="646" type="line"/>
      <point x="171" y="649" type="line"/>
      <point x="162" y="611" type="line"/>
      <point x="360" y="614" type="line"/>
      <point x="316" y="450" type="line"/>
      <point x="279" y="286" type="line"/>
      <point x="81" y="289" type="line"/>
      <point x="72" y="251" type="line"/>
      <point x="270" y="254" type="line"/>
    </contour>
  </outline>
</glyph>
<glyph name="ellipsis" format="2">
  <advance width="1440"/>
  <unicode hex="2026"/>
  <outline>
    <contour>
      <point x="1130" y="-8" type="curve" smooth="yes"/>
      <point x="1154" y="-8"/>
      <point x="1176" y="14"/>
      <point x="1176" y="38" type="curve" smooth="yes"/>
      <point x="1176" y="61"/>
      <point x="1157" y="76"/>
      <point x="1138" y="76" type="curve" smooth="yes"/>
      <point x="1114" y="76"/>
      <point x="1092" y="54"/>
      <point x="1092" y="29" type="curve" smooth="yes"/>
      <point x="1092" y="10"/>
      <point x="1109" y="-8"/>
    </contour>
    <contour>
      <point x="170" y="-8" type="curve" smooth="yes"/>
      <point x="194" y="-8"/>
      <point x="216" y="14"/>
      <point x="216" y="38" type="curve" smooth="yes"/>
      <point x="216" y="61"/>
      <point x="197" y="76"/>
      <point x="178" y="76" type="curve" smooth="yes"/>
      <point x="154" y="76"/>
      <point x="132" y="54"/>
      <point x="132" y="29" type="curve" smooth="yes"/>
      <point x="132" y="10"/>
      <point x="149" y="-8"/>
    </contour>
    <contour>
      <point x="650" y="-8" type="curve" smooth="yes"/>
      <point x="674" y="-8"/>
      <point x="696" y="14"/>
      <point x="696" y="38" type="curve" smooth="yes"/>
      <point x="696" y="61"/>
      <point x="677" y="76"/>
      <point x="658" y="76" type="curve" smooth="yes"/>
      <point x="634" y="76"/>
      <point x="612" y="54"/>
      <point x="612" y="29" type="curve" smooth="yes"/>
      <point x="612" y="10"/>
      <point x="629" y="-8"/>
    </contour>
  </outline>
</glyph>
<glyph name="minute" format="2">
  <advance width="250"/>
  <unicode hex="2032"/>
  <outline>
    <contour>
      <point x="84" y="600" type="line"/>
      <point x="120" y="600" type="line"/>
      <point x="375" y="900" type="line"/>
      <point x="315" y="900" type="line"/>
    </contour>
  </outline>
</glyph>
<glyph name="guilsinglleft" format="2">
  <advance width="300"/>
  <unicode hex="2039"/>
  <outline>
    <contour>
      <point x="177" y="120" type="line"/>
      <point x="226" y="120" type="line"/>
      <point x="65" y="303" type="line"/>
      <point x="302" y="479" type="line"/>
      <point x="245" y="479" type="line"/>
      <point x="13" y="306" type="line"/>
    </contour>
  </outline>
</glyph>
<glyph name="guilsinglright" format="2">
  <advance width="300"/>
  <unicode hex="203A"/>
  <outline>
    <contour>
      <point x="-2" y="120" type="line"/>
      <point x="55" y="120" type="line"/>
      <point x="287" y="293" type="line"/>
      <point x="123" y="479" type="line"/>
      <point x="74" y="479" type="line"/>
      <point x="235" y="296" type="line"/>
    </contour>
  </outline>
</glyph>
<glyph name="fraction" format="2">
  <advance width="60"/>
  <unicode hex="2044"/>
  <outline>
    <contour>
      <point x="-365" y="0" type="line"/>
      <point x="-313" y="0" type="line"/>
      <point x="497" y="900" type="line"/>
      <point x="445" y="900" type="line"/>
    </contour>
  </outline>
</glyph>
<glyph name="commercialMinusSign" format="2">
  <advance width="750"/>
  <unicode hex="2052"/>
  <outline>
    <contour>
      <point x="54" y="0" type="line"/>
      <point x="104" y="0" type="line"/>
      <point x="772" y="900" type="line"/>
      <point x="722" y="900" type="line"/>
    </contour>
    <contour>
      <point x="281" y="618" type="curve" smooth="yes"/>
      <point x="305" y="618"/>
      <point x="327" y="640"/>
      <point x="327" y="664" type="curve" smooth="yes"/>
      <point x="327" y="687"/>
      <point x="308" y="702"/>
      <point x="289" y="702" type="curve" smooth="yes"/>
      <point x="265" y="702"/>
      <point x="243" y="680"/>
      <point x="243" y="655" type="curve" smooth="yes"/>
      <point x="243" y="636"/>
      <point x="260" y="618"/>
    </contour>
    <contour>
      <point x="537" y="198" type="curve" smooth="yes"/>
      <point x="561" y="198"/>
      <point x="583" y="220"/>
      <point x="583" y="244" type="curve" smooth="yes"/>
      <point x="583" y="267"/>
      <point x="564" y="282"/>
      <point x="545" y="282" type="curve" smooth="yes"/>
      <point x="521" y="282"/>
      <point x="499" y="260"/>
      <point x="499" y="235" type="curve" smooth="yes"/>
      <point x="499" y="216"/>
      <point x="516" y="198"/>
    </contour>
  </outline>
</glyph>
